{
.appVersion = "1271";
classes = (
{
automatic = 1;

glyphs = (
{
glyphname = A;
lastChange = "2019-10-21 09:54:40 +0000";
layers = (
{
anchors = (
{
name = bottom;
position = "{359, 0}";
},
{
name = ogonek;
position = "{682, 0}";
},
{
name = top;
position = "{359, 705}";
}
);
background = {
anchors = (
{
name = bottom;
position = "{359, 0}";
},
{
name = ogonek;
position = "{682, 0}";
},
{
name = top;
position = "{359, 705}";
}
);
paths = (
{
closed = 1;
nodes = (
"378 705 LINE",
"338 705 LINE",
"35 0 LINE",
"80 0 LINE",
"167 204 LINE",
"139 195 LINE",
"575 195 LINE",
"548 204 LINE",
"636 0 LINE",
"681 0 LINE"
);
},
{
closed = 1;
nodes = (
"558 234 LINE",
"156 234 LINE",
"178 228 LINE",
"371 680 LINE",
"345 680 LINE",
"538 228 LINE"
);
}
);
};
layerId = "F1F93986-3ED8-4AAE-84C4-CA3EEECDDFA0";
paths = (
{
closed = 1;
nodes = (
"80 0 LINE",
"167 204 LINE",
"139 195 LINE",
"575 195 LINE",
"548 204 LINE",
"636 0 LINE",
"681 0 LINE",
"378 705 LINE",
"338 705 LINE",
"35 0 LINE"
);
},
{
closed = 1;
nodes = (
"359 648 LINE",
"538 228 LINE",
"558 234 LINE",
"156 234 LINE",
"178 228 LINE",
"357 648 LINE"
);
}
);
width = 716;
},
{
anchors = (
{
name = bottom;
position = "{387, 0}";
},
{
name = ogonek;
position = "{726, 0}";
},
{
name = top;
position = "{386, 705}";
}
);
background = {
anchors = (
{
name = bottom;
position = "{387, 0}";
},
{
name = ogonek;
position = "{726, 0}";
},
{
name = top;
position = "{386, 705}";
}
);
paths = (
{
closed = 1;
nodes = (
"471 705 LINE",
"302 705 LINE",
"-33 0 LINE",
"181 0 LINE",
"263 191 LINE",
"183 131 LINE",
"590 131 LINE",
"510 191 LINE",
"592 0 LINE",
"806 0 LINE"
);
},
{
closed = 1;
nodes = (
"520 295 LINE",
"253 295 LINE",
"283 238 LINE",
"405 530 LINE",
"368 530 LINE",
"490 238 LINE"
);
}
);
};
layerId = "4121B50C-FD42-45C5-8FBE-41E76D98F91E";
paths = (
{
closed = 1;
nodes = (
"181 0 LINE",
"263 191 LINE",
"183 131 LINE",
"590 131 LINE",
"510 191 LINE",
"592 0 LINE",
"806 0 LINE",
"471 705 LINE",
"302 705 LINE",
"-33 0 LINE"
);
},
{
closed = 1;
nodes = (
"387 483 LINE",
"490 238 LINE",
"520 295 LINE",
"253 295 LINE",
"283 238 LINE",
"385 483 LINE"
);
}
);
width = 773;
}
);
leftKerningGroup = A;
rightKerningGroup = A;
unicode = 0041;
userData = {
anchors = (
);
b = {
};
com.typemytype.robofont.layerData = {
b = {
anchors = (
);
components = (
);
contours = (
{
points = (
{
segmentType = line;
smooth = 0;
x = 403;
y = 502;
},
{
segmentType = line;
smooth = 0;
x = 703;
y = 1275;
},
{
segmentType = line;
smooth = 0;
x = 705;
y = 1275;
},
{
segmentType = line;
smooth = 0;
x = 1004;
y = 502;
}
);
},
{
points = (
{
segmentType = curve;
smooth = 1;
x = 150;
y = 0;
},
{
smooth = 0;
x = 181;
y = 0;
},
{
smooth = 0;
x = 214;
y = 15;
},
{
segmentType = curve;
smooth = 1;
x = 229;
y = 53;
},
{
segmentType = line;
smooth = 0;
x = 356;
y = 373;
},
{
segmentType = line;
smooth = 0;
x = 1051;
y = 373;
},
{
segmentType = line;
smooth = 1;
x = 1179;
y = 53;
},
{
smooth = 0;
x = 1193;
y = 17;
},
{
smooth = 0;
x = 1228;
y = 0;
},
{
segmentType = curve;
smooth = 1;
x = 1260;
y = 0;
},
{
smooth = 0;
x = 1306;
y = 0;
},
{
smooth = 0;
x = 1354;
y = 31;
},
{
segmentType = curve;
smooth = 1;
x = 1354;
y = 80;
},
{
smooth = 0;
x = 1354;
y = 87;
},
{
smooth = 0;
x = 1352;
y = 97;
},
{
segmentType = curve;
smooth = 0;
x = 1349;
y = 108;
},
{
segmentType = line;
smooth = 1;
x = 871;
y = 1288;
},
{
smooth = 0;
x = 817;
y = 1420;
},
{
smooth = 0;
x = 777;
y = 1430;
},
{
segmentType = curve;
smooth = 1;
x = 710;
y = 1430;
},
{
smooth = 0;
x = 644;
y = 1430;
},
{
smooth = 0;
x = 596;
y = 1413;
},
{
segmentType = curve;
smooth = 1;
x = 542;
y = 1280;
},
{
segmentType = line;
smooth = 1;
x = 66;
y = 108;
},
{
smooth = 0;
x = 62;
y = 97;
},
{
smooth = 0;
x = 60;
y = 87;
},
{
segmentType = curve;
smooth = 1;
x = 60;
y = 78;
},
{
smooth = 0;
x = 60;
y = 32;
},
{
smooth = 0;
x = 106;
y = 0;
}
);
}
);
lib = {
};
name = A;
unicodes = (
);
width = 1414;
};
};
components = (
);
contours = {
};
lib = {
};
name = A;
points = {
};
segmentType = line;
unicodes = (
);
width = 1445;
x = 718;
y = 1232;
};
},
{
glyphname = AE;
lastChange = "2019-10-21 09:54:40 +0000";
layers = (
{
anchors = (
{
name = bottom;
position = "{487, 0}";
},
{
name = top;
position = "{486, 705}";
}
);
background = {
anchors = (
{
name = bottom;
position = "{487, 0}";
},
{
name = top;
position = "{486, 705}";
}
);
paths = (
{
closed = 1;
nodes = (
"49 0 LINE",
"172 207 LINE",
"153 195 LINE",
"548 195 LINE",
"528 207 LINE",
"571 0 LINE",
"921 0 LINE",
"921 39 LINE",
"586 39 LINE",
"607 20 LINE",
"538 348 LINE",
"525 338 LINE",
"901 338 LINE",
"901 377 LINE",
"517 377 LINE",
"534 366 LINE",
"466 690 LINE",
"459 666 LINE",
"921 666 LINE",
"921 705 LINE",
"422 705 LINE",
"2 0 LINE"
);
},
{
closed = 1;
nodes = (
"182 224 LINE",
"450 676 LINE",
"429 676 LINE",
"524 225 LINE",
"530 234 LINE",
"173 234 LINE"
);
}
);
};
guideLines = (
{
angle = 101.863;
position = "{499, 338}";
},
{
angle = 239.3238;
position = "{250, 338}";
}
);
layerId = "F1F93986-3ED8-4AAE-84C4-CA3EEECDDFA0";
paths = (
{
closed = 1;
nodes = (
"49 0 LINE",
"172 207 LINE",
"153 195 LINE",
"548 195 LINE",
"528 207 LINE",
"571 0 LINE",
"921 0 LINE",
"921 39 LINE",
"586 39 LINE",
"607 20 LINE",
"538 348 LINE",
"525 338 LINE",
"901 338 LINE",
"901 377 LINE",
"517 377 LINE",
"534 366 LINE",
"466 690 LINE",
"459 666 LINE",
"921 666 LINE",
"921 705 LINE",
"422 705 LINE",
"2 0 LINE"
);
},
{
closed = 1;
nodes = (
"435 648 LINE",
"524 225 LINE",
"530 234 LINE",
"173 234 LINE",
"182 224 LINE",
"433 648 LINE"
);
}
);
width = 971;
},
{
anchors = (
{
name = bottom;
position = "{489, 0}";
},
{
name = top;
position = "{490, 705}";
}
);
background = {
anchors = (
{
name = bottom;
position = "{489, 0}";
},
{
name = top;
position = "{490, 705}";
}
);
paths = (
{
closed = 1;
nodes = (
"150 0 LINE",
"261 186 LINE",
"184 131 LINE",
"562 131 LINE",
"498 194 LINE",
"541 0 LINE",
"961 0 LINE",
"961 164 LINE",
"636 164 LINE",
"706 109 LINE",
"655 335 LINE",
"613 276 LINE",
"938 276 LINE",
"938 440 LINE",
"576 440 LINE",
"645 381 LINE",
"600 584 LINE",
"546 541 LINE",
"961 541 LINE",
"961 705 LINE",
"382 705 LINE",
"-74 0 LINE"
);
},
{
closed = 1;
nodes = (
"294 243 LINE",
"461 523 LINE",
"424 523 LINE",
"489 235 LINE",
"531 295 LINE",
"285 295 LINE"
);
}
);
};
guideLines = (
{
angle = 102.61;
position = "{478, 262}";
},
{
angle = 102.61;
position = "{672, 261}";
},
{
angle = 59.2623;
position = "{306, 262}";
}
);
layerId = "4121B50C-FD42-45C5-8FBE-41E76D98F91E";
paths = (
{
closed = 1;
nodes = (
"150 0 LINE",
"261 186 LINE",
"184 131 LINE",
"562 131 LINE",
"498 194 LINE",
"541 0 LINE",
"961 0 LINE",
"961 164 LINE",
"636 164 LINE",
"706 109 LINE",
"655 335 LINE",
"613 276 LINE",
"938 276 LINE",
"938 440 LINE",
"576 440 LINE",
"645 381 LINE",
"600 584 LINE",
"546 541 LINE",
"961 541 LINE",
"961 705 LINE",
"382 705 LINE",
"-74 0 LINE"
);
},
{
closed = 1;
nodes = (
"435 476 LINE",
"489 235 LINE",
"531 295 LINE",
"285 295 LINE",
"294 243 LINE",
"433 476 LINE"
);
}
);
width = 1014;
}
);
leftKerningGroup = A;
rightKerningGroup = E;
rightMetricsKey = E;
unicode = 00C6;
userData = {
com.typemytype.robofont.layerData = {
b = {
anchors = (
);
components = (
);
contours = (
);
lib = {
};
name = AE;
unicodes = (
);
width = 1976;
};
};
};
},
{
glyphname = B;
lastChange = "2019-10-21 09:53:17 +0000";
layers = (
{
anchors = (
{
name = bottom;
position = "{337, 0}";
},
{
name = top;
position = "{336, 705}";
}
);
background = {
anchors = (
{
name = bottom;
position = "{337, 0}";
},
{
name = top;
position = "{336, 705}";
}
);
paths = (
{
closed = 1;
nodes = (
"521 370 OFFCURVE",
"579 431 OFFCURVE",
"579 520 CURVE SMOOTH",
"579 639 OFFCURVE",
"497 705 OFFCURVE",
"354 705 CURVE SMOOTH",
"96 705 LINE",
"96 0 LINE",
"367 0 LINE SMOOTH",
"513 0 OFFCURVE",
"595 65 OFFCURVE",
"595 191 CURVE SMOOTH",
"595 292 OFFCURVE",
"531 355 OFFCURVE",
"431 365 CURVE",
"431 351 LINE"
);
},
{
closed = 1;
nodes = (
"471 666 OFFCURVE",
"535 615 OFFCURVE",
"535 521 CURVE SMOOTH",
"535 427 OFFCURVE",
"471 376 OFFCURVE",
"351 376 CURVE SMOOTH",
"138 376 LINE",
"138 666 LINE",
"351 666 LINE SMOOTH"
);
},
{
closed = 1;
nodes = (
"138 39 LINE",
"138 337 LINE",
"366 337 LINE SMOOTH",
"489 337 OFFCURVE",
"551 290 OFFCURVE",
"551 188 CURVE SMOOTH",
"551 86 OFFCURVE",
"489 39 OFFCURVE",
"366 39 CURVE SMOOTH"
);
}
);
};
layerId = "F1F93986-3ED8-4AAE-84C4-CA3EEECDDFA0";
paths = (
{
closed = 1;
nodes = (
"367 0 LINE SMOOTH",
"513 0 OFFCURVE",
"595 65 OFFCURVE",
"595 191 CURVE SMOOTH",
"595 292 OFFCURVE",
"531 355 OFFCURVE",
"431 365 CURVE",
"431 351 LINE",
"521 370 OFFCURVE",
"579 431 OFFCURVE",
"579 520 CURVE SMOOTH",
"579 639 OFFCURVE",
"497 705 OFFCURVE",
"354 705 CURVE SMOOTH",
"96 705 LINE",
"96 0 LINE"
);
},
{
closed = 1;
nodes = (
"138 337 LINE",
"366 337 LINE SMOOTH",
"489 337 OFFCURVE",
"551 290 OFFCURVE",
"551 188 CURVE SMOOTH",
"551 86 OFFCURVE",
"489 39 OFFCURVE",
"366 39 CURVE SMOOTH",
"138 39 LINE"
);
},
{
closed = 1;
nodes = (
"138 666 LINE",
"351 666 LINE SMOOTH",
"471 666 OFFCURVE",
"535 615 OFFCURVE",
"535 521 CURVE SMOOTH",
"535 427 OFFCURVE",
"471 376 OFFCURVE",
"351 376 CURVE SMOOTH",
"138 376 LINE"
);
}
);
width = 666;
},
{
anchors = (
{
name = bottom;
position = "{353, 0}";
},
{
name = top;
position = "{353, 705}";
}
);
background = {
anchors = (
{
name = bottom;
position = "{353, 0}";
},
{
name = top;
position = "{353, 705}";
}
);
paths = (
{
closed = 1;
nodes = (
"608 379 OFFCURVE",
"657 441 OFFCURVE",
"657 523 CURVE SMOOTH",
"657 633 OFFCURVE",
"569 705 OFFCURVE",
"415 705 CURVE SMOOTH",
"57 705 LINE",
"57 0 LINE",
"424 0 LINE SMOOTH",
"579 0 OFFCURVE",
"676 79 OFFCURVE",
"676 202 CURVE SMOOTH",
"676 294 OFFCURVE",
"624 355 OFFCURVE",
"529 375 CURVE",
"529 358 LINE"
);
},
{
closed = 1;
nodes = (
"431 549 OFFCURVE",
"453 533 OFFCURVE",
"453 493 CURVE SMOOTH",
"453 453 OFFCURVE",
"431 436 OFFCURVE",
"375 436 CURVE SMOOTH",
"262 436 LINE",
"262 549 LINE",
"375 549 LINE SMOOTH"
);
},
{
closed = 1;
nodes = (
"262 156 LINE",
"262 280 LINE",
"394 280 LINE SMOOTH",
"450 280 OFFCURVE",
"473 259 OFFCURVE",
"473 218 CURVE SMOOTH",
"473 177 OFFCURVE",
"450 156 OFFCURVE",
"394 156 CURVE SMOOTH"
);
}
);
};
layerId = "4121B50C-FD42-45C5-8FBE-41E76D98F91E";
paths = (
{
closed = 1;
nodes = (
"424 0 LINE SMOOTH",
"579 0 OFFCURVE",
"676 79 OFFCURVE",
"676 202 CURVE SMOOTH",
"676 294 OFFCURVE",
"624 355 OFFCURVE",
"529 375 CURVE",
"529 358 LINE",
"608 379 OFFCURVE",
"657 441 OFFCURVE",
"657 523 CURVE SMOOTH",
"657 633 OFFCURVE",
"569 705 OFFCURVE",
"415 705 CURVE SMOOTH",
"57 705 LINE",
"57 0 LINE"
);
},
{
closed = 1;
nodes = (
"262 280 LINE",
"394 280 LINE SMOOTH",
"450 280 OFFCURVE",
"473 259 OFFCURVE",
"473 218 CURVE SMOOTH",
"473 177 OFFCURVE",
"450 156 OFFCURVE",
"394 156 CURVE SMOOTH",
"262 156 LINE"
);
},
{
closed = 1;
nodes = (
"262 549 LINE",
"375 549 LINE SMOOTH",
"431 549 OFFCURVE",
"453 533 OFFCURVE",
"453 493 CURVE SMOOTH",
"453 453 OFFCURVE",
"431 436 OFFCURVE",
"375 436 CURVE SMOOTH",
"262 436 LINE"
);
}
);
width = 710;
}
);
leftKerningGroup = H;
leftMetricsKey = H;
rightKerningGroup = B;
unicode = 0042;
userData = {
anchors = (
);
b = {
};
com.typemytype.robofont.layerData = {
b = {
anchors = (
);
components = (
);
contours = (
{
points = (
{
segmentType = curve;
smooth = 1;
x = 266;
y = 0;
},
{
segmentType = line;
smooth = 1;
x = 1035;
y = 0;
},
{
smooth = 0;
x = 1084;
y = 0;
},
{
smooth = 0;
x = 1108;
y = 36;
},
{
segmentType = curve;
smooth = 1;
x = 1108;
y = 73;
},
{
smooth = 0;
x = 1108;
y = 109;
},
{
smooth = 0;
x = 1084;
y = 145;
},
{
segmentType = curve;
smooth = 1;
x = 1035;
y = 145;
},
{
segmentType = line;
smooth = 0;
x = 353;
y = 145;
},
{
segmentType = line;
smooth = 0;
x = 353;
y = 662;
},
{
segmentType = line;
smooth = 1;
x = 975;
y = 662;
},
{
smooth = 0;
x = 1024;
y = 662;
},
{
smooth = 0;
x = 1049;
y = 698;
},
{
segmentType = curve;
smooth = 1;
x = 1049;
y = 734;
},
{
smooth = 0;
x = 1049;
y = 770;
},
{
smooth = 0;
x = 1026;
y = 806;
},
{
segmentType = curve;
smooth = 1;
x = 975;
y = 806;
},
{
segmentType = line;
smooth = 0;
x = 353;
y = 806;
},
{
segmentType = line;
smooth = 0;
x = 353;
y = 1281;
},
{
segmentType = line;
smooth = 1;
x = 1007;
y = 1281;
},
{
smooth = 0;
x = 1056;
y = 1281;
},
{
smooth = 0;
x = 1080;
y = 1317;
},
{
segmentType = curve;
smooth = 1;
x = 1080;
y = 1354;
},
{
smooth = 0;
x = 1080;
y = 1390;
},
{
smooth = 0;
x = 1056;
y = 1426;
},
{
segmentType = curve;
smooth = 1;
x = 1007;
y = 1426;
},
{
segmentType = line;
smooth = 1;
x = 261;
y = 1426;
},
{
smooth = 0;
x = 213;
y = 1426;
},
{
smooth = 0;
x = 178;
y = 1383;
},
{
segmentType = curve;
smooth = 1;
x = 178;
y = 1340;
},
{
segmentType = line;
smooth = 1;
x = 178;
y = 86;
},
{
smooth = 0;
x = 178;
y = 41;
},
{
smooth = 0;
x = 222;
y = 0;
}
);
}
);
lib = {
};
name = B;
unicodes = (
);
width = 1292;
};
};
components = (
);
contours = {
};
lib = {
};
name = B;
points = {
};
segmentType = curve;
unicodes = (
);
width = 1395;
x = 676;
y = 1260;
};
},
{
glyphname = C;
lastChange = "2019-10-21 09:53:17 +0000";
layers = (
{
anchors = (
{
name = bottom;
position = "{380, 0}";
},
{
name = top;
position = "{382, 705}";
}
);
background = {
anchors = (
{
name = bottom;
position = "{380, 0}";
},
{
name = top;
position = "{382, 705}";
}
);
paths = (
{
closed = 1;
nodes = (
"479 -8 OFFCURVE",
"561 24 OFFCURVE",
"619 87 CURVE",
"597 122 LINE",
"534 59 OFFCURVE",
"468 33 OFFCURVE",
"380 33 CURVE SMOOTH",
"208 33 OFFCURVE",
"112 150 OFFCURVE",
"112 353 CURVE SMOOTH",
"112 555 OFFCURVE",
"208 672 OFFCURVE",
"380 672 CURVE SMOOTH",
"468 672 OFFCURVE",
"534 646 OFFCURVE",
"597 583 CURVE",
"619 618 LINE",
"561 681 OFFCURVE",
"479 713 OFFCURVE",
"381 713 CURVE SMOOTH",
"183 713 OFFCURVE",
"67 576 OFFCURVE",
"67 353 CURVE SMOOTH",
"67 129 OFFCURVE",
"183 -8 OFFCURVE",
"381 -8 CURVE SMOOTH"
);
}
);
};
layerId = "F1F93986-3ED8-4AAE-84C4-CA3EEECDDFA0";
paths = (
{
closed = 1;
nodes = (
"479 -8 OFFCURVE",
"561 24 OFFCURVE",
"619 87 CURVE",
"597 122 LINE",
"534 59 OFFCURVE",
"468 33 OFFCURVE",
"380 33 CURVE SMOOTH",
"208 33 OFFCURVE",
"112 150 OFFCURVE",
"112 353 CURVE SMOOTH",
"112 555 OFFCURVE",
"208 672 OFFCURVE",
"380 672 CURVE SMOOTH",
"468 672 OFFCURVE",
"534 646 OFFCURVE",
"597 583 CURVE",
"619 618 LINE",
"561 681 OFFCURVE",
"479 713 OFFCURVE",
"381 713 CURVE SMOOTH",
"183 713 OFFCURVE",
"67 576 OFFCURVE",
"67 353 CURVE SMOOTH",
"67 129 OFFCURVE",
"183 -8 OFFCURVE",
"381 -8 CURVE SMOOTH"
);
}
);
width = 667;
},
{
anchors = (
{
name = bottom;
position = "{402, 0}";
},
{
name = top;
position = "{401, 705}";
}
);
background = {
anchors = (
{
name = bottom;
position = "{402, 0}";
},
{
name = top;
position = "{401, 705}";
}
);
paths = (
{
closed = 1;
nodes = (
"521 -12 OFFCURVE",
"617 19 OFFCURVE",
"669 63 CURVE",
"607 232 LINE",
"549 193 OFFCURVE",
"493 175 OFFCURVE",
"437 175 CURVE SMOOTH",
"323 175 OFFCURVE",
"268 237 OFFCURVE",
"268 353 CURVE SMOOTH",
"268 468 OFFCURVE",
"323 530 OFFCURVE",
"437 530 CURVE SMOOTH",
"493 530 OFFCURVE",
"549 512 OFFCURVE",
"607 473 CURVE",
"669 642 LINE",
"617 686 OFFCURVE",
"521 717 OFFCURVE",
"429 717 CURVE SMOOTH",
"187 717 OFFCURVE",
"41 572 OFFCURVE",
"41 353 CURVE SMOOTH",
"41 133 OFFCURVE",
"187 -12 OFFCURVE",
"429 -12 CURVE SMOOTH"
);
}
);
};
layerId = "4121B50C-FD42-45C5-8FBE-41E76D98F91E";
paths = (
{
closed = 1;
nodes = (
"521 -12 OFFCURVE",
"617 19 OFFCURVE",
"669 63 CURVE",
"607 232 LINE",
"549 193 OFFCURVE",
"493 175 OFFCURVE",
"437 175 CURVE SMOOTH",
"323 175 OFFCURVE",
"268 237 OFFCURVE",
"268 353 CURVE SMOOTH",
"268 468 OFFCURVE",
"323 530 OFFCURVE",
"437 530 CURVE SMOOTH",
"493 530 OFFCURVE",
"549 512 OFFCURVE",
"607 473 CURVE",
"669 642 LINE",
"617 686 OFFCURVE",
"521 717 OFFCURVE",
"429 717 CURVE SMOOTH",
"187 717 OFFCURVE",
"41 572 OFFCURVE",
"41 353 CURVE SMOOTH",
"41 133 OFFCURVE",
"187 -12 OFFCURVE",
"429 -12 CURVE SMOOTH"
);
}
);
width = 692;
}
);
leftKerningGroup = O;
leftMetricsKey = O;
rightKerningGroup = C;
unicode = 0043;
userData = {
anchors = (
);
b = {
};
com.typemytype.robofont.layerData = {
b = {
anchors = (
);
components = (
);
contours = (
);
lib = {
};
name = C;
unicodes = (
);
width = 1353.89001;
};
};
components = (
);
contours = (
);
lib = {
};
name = C;
unicodes = (
);
width = 1354;
};
},
{
glyphname = D;
lastChange = "2019-10-21 09:53:17 +0000";
layers = (
{
anchors = (
{
name = bottom;
position = "{363, 0}";
},
{
name = center;
position = "{173, 358}";
},
{
name = top;
position = "{362, 705}";
}
);
background = {
anchors = (
{
name = bottom;
position = "{363, 0}";
},
{
name = center;
position = "{173, 358}";
},
{
name = top;
position = "{362, 705}";
}
);
paths = (
{
closed = 1;
nodes = (
"313 0 LINE SMOOTH",
"534 0 OFFCURVE",
"658 123 OFFCURVE",
"658 353 CURVE SMOOTH",
"658 583 OFFCURVE",
"534 705 OFFCURVE",
"313 705 CURVE SMOOTH",
"96 705 LINE",
"96 0 LINE"
);
},
{
closed = 1;
nodes = (
"138 666 LINE",
"309 666 LINE SMOOTH",
"512 666 OFFCURVE",
"613 561 OFFCURVE",
"613 353 CURVE SMOOTH",
"613 145 OFFCURVE",
"512 39 OFFCURVE",
"309 39 CURVE SMOOTH",
"138 39 LINE"
);
}
);
};
layerId = "F1F93986-3ED8-4AAE-84C4-CA3EEECDDFA0";
paths = (
{
closed = 1;
nodes = (
"313 0 LINE SMOOTH",
"534 0 OFFCURVE",
"658 123 OFFCURVE",
"658 353 CURVE SMOOTH",
"658 583 OFFCURVE",
"534 705 OFFCURVE",
"313 705 CURVE SMOOTH",
"96 705 LINE",
"96 0 LINE"
);
},
{
closed = 1;
nodes = (
"138 666 LINE",
"309 666 LINE SMOOTH",
"512 666 OFFCURVE",
"613 561 OFFCURVE",
"613 353 CURVE SMOOTH",
"613 145 OFFCURVE",
"512 39 OFFCURVE",
"309 39 CURVE SMOOTH",
"138 39 LINE"
);
}
);
width = 725;
},
{
anchors = (
{
name = bottom;
position = "{395, 0}";
},
{
name = center;
position = "{214, 358}";
},
{
name = top;
position = "{395, 705}";
}
);
background = {
anchors = (
{
name = bottom;
position = "{395, 0}";
},
{
name = center;
position = "{214, 358}";
},
{
name = top;
position = "{395, 705}";
}
);
paths = (
{
closed = 1;
nodes = (
"365 0 LINE SMOOTH",
"615 0 OFFCURVE",
"759 130 OFFCURVE",
"759 353 CURVE SMOOTH",
"759 575 OFFCURVE",
"615 705 OFFCURVE",
"365 705 CURVE SMOOTH",
"57 705 LINE",
"57 0 LINE"
);
},
{
closed = 1;
nodes = (
"272 531 LINE",
"352 531 LINE SMOOTH",
"476 531 OFFCURVE",
"536 475 OFFCURVE",
"536 353 CURVE SMOOTH",
"536 231 OFFCURVE",
"477 174 OFFCURVE",
"352 174 CURVE SMOOTH",
"272 174 LINE"
);
}
);
};
layerId = "4121B50C-FD42-45C5-8FBE-41E76D98F91E";
paths = (
{
closed = 1;
nodes = (
"365 0 LINE SMOOTH",
"615 0 OFFCURVE",
"759 130 OFFCURVE",
"759 353 CURVE SMOOTH",
"759 575 OFFCURVE",
"615 705 OFFCURVE",
"365 705 CURVE SMOOTH",
"57 705 LINE",
"57 0 LINE"
);
},
{
closed = 1;
nodes = (
"272 531 LINE",
"352 531 LINE SMOOTH",
"476 531 OFFCURVE",
"536 475 OFFCURVE",
"536 353 CURVE SMOOTH",
"536 231 OFFCURVE",
"477 174 OFFCURVE",
"352 174 CURVE SMOOTH",
"272 174 LINE"
);
}
);
width = 800;
}
);
leftKerningGroup = H;
leftMetricsKey = H;
rightKerningGroup = O;
rightMetricsKey = O;
unicode = 0044;
userData = {
anchors = (
);
b = {
};
com.typemytype.robofont.layerData = {
b = {
anchors = (
);
components = (
);
contours = (
{
points = (
{
segmentType = curve;
smooth = 1;
x = 266;
y = 0;
},
{
segmentType = line;
smooth = 1;
x = 1035;
y = 0;
},
{
smooth = 0;
x = 1084;
y = 0;
},
{
smooth = 0;
x = 1108;
y = 34;
},
{
segmentType = curve;
smooth = 1;
x = 1108;
y = 71;
},
{
smooth = 0;
x = 1108;
y = 107;
},
{
smooth = 0;
x = 1084;
y = 141;
},
{
segmentType = curve;
smooth = 1;
x = 1035;
y = 141;
},
{
segmentType = line;
smooth = 0;
x = 356;
y = 141;
},
{
segmentType = line;
smooth = 0;
x = 356;
y = 665;
},
{
segmentType = line;
smooth = 1;
x = 975;
y = 665;
},
{
smooth = 0;
x = 1024;
y = 665;
},
{
smooth = 0;
x = 1049;
y = 698;
},
{
segmentType = curve;
smooth = 1;
x = 1049;
y = 734;
},
{
smooth = 0;
x = 1049;
y = 770;
},
{
smooth = 0;
x = 1026;
y = 803;
},
{
segmentType = curve;
smooth = 1;
x = 975;
y = 803;
},
{
segmentType = line;
smooth = 0;
x = 356;
y = 803;
},
{
segmentType = line;
smooth = 0;
x = 356;
y = 1285;
},
{
segmentType = line;
smooth = 1;
x = 1007;
y = 1285;
},
{
smooth = 0;
x = 1056;
y = 1285;
},
{
smooth = 0;
x = 1080;
y = 1319;
},
{
segmentType = curve;
smooth = 1;
x = 1080;
y = 1356;
},
{
smooth = 0;
x = 1080;
y = 1392;
},
{
smooth = 0;
x = 1056;
y = 1426;
},
{
segmentType = curve;
smooth = 1;
x = 1007;
y = 1426;
},
{
segmentType = line;
smooth = 1;
x = 261;
y = 1426;
},
{
smooth = 0;
x = 213;
y = 1426;
},
{
smooth = 0;
x = 178;
y = 1383;
},
{
segmentType = curve;
smooth = 1;
x = 178;
y = 1340;
},
{
segmentType = line;
smooth = 1;
x = 178;
y = 86;
},
{
smooth = 0;
x = 178;
y = 41;
},
{
smooth = 0;
x = 222;
y = 0;
}
);
}
);
lib = {
};
name = D;
unicodes = (
);
width = 1499;
};
};
components = (
);
contours = (
);
lib = {
};
name = D;
unicodes = (
);
width = 1535;
};
},
{
glyphname = E;
lastChange = "2019-10-21 09:53:17 +0000";
layers = (
{
anchors = (
{
name = bottom;
position = "{320, 0}";
},
{
name = ogonek;
position = "{490, 0}";
},
{
name = top;
position = "{320, 705}";
},
{
name = topleft;
position = "{27, 705}";
}
);
background = {
anchors = (
{
name = bottom;
position = "{320, 0}";
},
{
name = ogonek;
position = "{490, 0}";
},
{
name = top;
position = "{320, 705}";
},
{
name = topleft;
position = "{27, 705}";
}
);
paths = (
{
closed = 1;
nodes = (
"520 705 LINE",
"96 705 LINE",
"96 0 LINE",
"520 0 LINE",
"520 39 LINE",
"138 39 LINE",
"138 338 LINE",
"500 338 LINE",
"500 377 LINE",
"138 377 LINE",
"138 666 LINE",
"520 666 LINE"
);
}
);
};
guideLines = (
{
angle = 270;
position = "{520, 353}";
}
);
layerId = "F1F93986-3ED8-4AAE-84C4-CA3EEECDDFA0";
paths = (
{
closed = 1;
nodes = (
"520 0 LINE",
"520 39 LINE",
"138 39 LINE",
"138 338 LINE",
"500 338 LINE",
"500 377 LINE",
"138 377 LINE",
"138 666 LINE",
"520 666 LINE",
"520 705 LINE",
"96 705 LINE",
"96 0 LINE"
);
}
);
width = 570;
},
{
anchors = (
{
name = bottom;
position = "{336, 0}";
},
{
name = ogonek;
position = "{506, 0}";
},
{
name = top;
position = "{336, 705}";
},
{
name = topleft;
position = "{18, 705}";
}
);
background = {
anchors = (
{
name = bottom;
position = "{336, 0}";
},
{
name = ogonek;
position = "{506, 0}";
},
{
name = top;
position = "{336, 705}";
},
{
name = topleft;
position = "{18, 705}";
}
);
paths = (
{
closed = 1;
nodes = (
"571 705 LINE",
"57 705 LINE",
"57 0 LINE",
"571 0 LINE",
"571 164 LINE",
"262 164 LINE",
"262 276 LINE",
"548 276 LINE",
"548 440 LINE",
"262 440 LINE",
"262 541 LINE",
"571 541 LINE"
);
}
);
};
guideLines = (
{
angle = 270;
position = "{575, 353}";
}
);
layerId = "4121B50C-FD42-45C5-8FBE-41E76D98F91E";
paths = (
{
closed = 1;
nodes = (
"571 0 LINE",
"571 164 LINE",
"262 164 LINE",
"262 276 LINE",
"548 276 LINE",
"548 440 LINE",
"262 440 LINE",
"262 541 LINE",
"571 541 LINE",
"571 705 LINE",
"57 705 LINE",
"57 0 LINE"
);
}
);
width = 624;
}
);
leftKerningGroup = H;
leftMetricsKey = H;
rightKerningGroup = E;
unicode = 0045;
userData = {
anchors = (
);
b = {
};
com.typemytype.robofont.layerData = {
b = {
anchors = (
);
components = (
);
contours = (
);
lib = {
};
name = E;
unicodes = (
);
width = 1234;
};
};
components = (
);
contours = (
);
lib = {
};
name = E;
unicodes = (
);
width = 1258;
};
},
{
glyphname = F;
lastChange = "2019-10-21 09:53:17 +0000";
layers = (
{
anchors = (
{
name = bottom;
position = "{293, 0}";
},
{
name = top;
position = "{293, 705}";
}
);
background = {
anchors = (
{
name = bottom;
position = "{293, 0}";
},
{
name = top;
position = "{293, 705}";
}
);
paths = (
{
closed = 1;
nodes = (
"510 705 LINE",
"96 705 LINE",
"96 0 LINE",
"138 0 LINE",
"138 338 LINE",
"490 338 LINE",
"490 377 LINE",
"138 377 LINE",
"138 666 LINE",
"510 666 LINE"
);
}
);
};
layerId = "F1F93986-3ED8-4AAE-84C4-CA3EEECDDFA0";
paths = (
{
closed = 1;
nodes = (
"138 0 LINE",
"138 338 LINE",
"490 338 LINE",
"490 377 LINE",
"138 377 LINE",
"138 666 LINE",
"510 666 LINE",
"510 705 LINE",
"96 705 LINE",
"96 0 LINE"
);
}
);
width = 536;
},
{
anchors = (
{
name = bottom;
position = "{306, 0}";
},
{
name = top;
position = "{312, 705}";
}
);
background = {
anchors = (
{
name = bottom;
position = "{306, 0}";
},
{
name = top;
position = "{312, 705}";
}
);
paths = (
{
closed = 1;
nodes = (
"566 705 LINE",
"57 705 LINE",
"57 0 LINE",
"272 0 LINE",
"272 267 LINE",
"543 267 LINE",
"543 431 LINE",
"272 431 LINE",
"272 541 LINE",
"566 541 LINE"
);
}
);
};
layerId = "4121B50C-FD42-45C5-8FBE-41E76D98F91E";
paths = (
{
closed = 1;
nodes = (
"272 0 LINE",
"272 267 LINE",
"543 267 LINE",
"543 431 LINE",
"272 431 LINE",
"272 541 LINE",
"566 541 LINE",
"566 705 LINE",
"57 705 LINE",
"57 0 LINE"
);
}
);
width = 588;
}
);
leftKerningGroup = H;
leftMetricsKey = H;
rightKerningGroup = F;
unicode = 0046;
userData = {
anchors = (
);
b = {
};
com.typemytype.robofont.layerData = {
b = {
anchors = (
);
components = (
);
contours = (
{
points = (
{
segmentType = curve;
smooth = 1;
x = 266;
y = 0;
},
{
segmentType = line;
smooth = 1;
x = 1035;
y = 0;
},
{
smooth = 0;
x = 1084;
y = 0;
},
{
smooth = 0;
x = 1108;
y = 34;
},
{
segmentType = curve;
smooth = 1;
x = 1108;
y = 71;
},
{
smooth = 0;
x = 1108;
y = 107;
},
{
smooth = 0;
x = 1084;
y = 141;
},
{
segmentType = curve;
smooth = 1;
x = 1035;
y = 141;
},
{
segmentType = line;
smooth = 0;
x = 353;
y = 141;
},
{
segmentType = line;
smooth = 0;
x = 353;
y = 665;
},
{
segmentType = line;
smooth = 1;
x = 975;
y = 665;
},
{
smooth = 0;
x = 1024;
y = 665;
},
{
smooth = 0;
x = 1049;
y = 698;
},
{
segmentType = curve;
smooth = 1;
x = 1049;
y = 734;
},
{
smooth = 0;
x = 1049;
y = 770;
},
{
smooth = 0;
x = 1026;
y = 803;
},
{
segmentType = curve;
smooth = 1;
x = 975;
y = 803;
},
{
segmentType = line;
smooth = 0;
x = 353;
y = 803;
},
{
segmentType = line;
smooth = 0;
x = 353;
y = 1285;
},
{
segmentType = line;
smooth = 1;
x = 1007;
y = 1285;
},
{
smooth = 0;
x = 1056;
y = 1285;
},
{
smooth = 0;
x = 1080;
y = 1319;
},
{
segmentType = curve;
smooth = 1;
x = 1080;
y = 1356;
},
{
smooth = 0;
x = 1080;
y = 1392;
},
{
smooth = 0;
x = 1056;
y = 1426;
},
{
segmentType = curve;
smooth = 1;
x = 1007;
y = 1426;
},
{
segmentType = line;
smooth = 1;
x = 261;
y = 1426;
},
{
smooth = 0;
x = 213;
y = 1426;
},
{
smooth = 0;
x = 178;
y = 1383;
},
{
segmentType = curve;
smooth = 1;
x = 178;
y = 1340;
},
{
segmentType = line;
smooth = 1;
x = 178;
y = 86;
},
{
smooth = 0;
x = 178;
y = 41;
},
{
smooth = 0;
x = 222;
y = 0;
}
);
}
);
lib = {
};
name = F;
unicodes = (
);
width = 1142;
};
};
components = (
);
contours = (
);
lib = {
};
name = F;
unicodes = (
);
width = 1175;
};
},
{
glyphname = G;
lastChange = "2019-10-21 09:53:17 +0000";
layers = (
{
anchors = (
{
name = bottom;
position = "{390, 0}";
},
{
name = top;
position = "{383, 705}";
}
);
background = {
anchors = (
{
name = bottom;
position = "{390, 0}";
},
{
name = top;
position = "{383, 705}";
}
);
paths = (
{
closed = 1;
nodes = (
"482 -8 OFFCURVE",
"579 13 OFFCURVE",
"628 40 CURVE",
"628 355 LINE",
"394 355 LINE",
"394 316 LINE",
"588 316 LINE",
"588 35 LINE",
"600 73 LINE",
"543 47 OFFCURVE",
"475 33 OFFCURVE",
"401 33 CURVE SMOOTH",
"208 33 OFFCURVE",
"112 145 OFFCURVE",
"112 353 CURVE SMOOTH",
"112 555 OFFCURVE",
"208 672 OFFCURVE",
"380 672 CURVE SMOOTH",
"470 672 OFFCURVE",
"537 646 OFFCURVE",
"602 583 CURVE",
"624 618 LINE",
"564 681 OFFCURVE",
"481 713 OFFCURVE",
"381 713 CURVE SMOOTH",
"183 713 OFFCURVE",
"67 576 OFFCURVE",
"67 353 CURVE SMOOTH",
"67 124 OFFCURVE",
"183 -8 OFFCURVE",
"402 -8 CURVE SMOOTH"
);
}
);
};
layerId = "F1F93986-3ED8-4AAE-84C4-CA3EEECDDFA0";
paths = (
{
closed = 1;
nodes = (
"482 -8 OFFCURVE",
"579 13 OFFCURVE",
"628 40 CURVE",
"628 355 LINE",
"394 355 LINE",
"394 316 LINE",
"588 316 LINE",
"588 35 LINE",
"600 73 LINE",
"543 47 OFFCURVE",
"475 33 OFFCURVE",
"401 33 CURVE SMOOTH",
"208 33 OFFCURVE",
"112 145 OFFCURVE",
"112 353 CURVE SMOOTH",
"112 555 OFFCURVE",
"208 672 OFFCURVE",
"380 672 CURVE SMOOTH",
"470 672 OFFCURVE",
"537 646 OFFCURVE",
"602 583 CURVE",
"624 618 LINE",
"564 681 OFFCURVE",
"481 713 OFFCURVE",
"381 713 CURVE SMOOTH",
"183 713 OFFCURVE",
"67 576 OFFCURVE",
"67 353 CURVE SMOOTH",
"67 124 OFFCURVE",
"183 -8 OFFCURVE",
"402 -8 CURVE SMOOTH"
);
}
);
width = 718;
},
{
anchors = (
{
name = bottom;
position = "{426, 0}";
},
{
name = top;
position = "{419, 705}";
}
);
background = {
anchors = (
{
name = bottom;
position = "{426, 0}";
},
{
name = top;
position = "{419, 705}";
}
);
paths = (
{
closed = 1;
nodes = (
"525 -12 OFFCURVE",
"621 7 OFFCURVE",
"701 44 CURVE",
"701 406 LINE",
"397 406 LINE",
"397 258 LINE",
"527 258 LINE",
"527 110 LINE",
"565 187 LINE",
"519 174 OFFCURVE",
"475 167 OFFCURVE",
"442 167 CURVE SMOOTH",
"326 167 OFFCURVE",
"264 228 OFFCURVE",
"264 348 CURVE SMOOTH",
"264 470 OFFCURVE",
"323 534 OFFCURVE",
"450 534 CURVE SMOOTH",
"516 534 OFFCURVE",
"575 519 OFFCURVE",
"636 484 CURVE",
"699 649 LINE",
"645 689 OFFCURVE",
"546 717 OFFCURVE",
"448 717 CURVE SMOOTH",
"192 717 OFFCURVE",
"41 572 OFFCURVE",
"41 348 CURVE SMOOTH",
"41 136 OFFCURVE",
"181 -12 OFFCURVE",
"429 -12 CURVE SMOOTH"
);
}
);
};
layerId = "4121B50C-FD42-45C5-8FBE-41E76D98F91E";
paths = (
{
closed = 1;
nodes = (
"525 -12 OFFCURVE",
"621 7 OFFCURVE",
"701 44 CURVE",
"701 406 LINE",
"397 406 LINE",
"397 258 LINE",
"527 258 LINE",
"527 110 LINE",
"565 187 LINE",
"519 174 OFFCURVE",
"475 167 OFFCURVE",
"442 167 CURVE SMOOTH",
"326 167 OFFCURVE",
"264 228 OFFCURVE",
"264 348 CURVE SMOOTH",
"264 470 OFFCURVE",
"323 534 OFFCURVE",
"450 534 CURVE SMOOTH",
"516 534 OFFCURVE",
"575 519 OFFCURVE",
"636 484 CURVE",
"699 649 LINE",
"645 689 OFFCURVE",
"546 717 OFFCURVE",
"448 717 CURVE SMOOTH",
"192 717 OFFCURVE",
"41 572 OFFCURVE",
"41 348 CURVE SMOOTH",
"41 136 OFFCURVE",
"181 -12 OFFCURVE",
"429 -12 CURVE SMOOTH"
);
}
);
width = 754;
}
);
leftKerningGroup = O;
leftMetricsKey = O;
rightKerningGroup = G;
unicode = 0047;
userData = {
anchors = (
);
b = {
};
com.typemytype.robofont.layerData = {
b = {
anchors = (
);
components = (
);
contours = (
{
points = (
{
segmentType = curve;
smooth = 1;
x = 783;
y = "-22";
},
{
smooth = 0;
x = 965;
y = "-22";
},
{
smooth = 0;
x = 1086;
y = 34;
},
{
segmentType = curve;
smooth = 1;
x = 1166;
y = 86;
},
{
smooth = 0;
x = 1270;
y = 154;
},
{
smooth = 0;
x = 1186;
y = 258;
},
{
segmentType = curve;
smooth = 1;
x = 1112;
y = 214;
},
{
smooth = 0;
x = 1024;
y = 162;
},
{
smooth = 0;
x = 939;
y = 120;
},
{
segmentType = curve;
smooth = 1;
x = 806;
y = 120;
},
{
smooth = 0;
x = 446;
y = 120;
},
{
smooth = 0;
x = 316;
y = 406;
},
{
segmentType = curve;
smooth = 1;
x = 316;
y = 706;
},
{
smooth = 0;
x = 316;
y = 1005;
},
{
smooth = 0;
x = 450;
y = 1296;
},
{
segmentType = curve;
smooth = 1;
x = 801;
y = 1296;
},
{
smooth = 0;
x = 980;
y = 1296;
},
{
smooth = 0;
x = 1053;
y = 1246;
},
{
segmentType = curve;
smooth = 1;
x = 1094;
y = 1225;
},
{
smooth = 0;
x = 1174;
y = 1184;
},
{
smooth = 0;
x = 1231;
y = 1300;
},
{
segmentType = curve;
smooth = 1;
x = 1156;
y = 1343;
},
{
smooth = 0;
x = 1106;
y = 1372;
},
{
smooth = 0;
x = 995;
y = 1438;
},
{
segmentType = curve;
smooth = 1;
x = 797;
y = 1438;
},
{
smooth = 0;
x = 359;
y = 1438;
},
{
smooth = 0;
x = 128;
y = 1093;
},
{
segmentType = curve;
smooth = 1;
x = 128;
y = 704;
},
{
smooth = 0;
x = 128;
y = 307;
},
{
smooth = 0;
x = 350;
y = "-22";
}
);
}
);
lib = {
};
name = G;
unicodes = (
);
width = 1448;
};
};
components = (
);
contours = (
);
lib = {
};
name = G;
unicodes = (
);
width = 1538;
};
},
{
glyphname = H;
lastChange = "2019-10-21 09:53:17 +0000";
layers = (
{
anchors = (
{
name = bottom;
position = "{376, 0}";
},
{
name = center;
position = "{376, 546}";
},
{
name = top;
position = "{375, 705}";
},
{
name = topleft;
position = "{27, 705}";
}
);
background = {
anchors = (
{
name = bottom;
position = "{376, 0}";
},
{
name = center;
position = "{376, 546}";
},
{
name = top;
position = "{375, 705}";
},
{
name = topleft;
position = "{27, 705}";
}
);
paths = (
{
closed = 1;
nodes = (
"613 377 LINE",
"138 377 LINE",
"138 705 LINE",
"96 705 LINE",
"96 0 LINE",
"138 0 LINE",
"138 338 LINE",
"613 338 LINE",
"613 0 LINE",
"655 0 LINE",
"655 705 LINE",
"613 705 LINE"
);
}
);
};
layerId = "F1F93986-3ED8-4AAE-84C4-CA3EEECDDFA0";
paths = (
{
closed = 1;
nodes = (
"138 0 LINE",
"138 338 LINE",
"613 338 LINE",
"613 0 LINE",
"655 0 LINE",
"655 705 LINE",
"613 705 LINE",
"613 377 LINE",
"138 377 LINE",
"138 705 LINE",
"96 705 LINE",
"96 0 LINE"
);
}
);
width = 751;
},
{
anchors = (
{
name = bottom;
position = "{397, 0}";
},
{
name = center;
position = "{397, 575}";
},
{
name = top;
position = "{397, 705}";
},
{
name = topleft;
position = "{18, 705}";
}
);
background = {
anchors = (
{
name = bottom;
position = "{397, 0}";
},
{
name = center;
position = "{397, 575}";
},
{
name = top;
position = "{397, 705}";
},
{
name = topleft;
position = "{18, 705}";
}
);
paths = (
{
closed = 1;
nodes = (
"522 445 LINE",
"272 445 LINE",
"272 705 LINE",
"57 705 LINE",
"57 0 LINE",
"272 0 LINE",
"272 269 LINE",
"522 269 LINE",
"522 0 LINE",
"737 0 LINE",
"737 705 LINE",
"522 705 LINE"
);
}
);
};
layerId = "4121B50C-FD42-45C5-8FBE-41E76D98F91E";
paths = (
{
closed = 1;
nodes = (
"272 0 LINE",
"272 269 LINE",
"522 269 LINE",
"522 0 LINE",
"737 0 LINE",
"737 705 LINE",
"522 705 LINE",
"522 445 LINE",
"272 445 LINE",
"272 705 LINE",
"57 705 LINE",
"57 0 LINE"
);
}
);
width = 794;
}
);
leftKerningGroup = H;
rightKerningGroup = H;
rightMetricsKey = "=|";
unicode = 0048;
userData = {
anchors = (
);
b = {
};
com.typemytype.robofont.layerData = {
b = {
anchors = (
);
components = (
);
contours = (
);
lib = {
};
name = H;
unicodes = (
);
width = 1464;
};
};
components = (
);
contours = (
);
lib = {
};
name = H;
unicodes = (
);
width = 1524;
};
},
{
glyphname = Hbar;
lastChange = "2019-10-21 09:53:17 +0000";
layers = (
{
background = {
paths = (
{
closed = 1;
nodes = (
"670 565 LINE",
"670 705 LINE",
"628 705 LINE",
"628 565 LINE",
"153 565 LINE",
"153 705 LINE",
"111 705 LINE",
"111 565 LINE",
"15 565 LINE",
"15 527 LINE",
"111 527 LINE",
"111 0 LINE",
"153 0 LINE",
"153 338 LINE",
"628 338 LINE",
"628 0 LINE",
"670 0 LINE",
"670 527 LINE",
"766 527 LINE",
"766 565 LINE"
);
},
{
closed = 1;
nodes = (
"153 377 LINE",
"153 527 LINE",
"628 527 LINE",
"628 377 LINE"
);
}
);
};
layerId = "F1F93986-3ED8-4AAE-84C4-CA3EEECDDFA0";
paths = (
{
closed = 1;
nodes = (
"153 0 LINE",
"153 338 LINE",
"628 338 LINE",
"628 0 LINE",
"670 0 LINE",
"670 527 LINE",
"766 527 LINE",
"766 565 LINE",
"670 565 LINE",
"670 705 LINE",
"628 705 LINE",
"628 565 LINE",
"153 565 LINE",
"153 705 LINE",
"111 705 LINE",
"111 565 LINE",
"15 565 LINE",
"15 527 LINE",
"111 527 LINE",
"111 0 LINE"
);
},
{
closed = 1;
nodes = (
"153 527 LINE",
"628 527 LINE",
"628 377 LINE",
"153 377 LINE"
);
}
);
width = 781;
},
{
background = {
paths = (
{
closed = 1;
nodes = (
"767 645 LINE",
"767 705 LINE",
"552 705 LINE",
"552 645 LINE",
"302 645 LINE",
"302 705 LINE",
"87 705 LINE",
"87 645 LINE",
"13 645 LINE",
"13 495 LINE",
"87 495 LINE",
"87 0 LINE",
"302 0 LINE",
"302 249 LINE",
"552 249 LINE",
"552 0 LINE",
"767 0 LINE",
"767 495 LINE",
"841 495 LINE",
"841 645 LINE"
);
},
{
closed = 1;
nodes = (
"302 425 LINE",
"302 495 LINE",
"552 495 LINE",
"552 425 LINE"
);
}
);
};
layerId = "4121B50C-FD42-45C5-8FBE-41E76D98F91E";
paths = (
{
closed = 1;
nodes = (
"302 0 LINE",
"302 249 LINE",
"552 249 LINE",
"552 0 LINE",
"767 0 LINE",
"767 495 LINE",
"841 495 LINE",
"841 645 LINE",
"767 645 LINE",
"767 705 LINE",
"552 705 LINE",
"552 645 LINE",
"302 645 LINE",
"302 705 LINE",
"87 705 LINE",
"87 645 LINE",
"13 645 LINE",
"13 495 LINE",
"87 495 LINE",
"87 0 LINE"
);
},
{
closed = 1;
nodes = (
"302 495 LINE",
"552 495 LINE",
"552 425 LINE",
"302 425 LINE"
);
}
);
width = 854;
}
);
leftKerningGroup = H;
rightKerningGroup = H;
unicode = 0126;
userData = {
com.typemytype.robofont.layerData = {
b = {
anchors = (
);
components = (
);
contours = (
);
lib = {
};
name = Hbar;
unicodes = (
);
width = 1464;
};
};
};
},
{
glyphname = I;
lastChange = "2019-10-21 09:53:17 +0000";
layers = (
{
anchors = (
{
name = bottom;
position = "{117, 0}";
},
{
name = ogonek;
position = "{138, 0}";
},
{
name = top;
position = "{117, 705}";
},
{
name = topleft;
position = "{28, 705}";
}
);
background = {
anchors = (
{
name = bottom;
position = "{117, 0}";
},
{
name = ogonek;
position = "{138, 0}";
},
{
name = top;
position = "{117, 705}";
},
{
name = topleft;
position = "{28, 705}";
}
);
paths = (
{
closed = 1;
nodes = (
"138 0 LINE",
"138 705 LINE",
"96 705 LINE",
"96 0 LINE"
);
}
);
};
layerId = "F1F93986-3ED8-4AAE-84C4-CA3EEECDDFA0";
paths = (
{
closed = 1;
nodes = (
"138 0 LINE",
"138 705 LINE",
"96 705 LINE",
"96 0 LINE"
);
}
);
width = 234;
},
{
anchors = (
{
name = bottom;
position = "{164, 0}";
},
{
name = ogonek;
position = "{217, 0}";
},
{
name = top;
position = "{164, 705}";
},
{
name = topleft;
position = "{18, 705}";
}
);
background = {
anchors = (
{
name = bottom;
position = "{164, 0}";
},
{
name = ogonek;
position = "{217, 0}";
},
{
name = top;
position = "{164, 705}";
},
{
name = topleft;
position = "{18, 705}";
}
);
paths = (
{
closed = 1;
nodes = (
"272 0 LINE",
"272 705 LINE",
"57 705 LINE",
"57 0 LINE"
);
}
);
};
layerId = "4121B50C-FD42-45C5-8FBE-41E76D98F91E";
paths = (
{
closed = 1;
nodes = (
"272 0 LINE",
"272 705 LINE",
"57 705 LINE",
"57 0 LINE"
);
}
);
width = 329;
}
);
leftKerningGroup = H;
leftMetricsKey = H;
rightKerningGroup = H;
rightMetricsKey = H;
unicode = 0049;
userData = {
anchors = (
);
b = {
};
com.typemytype.robofont.layerData = {
b = {
anchors = (
);
components = (
);
contours = (
);
lib = {
};
name = I;
unicodes = (
);
width = 592;
};
};
components = (
);
contours = (
);
lib = {
};
name = I;
unicodes = (
);
width = 637;
};
},
{
glyphname = J;
lastChange = "2019-10-21 09:53:17 +0000";
layers = (
{
anchors = (
{
name = bottom;
position = "{181, 0}";
},
{
name = top;
position = "{180, 705}";
}
);
background = {
anchors = (
{
name = bottom;
position = "{181, 0}";
},
{
name = top;
position = "{180, 705}";
}
);
paths = (
{
closed = 1;
nodes = (
"44 -2 LINE SMOOTH",
"145 5 OFFCURVE",
"201 70 OFFCURVE",
"201 177 CURVE SMOOTH",
"201 705 LINE",
"159 705 LINE",
"159 179 LINE SMOOTH",
"159 96 OFFCURVE",
"116 42 OFFCURVE",
"41 36 CURVE SMOOTH",
"-10 32 LINE",
"-6 -6 LINE"
);
}
);
};
layerId = "F1F93986-3ED8-4AAE-84C4-CA3EEECDDFA0";
paths = (
{
closed = 1;
nodes = (
"44 -2 LINE SMOOTH",
"145 5 OFFCURVE",
"201 70 OFFCURVE",
"201 177 CURVE SMOOTH",
"201 705 LINE",
"159 705 LINE",
"159 179 LINE SMOOTH",
"159 96 OFFCURVE",
"116 42 OFFCURVE",
"41 36 CURVE SMOOTH",
"-10 32 LINE",
"-6 -6 LINE"
);
}
);
width = 297;
},
{
anchors = (
{
name = bottom;
position = "{246, 0}";
},
{
name = top;
position = "{246, 705}";
}
);
background = {
anchors = (
{
name = bottom;
position = "{246, 0}";
},
{
name = top;
position = "{246, 705}";
}
);
paths = (
{
closed = 1;
nodes = (
"117 -7 LINE SMOOTH",
"277 2 OFFCURVE",
"354 76 OFFCURVE",
"354 221 CURVE SMOOTH",
"354 705 LINE",
"139 705 LINE",
"139 217 LINE SMOOTH",
"139 177 OFFCURVE",
"123 166 OFFCURVE",
"80 164 CURVE SMOOTH",
"-9 159 LINE",
"4 -12 LINE"
);
}
);
};
layerId = "4121B50C-FD42-45C5-8FBE-41E76D98F91E";
paths = (
{
closed = 1;
nodes = (
"117 -7 LINE SMOOTH",
"277 2 OFFCURVE",
"354 76 OFFCURVE",
"354 221 CURVE SMOOTH",
"354 705 LINE",
"139 705 LINE",
"139 217 LINE SMOOTH",
"139 177 OFFCURVE",
"123 166 OFFCURVE",
"80 164 CURVE SMOOTH",
"-9 159 LINE",
"4 -12 LINE"
);
}
);
width = 411;
}
);
leftKerningGroup = J;
rightKerningGroup = J;
rightMetricsKey = H;
unicode = 004A;
userData = {
anchors = (
);
b = {
};
com.typemytype.robofont.layerData = {
b = {
anchors = (
);
components = (
);
contours = (
);
lib = {
};
name = J;
unicodes = (
);
width = 1003;
};
};
components = (
);
contours = (
);
lib = {
};
name = J;
unicodes = (
);
width = 1126;
};
},
{
glyphname = K;
lastChange = "2019-10-21 09:53:17 +0000";
layers = (
{
anchors = (
{
name = bottom;
position = "{302, 0}";
},
{
name = top;
position = "{301, 705}";
},
{
name = topleft;
position = "{27, 705}";
}
);
background = {
anchors = (
{
name = bottom;
position = "{302, 0}";
},
{
name = top;
position = "{301, 705}";
},
{
name = topleft;
position = "{27, 705}";
}
);
paths = (
{
closed = 1;
nodes = (
"160 374 LINE",
"158 342 LINE",
"568 705 LINE",
"509 705 LINE",
"140 377 LINE",
"138 377 LINE",
"138 705 LINE",
"96 705 LINE",
"96 0 LINE",
"138 0 LINE",
"138 338 LINE",
"140 338 LINE",
"532 0 LINE",
"594 0 LINE"
);
}
);
};
layerId = "F1F93986-3ED8-4AAE-84C4-CA3EEECDDFA0";
paths = (
{
closed = 1;
nodes = (
"138 0 LINE",
"138 338 LINE",
"140 338 LINE",
"532 0 LINE",
"594 0 LINE",
"160 374 LINE",
"158 342 LINE",
"568 705 LINE",
"509 705 LINE",
"140 377 LINE",
"138 377 LINE",
"138 705 LINE",
"96 705 LINE",
"96 0 LINE"
);
}
);
width = 590;
},
{
anchors = (
{
name = bottom;
position = "{362, 0}";
},
{
name = top;
position = "{362, 705}";
},
{
name = topleft;
position = "{18, 705}";
}
);
background = {
anchors = (
{
name = bottom;
position = "{362, 0}";
},
{
name = top;
position = "{362, 705}";
},
{
name = topleft;
position = "{18, 705}";
}
);
paths = (
{
closed = 1;
nodes = (
"446 416 LINE",
"446 331 LINE",
"780 705 LINE",
"527 705 LINE",
"274 408 LINE",
"272 408 LINE",
"272 705 LINE",
"57 705 LINE",
"57 0 LINE",
"272 0 LINE",
"272 314 LINE",
"274 314 LINE",
"534 0 LINE",
"788 0 LINE"
);
}
);
};
layerId = "4121B50C-FD42-45C5-8FBE-41E76D98F91E";
paths = (
{
closed = 1;
nodes = (
"272 0 LINE",
"272 314 LINE",
"274 314 LINE",
"534 0 LINE",
"788 0 LINE",
"446 416 LINE",
"446 331 LINE",
"780 705 LINE",
"527 705 LINE",
"274 408 LINE",
"272 408 LINE",
"272 705 LINE",
"57 705 LINE",
"57 0 LINE"
);
}
);
width = 739;
}
);
leftKerningGroup = H;
leftMetricsKey = H;
rightKerningGroup = K;
unicode = 004B;
userData = {
anchors = (
);
b = {
};
com.typemytype.robofont.layerData = {
b = {
anchors = (
);
components = (
);
contours = (
);
lib = {
};
name = K;
unicodes = (
);
width = 1210;
};
};
components = (
);
contours = (
);
lib = {
};
name = K;
unicodes = (
);
width = 1329;
};
},
{
glyphname = L;
lastChange = "2019-10-21 09:53:17 +0000";
layers = (
{
anchors = (
{
name = bottom;
position = "{305, 0}";
},
{
name = center;
position = "{161, 387}";
},
{
name = dot;
position = "{384, 386}";
},
{
name = top;
position = "{117, 705}";
},
{
name = topright;
position = "{260, 705}";
}
);
background = {
anchors = (
{
name = bottom;
position = "{305, 0}";
},
{
name = center;
position = "{161, 387}";
},
{
name = dot;
position = "{384, 386}";
},
{
name = top;
position = "{117, 705}";
},
{
name = topright;
position = "{260, 705}";
}
);
paths = (
{
closed = 1;
nodes = (
"514 0 LINE",
"514 39 LINE",
"138 39 LINE",
"138 705 LINE",
"96 705 LINE",
"96 0 LINE"
);
}
);
};
layerId = "F1F93986-3ED8-4AAE-84C4-CA3EEECDDFA0";
paths = (
{
closed = 1;
nodes = (
"514 0 LINE",
"514 39 LINE",
"138 39 LINE",
"138 705 LINE",
"96 705 LINE",
"96 0 LINE"
);
}
);
width = 527;
},
{
anchors = (
{
name = bottom;
position = "{315, 0}";
},
{
name = center;
position = "{212, 387}";
},
{
name = dot;
position = "{465, 402}";
},
{
name = top;
position = "{164, 705}";
},
{
name = topright;
position = "{362, 705}";
}
);
background = {
anchors = (
{
name = bottom;
position = "{315, 0}";
},
{
name = center;
position = "{212, 387}";
},
{
name = dot;
position = "{465, 402}";
},
{
name = top;
position = "{164, 705}";
},
{
name = topright;
position = "{362, 705}";
}
);
paths = (
{
closed = 1;
nodes = (
"572 0 LINE",
"572 178 LINE",
"272 178 LINE",
"272 705 LINE",
"57 705 LINE",
"57 0 LINE"
);
}
);
};
layerId = "4121B50C-FD42-45C5-8FBE-41E76D98F91E";
paths = (
{
closed = 1;
nodes = (
"572 0 LINE",
"572 178 LINE",
"272 178 LINE",
"272 705 LINE",
"57 705 LINE",
"57 0 LINE"
);
}
);
width = 598;
}
);
leftKerningGroup = H;
leftMetricsKey = H;
rightKerningGroup = L;
unicode = 004C;
userData = {
anchors = (
);
b = {
};
com.typemytype.robofont.layerData = {
b = {
anchors = (
);
components = (
);
contours = (
{
points = (
{
segmentType = curve;
smooth = 1;
x = 266;
y = 0;
},
{
segmentType = line;
smooth = 1;
x = 1035;
y = 0;
},
{
smooth = 0;
x = 1084;
y = 0;
},
{
smooth = 0;
x = 1108;
y = 34;
},
{
segmentType = curve;
smooth = 1;
x = 1108;
y = 71;
},
{
smooth = 0;
x = 1108;
y = 107;
},
{
smooth = 0;
x = 1084;
y = 141;
},
{
segmentType = curve;
smooth = 1;
x = 1035;
y = 141;
},
{
segmentType = line;
smooth = 0;
x = 356;
y = 141;
},
{
segmentType = line;
smooth = 0;
x = 356;
y = 665;
},
{
segmentType = line;
smooth = 1;
x = 975;
y = 665;
},
{
smooth = 0;
x = 1024;
y = 665;
},
{
smooth = 0;
x = 1049;
y = 698;
},
{
segmentType = curve;
smooth = 1;
x = 1049;
y = 734;
},
{
smooth = 0;
x = 1049;
y = 770;
},
{
smooth = 0;
x = 1026;
y = 803;
},
{
segmentType = curve;
smooth = 1;
x = 975;
y = 803;
},
{
segmentType = line;
smooth = 0;
x = 356;
y = 803;
},
{
segmentType = line;
smooth = 0;
x = 356;
y = 1285;
},
{
segmentType = line;
smooth = 1;
x = 1007;
y = 1285;
},
{
smooth = 0;
x = 1056;
y = 1285;
},
{
smooth = 0;
x = 1080;
y = 1319;
},
{
segmentType = curve;
smooth = 1;
x = 1080;
y = 1356;
},
{
smooth = 0;
x = 1080;
y = 1392;
},
{
smooth = 0;
x = 1056;
y = 1426;
},
{
segmentType = curve;
smooth = 1;
x = 1007;
y = 1426;
},
{
segmentType = line;
smooth = 1;
x = 261;
y = 1426;
},
{
smooth = 0;
x = 213;
y = 1426;
},
{
smooth = 0;
x = 178;
y = 1383;
},
{
segmentType = curve;
smooth = 1;
x = 178;
y = 1340;
},
{
segmentType = line;
smooth = 1;
x = 178;
y = 86;
},
{
smooth = 0;
x = 178;
y = 41;
},
{
smooth = 0;
x = 222;
y = 0;
}
);
}
);
lib = {
};
name = L;
unicodes = (
);
width = 1095;
};
};
components = (
);
contours = (
);
lib = {
};
name = L;
unicodes = (
);
width = 1169;
};
},
{
glyphname = M;
lastChange = "2019-10-21 09:53:17 +0000";
layers = (
{
anchors = (
{
name = bottom;
position = "{422, 0}";
},
{
name = top;
position = "{422, 705}";
}
);
background = {
anchors = (
{
name = bottom;
position = "{422, 0}";
},
{
name = top;
position = "{422, 705}";
}
);
paths = (
{
closed = 1;
nodes = (
"137 0 LINE",
"137 666 LINE",
"112 666 LINE",
"406 110 LINE",
"441 110 LINE",
"731 665 LINE",
"707 665 LINE",
"707 0 LINE",
"746 0 LINE",
"746 705 LINE",
"710 705 LINE",
"409 127 LINE",
"437 127 LINE",
"134 705 LINE",
"98 705 LINE",
"98 0 LINE"
);
}
);
};
layerId = "F1F93986-3ED8-4AAE-84C4-CA3EEECDDFA0";
paths = (
{
closed = 1;
nodes = (
"137 0 LINE",
"137 666 LINE",
"112 666 LINE",
"406 110 LINE",
"441 110 LINE",
"731 665 LINE",
"707 665 LINE",
"707 0 LINE",
"746 0 LINE",
"746 705 LINE",
"710 705 LINE",
"409 127 LINE",
"437 127 LINE",
"134 705 LINE",
"98 705 LINE",
"98 0 LINE"
);
}
);
width = 844;
},
{
anchors = (
{
name = bottom;
position = "{447, 0}";
},
{
name = top;
position = "{447, 705}";
}
);
background = {
anchors = (
{
name = bottom;
position = "{447, 0}";
},
{
name = top;
position = "{447, 705}";
}
);
paths = (
{
closed = 1;
nodes = (
"253 0 LINE",
"253 365 LINE",
"230 365 LINE",
"388 103 LINE",
"502 103 LINE",
"660 365 LINE",
"640 365 LINE",
"640 0 LINE",
"834 0 LINE",
"834 705 LINE",
"660 705 LINE",
"431 301 LINE",
"467 301 LINE",
"238 705 LINE",
"59 705 LINE",
"59 0 LINE"
);
}
);
};
layerId = "4121B50C-FD42-45C5-8FBE-41E76D98F91E";
paths = (
{
closed = 1;
nodes = (
"253 0 LINE",
"253 365 LINE",
"230 365 LINE",
"388 103 LINE",
"502 103 LINE",
"660 365 LINE",
"640 365 LINE",
"640 0 LINE",
"834 0 LINE",
"834 705 LINE",
"660 705 LINE",
"431 301 LINE",
"467 301 LINE",
"238 705 LINE",
"59 705 LINE",
"59 0 LINE"
);
}
);
width = 893;
}
);
leftKerningGroup = H;
leftMetricsKey = "=I+2";
rightKerningGroup = H;
rightMetricsKey = "=I+2";
unicode = 004D;
userData = {
anchors = (
);
b = {
};
com.typemytype.robofont.layerData = {
b = {
anchors = (
);
components = (
);
contours = (
);
lib = {
};
name = M;
unicodes = (
);
width = 1899;
};
};
components = (
);
contours = (
);
lib = {
};
name = M;
unicodes = (
);
width = 1984;
};
},
{
glyphname = N;
lastChange = "2019-10-21 09:53:17 +0000";
layers = (
{
anchors = (
{
name = bottom;
position = "{366, 0}";
},
{
name = top;
position = "{366, 705}";
}
);
background = {
anchors = (
{
name = bottom;
position = "{366, 0}";
},
{
name = top;
position = "{366, 705}";
}
);
paths = (
{
closed = 1;
nodes = (
"135 0 LINE",
"135 663 LINE",
"114 663 LINE",
"602 0 LINE",
"636 0 LINE",
"636 705 LINE",
"597 705 LINE",
"597 42 LINE",
"619 42 LINE",
"131 705 LINE",
"96 705 LINE",
"96 0 LINE"
);
}
);
};
layerId = "F1F93986-3ED8-4AAE-84C4-CA3EEECDDFA0";
paths = (
{
closed = 1;
nodes = (
"135 0 LINE",
"135 663 LINE",
"114 663 LINE",
"602 0 LINE",
"636 0 LINE",
"636 705 LINE",
"597 705 LINE",
"597 42 LINE",
"619 42 LINE",
"131 705 LINE",
"96 705 LINE",
"96 0 LINE"
);
}
);
width = 732;
},
{
anchors = (
{
name = bottom;
position = "{382, 0}";
},
{
name = top;
position = "{381, 705}";
}
);
background = {
anchors = (
{
name = bottom;
position = "{382, 0}";
},
{
name = top;
position = "{381, 705}";
}
);
paths = (
{
closed = 1;
nodes = (
"257 0 LINE",
"257 390 LINE",
"227 390 LINE",
"549 0 LINE",
"706 0 LINE",
"706 705 LINE",
"506 705 LINE",
"506 315 LINE",
"536 315 LINE",
"214 705 LINE",
"57 705 LINE",
"57 0 LINE"
);
}
);
};
layerId = "4121B50C-FD42-45C5-8FBE-41E76D98F91E";
paths = (
{
closed = 1;
nodes = (
"257 0 LINE",
"257 390 LINE",
"227 390 LINE",
"549 0 LINE",
"706 0 LINE",
"706 705 LINE",
"506 705 LINE",
"506 315 LINE",
"536 315 LINE",
"214 705 LINE",
"57 705 LINE",
"57 0 LINE"
);
}
);
width = 763;
}
);
leftKerningGroup = H;
leftMetricsKey = H;
rightKerningGroup = H;
rightMetricsKey = H;
unicode = 004E;
userData = {
anchors = (
);
b = {
};
com.typemytype.robofont.layerData = {
b = {
anchors = (
);
components = (
);
contours = (
);
lib = {
};
name = N;
unicodes = (
);
width = 1499;
};
};
components = (
);
contours = (
);
lib = {
};
name = N;
unicodes = (
);
width = 1557;
};
},
{
glyphname = Eng;
lastChange = "2019-10-21 09:53:17 +0000";
layers = (
{
anchors = (
{
name = bottom;
position = "{366, 0}";
},
{
name = top;
position = "{366, 705}";
}
);
background = {
anchors = (
{
name = bottom;
position = "{366, 0}";
},
{
name = top;
position = "{366, 705}";
}
);
paths = (
{
closed = 1;
nodes = (
"636 705 LINE",
"597 705 LINE",
"597 42 LINE",
"619 42 LINE",
"131 705 LINE",
"96 705 LINE",
"96 0 LINE",
"135 0 LINE",
"135 663 LINE",
"114 663 LINE",
"602 0 LINE",
"597 25 LINE",
"597 -22 LINE SMOOTH",
"597 -102 OFFCURVE",
"559 -147 OFFCURVE",
"489 -152 CURVE SMOOTH",
"448 -155 LINE",
"451 -193 LINE",
"494 -190 LINE SMOOTH",
"584 -184 OFFCURVE",
"636 -124 OFFCURVE",
"636 -21 CURVE SMOOTH"
);
}
);
};
layerId = "F1F93986-3ED8-4AAE-84C4-CA3EEECDDFA0";
paths = (
{
closed = 1;
nodes = (
"494 -190 LINE SMOOTH",
"584 -184 OFFCURVE",
"636 -124 OFFCURVE",
"636 -21 CURVE SMOOTH",
"636 705 LINE",
"597 705 LINE",
"597 42 LINE",
"619 42 LINE",
"131 705 LINE",
"96 705 LINE",
"96 0 LINE",
"135 0 LINE",
"135 663 LINE",
"114 663 LINE",
"602 0 LINE",
"597 25 LINE",
"597 -22 LINE SMOOTH",
"597 -102 OFFCURVE",
"559 -147 OFFCURVE",
"489 -152 CURVE SMOOTH",
"448 -155 LINE",
"451 -193 LINE"
);
}
);
width = 732;
},
{
anchors = (
{
name = bottom;
position = "{382, 0}";
},
{
name = top;
position = "{381, 705}";
}
);
background = {
anchors = (
{
name = bottom;
position = "{382, 0}";
},
{
name = top;
position = "{381, 705}";
}
);
paths = (
{
closed = 1;
nodes = (
"706 705 LINE",
"506 705 LINE",
"506 315 LINE",
"536 315 LINE",
"214 705 LINE",
"57 705 LINE",
"57 0 LINE",
"257 0 LINE",
"257 390 LINE",
"227 390 LINE",
"549 0 LINE",
"507 76 LINE",
"507 8 LINE SMOOTH",
"507 -24 OFFCURVE",
"490 -38 OFFCURVE",
"454 -42 CURVE SMOOTH",
"399 -48 LINE",
"413 -193 LINE",
"457 -190 LINE SMOOTH",
"647 -177 OFFCURVE",
"706 -120 OFFCURVE",
"706 39 CURVE SMOOTH"
);
}
);
};
layerId = "4121B50C-FD42-45C5-8FBE-41E76D98F91E";
paths = (
{
closed = 1;
nodes = (
"457 -190 LINE SMOOTH",
"647 -177 OFFCURVE",
"706 -120 OFFCURVE",
"706 39 CURVE SMOOTH",
"706 705 LINE",
"506 705 LINE",
"506 315 LINE",
"536 315 LINE",
"214 705 LINE",
"57 705 LINE",
"57 0 LINE",
"257 0 LINE",
"257 390 LINE",
"227 390 LINE",
"549 0 LINE",
"507 76 LINE",
"507 8 LINE SMOOTH",
"507 -24 OFFCURVE",
"490 -38 OFFCURVE",
"454 -42 CURVE SMOOTH",
"399 -48 LINE",
"413 -193 LINE"
);
}
);
width = 763;
}
);
leftKerningGroup = H;
leftMetricsKey = N;
widthMetricsKey = N;
rightKerningGroup = H;
unicode = 014A;
userData = {
com.typemytype.robofont.layerData = {
b = {
anchors = (
);
components = (
);
contours = (
);
lib = {
};
name = Eng;
unicodes = (
);
width = 1495;
};
};
};
},
{
glyphname = O;
lastChange = "2019-10-21 09:53:17 +0000";
layers = (
{
anchors = (
{
name = Qtail;
position = "{375, -8}";
},
{
name = bottom;
position = "{375, 0}";
},
{
name = center;
position = "{376, 353}";
},
{
name = ogonek;
position = "{430, 0}";
},
{
name = top;
position = "{375, 705}";
},
{
name = topleft;
position = "{26, 705}";
},
{
name = topright;
position = "{448, 705}";
}
);
background = {
anchors = (
{
name = Qtail;
position = "{375, -8}";
},
{
name = bottom;
position = "{375, 0}";
},
{
name = center;
position = "{376, 353}";
},
{
name = ogonek;
position = "{430, 0}";
},
{
name = top;
position = "{375, 705}";
},
{
name = topleft;
position = "{26, 705}";
},
{
name = topright;
position = "{448, 705}";
}
);
paths = (
{
closed = 1;
nodes = (
"566 -8 OFFCURVE",
"684 130 OFFCURVE",
"684 354 CURVE SMOOTH",
"684 576 OFFCURVE",
"567 713 OFFCURVE",
"375 713 CURVE SMOOTH",
"183 713 OFFCURVE",
"67 576 OFFCURVE",
"67 353 CURVE SMOOTH",
"67 130 OFFCURVE",
"185 -8 OFFCURVE",
"375 -8 CURVE SMOOTH"
);
},
{
closed = 1;
nodes = (
"208 33 OFFCURVE",
"112 151 OFFCURVE",
"112 353 CURVE SMOOTH",
"112 555 OFFCURVE",
"208 672 OFFCURVE",
"375 672 CURVE SMOOTH",
"544 672 OFFCURVE",
"639 556 OFFCURVE",
"639 353 CURVE SMOOTH",
"639 150 OFFCURVE",
"543 33 OFFCURVE",
"375 33 CURVE SMOOTH"
);
}
);
};
layerId = "F1F93986-3ED8-4AAE-84C4-CA3EEECDDFA0";
paths = (
{
closed = 1;
nodes = (
"566 -8 OFFCURVE",
"684 130 OFFCURVE",
"684 354 CURVE SMOOTH",
"684 576 OFFCURVE",
"567 713 OFFCURVE",
"375 713 CURVE SMOOTH",
"183 713 OFFCURVE",
"67 576 OFFCURVE",
"67 353 CURVE SMOOTH",
"67 130 OFFCURVE",
"185 -8 OFFCURVE",
"375 -8 CURVE SMOOTH"
);
},
{
closed = 1;
nodes = (
"208 33 OFFCURVE",
"112 151 OFFCURVE",
"112 353 CURVE SMOOTH",
"112 555 OFFCURVE",
"208 672 OFFCURVE",
"375 672 CURVE SMOOTH",
"544 672 OFFCURVE",
"639 556 OFFCURVE",
"639 353 CURVE SMOOTH",
"639 150 OFFCURVE",
"543 33 OFFCURVE",
"375 33 CURVE SMOOTH"
);
}
);
width = 751;
},
{
anchors = (
{
name = Qtail;
position = "{409, -12}";
},
{
name = bottom;
position = "{409, 0}";
},
{
name = center;
position = "{409, 353}";
},
{
name = ogonek;
position = "{473, 0}";
},
{
name = top;
position = "{408, 705}";
},
{
name = topleft;
position = "{26, 705}";
},
{
name = topright;
position = "{473, 705}";
}
);
background = {
anchors = (
{
name = Qtail;
position = "{409, -12}";
},
{
name = bottom;
position = "{409, 0}";
},
{
name = center;
position = "{409, 353}";
},
{
name = ogonek;
position = "{473, 0}";
},
{
name = top;
position = "{408, 705}";
},
{
name = topleft;
position = "{26, 705}";
},
{
name = topright;
position = "{473, 705}";
}
);
paths = (
{
closed = 1;
nodes = (
"629 -12 OFFCURVE",
"779 135 OFFCURVE",
"779 353 CURVE SMOOTH",
"779 571 OFFCURVE",
"629 717 OFFCURVE",
"410 717 CURVE SMOOTH",
"191 717 OFFCURVE",
"41 571 OFFCURVE",
"41 353 CURVE SMOOTH",
"41 136 OFFCURVE",
"191 -12 OFFCURVE",
"410 -12 CURVE SMOOTH"
);
},
{
closed = 1;
nodes = (
"319 167 OFFCURVE",
"264 236 OFFCURVE",
"264 353 CURVE SMOOTH",
"264 470 OFFCURVE",
"319 538 OFFCURVE",
"410 538 CURVE SMOOTH",
"501 538 OFFCURVE",
"556 469 OFFCURVE",
"556 353 CURVE SMOOTH",
"556 237 OFFCURVE",
"501 167 OFFCURVE",
"410 167 CURVE SMOOTH"
);
}
);
};
layerId = "4121B50C-FD42-45C5-8FBE-41E76D98F91E";
paths = (
{
closed = 1;
nodes = (
"629 -12 OFFCURVE",
"779 135 OFFCURVE",
"779 353 CURVE SMOOTH",
"779 571 OFFCURVE",
"629 717 OFFCURVE",
"410 717 CURVE SMOOTH",
"191 717 OFFCURVE",
"41 571 OFFCURVE",
"41 353 CURVE SMOOTH",
"41 136 OFFCURVE",
"191 -12 OFFCURVE",
"410 -12 CURVE SMOOTH"
);
},
{
closed = 1;
nodes = (
"319 167 OFFCURVE",
"264 236 OFFCURVE",
"264 353 CURVE SMOOTH",
"264 470 OFFCURVE",
"319 538 OFFCURVE",
"410 538 CURVE SMOOTH",
"501 538 OFFCURVE",
"556 469 OFFCURVE",
"556 353 CURVE SMOOTH",
"556 237 OFFCURVE",
"501 167 OFFCURVE",
"410 167 CURVE SMOOTH"
);
}
);
width = 820;
}
);
leftKerningGroup = O;
rightKerningGroup = O;
rightMetricsKey = "=|";
unicode = 004F;
userData = {
anchors = (
);
b = {
};
com.typemytype.robofont.guides = (
);
com.typemytype.robofont.layerData = {
b = {
anchors = (
);
components = (
);
contours = (
);
lib = {
};
name = O;
unicodes = (
);
width = 1597;
};
};
components = (
);
contours = (
);
lib = {
};
name = O;
unicodes = (
);
width = 1604;
};
},
{
glyphname = OE;
lastChange = "2019-10-21 09:53:17 +0000";
layers = (
{
anchors = (
{
name = bottom;
position = "{585, 0}";
},
{
name = top;
position = "{585, 705}";
}
);
background = {
anchors = (
{
name = bottom;
position = "{585, 0}";
},
{
name = top;
position = "{585, 705}";
}
);
paths = (
{
closed = 1;
nodes = (
"988 705 LINE",
"412 705 LINE SMOOTH",
"191 705 OFFCURVE",
"67 583 OFFCURVE",
"67 353 CURVE SMOOTH",
"67 123 OFFCURVE",
"191 0 OFFCURVE",
"412 0 CURVE SMOOTH",
"988 0 LINE",
"988 39 LINE",
"606 39 LINE",
"606 338 LINE",
"968 338 LINE",
"968 377 LINE",
"606 377 LINE",
"606 666 LINE",
"988 666 LINE"
);
},
{
closed = 1;
nodes = (
"416 39 LINE SMOOTH",
"213 39 OFFCURVE",
"112 145 OFFCURVE",
"112 353 CURVE SMOOTH",
"112 561 OFFCURVE",
"213 666 OFFCURVE",
"416 666 CURVE SMOOTH",
"564 666 LINE",
"564 39 LINE"
);
}
);
};
layerId = "F1F93986-3ED8-4AAE-84C4-CA3EEECDDFA0";
paths = (
{
closed = 1;
nodes = (
"988 0 LINE",
"988 39 LINE",
"606 39 LINE",
"606 338 LINE",
"968 338 LINE",
"968 377 LINE",
"606 377 LINE",
"606 666 LINE",
"988 666 LINE",
"988 705 LINE",
"412 705 LINE SMOOTH",
"191 705 OFFCURVE",
"67 583 OFFCURVE",
"67 353 CURVE SMOOTH",
"67 123 OFFCURVE",
"191 0 OFFCURVE",
"412 0 CURVE SMOOTH"
);
},
{
closed = 1;
nodes = (
"213 39 OFFCURVE",
"112 145 OFFCURVE",
"112 353 CURVE SMOOTH",
"112 561 OFFCURVE",
"213 666 OFFCURVE",
"416 666 CURVE SMOOTH",
"564 666 LINE",
"564 39 LINE",
"416 39 LINE SMOOTH"
);
}
);
width = 1038;
},
{
anchors = (
{
name = bottom;
position = "{610, 0}";
},
{
name = top;
position = "{610, 705}";
}
);
background = {
anchors = (
{
name = bottom;
position = "{610, 0}";
},
{
name = top;
position = "{610, 705}";
}
);
paths = (
{
closed = 1;
nodes = (
"1021 705 LINE",
"435 705 LINE SMOOTH",
"185 705 OFFCURVE",
"41 575 OFFCURVE",
"41 353 CURVE SMOOTH",
"41 130 OFFCURVE",
"185 0 OFFCURVE",
"435 0 CURVE SMOOTH",
"1021 0 LINE",
"1021 164 LINE",
"712 164 LINE",
"712 276 LINE",
"998 276 LINE",
"998 440 LINE",
"712 440 LINE",
"712 541 LINE",
"1021 541 LINE"
);
},
{
closed = 1;
nodes = (
"447 174 LINE SMOOTH",
"323 174 OFFCURVE",
"264 231 OFFCURVE",
"264 353 CURVE SMOOTH",
"264 475 OFFCURVE",
"324 531 OFFCURVE",
"447 531 CURVE SMOOTH",
"507 531 LINE",
"507 174 LINE"
);
}
);
};
layerId = "4121B50C-FD42-45C5-8FBE-41E76D98F91E";
paths = (
{
closed = 1;
nodes = (
"1021 0 LINE",
"1021 164 LINE",
"712 164 LINE",
"712 276 LINE",
"998 276 LINE",
"998 440 LINE",
"712 440 LINE",
"712 541 LINE",
"1021 541 LINE",
"1021 705 LINE",
"435 705 LINE SMOOTH",
"185 705 OFFCURVE",
"41 575 OFFCURVE",
"41 353 CURVE SMOOTH",
"41 130 OFFCURVE",
"185 0 OFFCURVE",
"435 0 CURVE SMOOTH"
);
},
{
closed = 1;
nodes = (
"323 174 OFFCURVE",
"264 231 OFFCURVE",
"264 353 CURVE SMOOTH",
"264 475 OFFCURVE",
"324 531 OFFCURVE",
"447 531 CURVE SMOOTH",
"507 531 LINE",
"507 174 LINE",
"447 174 LINE SMOOTH"
);
}
);
width = 1074;
}
);
leftKerningGroup = O;
leftMetricsKey = O;
rightKerningGroup = E;
rightMetricsKey = E;
unicode = 0152;
},
{
glyphname = P;
lastChange = "2019-10-21 09:53:17 +0000";
layers = (
{
anchors = (
{
name = bottom;
position = "{316, 0}";
},
{
name = top;
position = "{316, 705}";
}
);
background = {
anchors = (
{
name = bottom;
position = "{316, 0}";
},
{
name = top;
position = "{316, 705}";
}
);
paths = (
{
closed = 1;
nodes = (
"96 705 LINE",
"96 0 LINE",
"138 0 LINE",
"138 297 LINE",
"351 297 LINE SMOOTH",
"499 297 OFFCURVE",
"580 370 OFFCURVE",
"580 501 CURVE SMOOTH",
"580 632 OFFCURVE",
"499 705 OFFCURVE",
"351 705 CURVE SMOOTH"
);
},
{
closed = 1;
nodes = (
"138 336 LINE",
"138 666 LINE",
"350 666 LINE SMOOTH",
"474 666 OFFCURVE",
"536 609 OFFCURVE",
"536 501 CURVE SMOOTH",
"536 393 OFFCURVE",
"474 336 OFFCURVE",
"350 336 CURVE SMOOTH"
);
}
);
};
layerId = "F1F93986-3ED8-4AAE-84C4-CA3EEECDDFA0";
paths = (
{
closed = 1;
nodes = (
"138 0 LINE",
"138 297 LINE",
"351 297 LINE SMOOTH",
"499 297 OFFCURVE",
"580 370 OFFCURVE",
"580 501 CURVE SMOOTH",
"580 632 OFFCURVE",
"499 705 OFFCURVE",
"351 705 CURVE SMOOTH",
"96 705 LINE",
"96 0 LINE"
);
},
{
closed = 1;
nodes = (
"138 666 LINE",
"350 666 LINE SMOOTH",
"474 666 OFFCURVE",
"536 609 OFFCURVE",
"536 501 CURVE SMOOTH",
"536 393 OFFCURVE",
"474 336 OFFCURVE",
"350 336 CURVE SMOOTH",
"138 336 LINE"
);
}
);
width = 616;
},
{
anchors = (
{
name = bottom;
position = "{348, 0}";
},
{
name = top;
position = "{347, 705}";
}
);
background = {
anchors = (
{
name = bottom;
position = "{348, 0}";
},
{
name = top;
position = "{347, 705}";
}
);
paths = (
{
closed = 1;
nodes = (
"57 705 LINE",
"57 0 LINE",
"272 0 LINE",
"272 231 LINE",
"415 231 LINE SMOOTH",
"577 231 OFFCURVE",
"670 321 OFFCURVE",
"670 468 CURVE SMOOTH",
"670 615 OFFCURVE",
"577 705 OFFCURVE",
"415 705 CURVE SMOOTH"
);
},
{
closed = 1;
nodes = (
"272 395 LINE",
"272 541 LINE",
"375 541 LINE SMOOTH",
"433 541 OFFCURVE",
"466 518 OFFCURVE",
"466 468 CURVE SMOOTH",
"466 418 OFFCURVE",
"433 395 OFFCURVE",
"375 395 CURVE SMOOTH"
);
}
);
};
layerId = "4121B50C-FD42-45C5-8FBE-41E76D98F91E";
paths = (
{
closed = 1;
nodes = (
"272 0 LINE",
"272 231 LINE",
"415 231 LINE SMOOTH",
"577 231 OFFCURVE",
"670 321 OFFCURVE",
"670 468 CURVE SMOOTH",
"670 615 OFFCURVE",
"577 705 OFFCURVE",
"415 705 CURVE SMOOTH",
"57 705 LINE",
"57 0 LINE"
);
},
{
closed = 1;
nodes = (
"272 541 LINE",
"375 541 LINE SMOOTH",
"433 541 OFFCURVE",
"466 518 OFFCURVE",
"466 468 CURVE SMOOTH",
"466 418 OFFCURVE",
"433 395 OFFCURVE",
"375 395 CURVE SMOOTH",
"272 395 LINE"
);
}
);
width = 689;
}
);
leftKerningGroup = H;
leftMetricsKey = H;
rightKerningGroup = P;
unicode = 0050;
userData = {
anchors = (
);
b = {
};
com.typemytype.robofont.layerData = {
b = {
anchors = (
);
components = (
);
contours = (
{
points = (
{
segmentType = curve;
smooth = 1;
x = 266;
y = 0;
},
{
segmentType = line;
smooth = 1;
x = 1035;
y = 0;
},
{
smooth = 0;
x = 1084;
y = 0;
},
{
smooth = 0;
x = 1108;
y = 34;
},
{
segmentType = curve;
smooth = 1;
x = 1108;
y = 71;
},
{
smooth = 0;
x = 1108;
y = 107;
},
{
smooth = 0;
x = 1084;
y = 141;
},
{
segmentType = curve;
smooth = 1;
x = 1035;
y = 141;
},
{
segmentType = line;
smooth = 0;
x = 356;
y = 141;
},
{
segmentType = line;
smooth = 0;
x = 356;
y = 665;
},
{
segmentType = line;
smooth = 1;
x = 975;
y = 665;
},
{
smooth = 0;
x = 1024;
y = 665;
},
{
smooth = 0;
x = 1049;
y = 698;
},
{
segmentType = curve;
smooth = 1;
x = 1049;
y = 734;
},
{
smooth = 0;
x = 1049;
y = 770;
},
{
smooth = 0;
x = 1026;
y = 803;
},
{
segmentType = curve;
smooth = 1;
x = 975;
y = 803;
},
{
segmentType = line;
smooth = 0;
x = 356;
y = 803;
},
{
segmentType = line;
smooth = 0;
x = 356;
y = 1285;
},
{
segmentType = line;
smooth = 1;
x = 1007;
y = 1285;
},
{
smooth = 0;
x = 1056;
y = 1285;
},
{
smooth = 0;
x = 1080;
y = 1319;
},
{
segmentType = curve;
smooth = 1;
x = 1080;
y = 1356;
},
{
smooth = 0;
x = 1080;
y = 1392;
},
{
smooth = 0;
x = 1056;
y = 1426;
},
{
segmentType = curve;
smooth = 1;
x = 1007;
y = 1426;
},
{
segmentType = line;
smooth = 1;
x = 261;
y = 1426;
},
{
smooth = 0;
x = 213;
y = 1426;
},
{
smooth = 0;
x = 178;
y = 1383;
},
{
segmentType = curve;
smooth = 1;
x = 178;
y = 1340;
},
{
segmentType = line;
smooth = 1;
x = 178;
y = 86;
},
{
smooth = 0;
x = 178;
y = 41;
},
{
smooth = 0;
x = 222;
y = 0;
}
);
}
);
lib = {
};
name = P;
unicodes = (
);
width = 1201;
};
};
components = (
);
contours = (
);
lib = {
};
name = P;
unicodes = (
);
width = 1319;
};
},
{
glyphname = Thorn;
lastChange = "2019-10-21 09:53:17 +0000";
layers = (
{
anchors = (
{
name = bottom;
position = "{316, 0}";
},
{
name = top;
position = "{316, 705}";
}
);
background = {
anchors = (
{
name = bottom;
position = "{316, 0}";
},
{
name = top;
position = "{316, 705}";
}
);
paths = (
{
closed = 1;
nodes = (
"138 569 LINE",
"138 705 LINE",
"96 705 LINE",
"96 0 LINE",
"138 0 LINE",
"138 161 LINE",
"351 161 LINE SMOOTH",
"499 161 OFFCURVE",
"580 234 OFFCURVE",
"580 365 CURVE SMOOTH",
"580 496 OFFCURVE",
"499 569 OFFCURVE",
"351 569 CURVE SMOOTH"
);
},
{
closed = 1;
nodes = (
"138 200 LINE",
"138 530 LINE",
"350 530 LINE SMOOTH",
"474 530 OFFCURVE",
"536 473 OFFCURVE",
"536 365 CURVE SMOOTH",
"536 257 OFFCURVE",
"474 200 OFFCURVE",
"350 200 CURVE SMOOTH"
);
}
);
};
layerId = "F1F93986-3ED8-4AAE-84C4-CA3EEECDDFA0";
paths = (
{
closed = 1;
nodes = (
"138 0 LINE",
"138 161 LINE",
"351 161 LINE SMOOTH",
"499 161 OFFCURVE",
"580 234 OFFCURVE",
"580 365 CURVE SMOOTH",
"580 496 OFFCURVE",
"499 569 OFFCURVE",
"351 569 CURVE SMOOTH",
"138 569 LINE",
"138 705 LINE",
"96 705 LINE",
"96 0 LINE"
);
},
{
closed = 1;
nodes = (
"138 530 LINE",
"350 530 LINE SMOOTH",
"474 530 OFFCURVE",
"536 473 OFFCURVE",
"536 365 CURVE SMOOTH",
"536 257 OFFCURVE",
"474 200 OFFCURVE",
"350 200 CURVE SMOOTH",
"138 200 LINE"
);
}
);
width = 616;
},
{
anchors = (
{
name = bottom;
position = "{352, 0}";
},
{
name = top;
position = "{351, 705}";
}
);
background = {
anchors = (
{
name = bottom;
position = "{352, 0}";
},
{
name = top;
position = "{351, 705}";
}
);
paths = (
{
closed = 1;
nodes = (
"272 605 LINE",
"272 705 LINE",
"57 705 LINE",
"57 0 LINE",
"272 0 LINE",
"272 131 LINE",
"419 131 LINE SMOOTH",
"581 131 OFFCURVE",
"674 221 OFFCURVE",
"674 368 CURVE SMOOTH",
"674 515 OFFCURVE",
"581 605 OFFCURVE",
"419 605 CURVE SMOOTH"
);
},
{
closed = 1;
nodes = (
"272 295 LINE",
"272 441 LINE",
"379 441 LINE SMOOTH",
"437 441 OFFCURVE",
"470 418 OFFCURVE",
"470 368 CURVE SMOOTH",
"470 318 OFFCURVE",
"437 295 OFFCURVE",
"379 295 CURVE SMOOTH"
);
}
);
};
layerId = "4121B50C-FD42-45C5-8FBE-41E76D98F91E";
paths = (
{
closed = 1;
nodes = (
"272 0 LINE",
"272 131 LINE",
"419 131 LINE SMOOTH",
"581 131 OFFCURVE",
"674 221 OFFCURVE",
"674 368 CURVE SMOOTH",
"674 515 OFFCURVE",
"581 605 OFFCURVE",
"419 605 CURVE SMOOTH",
"272 605 LINE",
"272 705 LINE",
"57 705 LINE",
"57 0 LINE"
);
},
{
closed = 1;
nodes = (
"272 441 LINE",
"379 441 LINE SMOOTH",
"437 441 OFFCURVE",
"470 418 OFFCURVE",
"470 368 CURVE SMOOTH",
"470 318 OFFCURVE",
"437 295 OFFCURVE",
"379 295 CURVE SMOOTH",
"272 295 LINE"
);
}
);
width = 693;
}
);
leftKerningGroup = H;
leftMetricsKey = H;
rightKerningGroup = THORN;
unicode = 00DE;
},
{
glyphname = R;
lastChange = "2019-10-21 09:53:17 +0000";
layers = (
{
anchors = (
{
name = bottom;
position = "{334, 0}";
},
{
name = top;
position = "{334, 705}";
}
);
background = {
anchors = (
{
name = bottom;
position = "{334, 0}";
},
{
name = top;
position = "{334, 705}";
}
);
paths = (
{
closed = 1;
nodes = (
"138 0 LINE",
"138 312 LINE",
"295 312 LINE SMOOTH",
"373 312 OFFCURVE",
"413 295 OFFCURVE",
"450 226 CURVE SMOOTH",
"572 0 LINE",
"618 0 LINE",
"487 242 LINE SMOOTH",
"455 302 OFFCURVE",
"421 327 OFFCURVE",
"370 327 CURVE SMOOTH",
"362 327 LINE",
"351 315 LINE",
"495 315 OFFCURVE",
"580 385 OFFCURVE",
"580 508 CURVE SMOOTH",
"580 635 OFFCURVE",
"499 705 OFFCURVE",
"351 705 CURVE SMOOTH",
"96 705 LINE",
"96 0 LINE"
);
},
{
closed = 1;
nodes = (
"138 666 LINE",
"347 666 LINE SMOOTH",
"473 666 OFFCURVE",
"536 612 OFFCURVE",
"536 509 CURVE SMOOTH",
"536 405 OFFCURVE",
"473 351 OFFCURVE",
"347 351 CURVE SMOOTH",
"138 351 LINE"
);
}
);
};
layerId = "F1F93986-3ED8-4AAE-84C4-CA3EEECDDFA0";
paths = (
{
closed = 1;
nodes = (
"138 0 LINE",
"138 312 LINE",
"295 312 LINE SMOOTH",
"373 312 OFFCURVE",
"413 295 OFFCURVE",
"450 226 CURVE SMOOTH",
"572 0 LINE",
"618 0 LINE",
"487 242 LINE SMOOTH",
"455 302 OFFCURVE",
"421 327 OFFCURVE",
"370 327 CURVE SMOOTH",
"362 327 LINE",
"351 315 LINE",
"495 315 OFFCURVE",
"580 385 OFFCURVE",
"580 508 CURVE SMOOTH",
"580 635 OFFCURVE",
"499 705 OFFCURVE",
"351 705 CURVE SMOOTH",
"96 705 LINE",
"96 0 LINE"
);
},
{
closed = 1;
nodes = (
"138 666 LINE",
"347 666 LINE SMOOTH",
"473 666 OFFCURVE",
"536 612 OFFCURVE",
"536 509 CURVE SMOOTH",
"536 405 OFFCURVE",
"473 351 OFFCURVE",
"347 351 CURVE SMOOTH",
"138 351 LINE"
);
}
);
width = 654;
},
{
anchors = (
{
name = bottom;
position = "{363, 0}";
},
{
name = top;
position = "{362, 705}";
}
);
background = {
anchors = (
{
name = bottom;
position = "{363, 0}";
},
{
name = top;
position = "{362, 705}";
}
);
paths = (
{
closed = 1;
nodes = (
"272 0 LINE",
"272 252 LINE",
"305 252 LINE SMOOTH",
"326 252 OFFCURVE",
"348 243 OFFCURVE",
"359 224 CURVE SMOOTH",
"482 0 LINE",
"718 0 LINE",
"613 191 LINE SMOOTH",
"583 245 OFFCURVE",
"537 273 OFFCURVE",
"479 273 CURVE SMOOTH",
"422 273 LINE",
"415 254 LINE",
"578 254 OFFCURVE",
"670 340 OFFCURVE",
"670 479 CURVE SMOOTH",
"670 619 OFFCURVE",
"577 705 OFFCURVE",
"415 705 CURVE SMOOTH",
"57 705 LINE",
"57 0 LINE"
);
},
{
closed = 1;
nodes = (
"272 541 LINE",
"375 541 LINE SMOOTH",
"433 541 OFFCURVE",
"466 519 OFFCURVE",
"466 472 CURVE SMOOTH",
"466 424 OFFCURVE",
"433 402 OFFCURVE",
"375 402 CURVE SMOOTH",
"272 402 LINE"
);
}
);
};
layerId = "4121B50C-FD42-45C5-8FBE-41E76D98F91E";
paths = (
{
closed = 1;
nodes = (
"272 0 LINE",
"272 252 LINE",
"305 252 LINE SMOOTH",
"326 252 OFFCURVE",
"348 243 OFFCURVE",
"359 224 CURVE SMOOTH",
"482 0 LINE",
"718 0 LINE",
"613 191 LINE SMOOTH",
"583 245 OFFCURVE",
"537 273 OFFCURVE",
"479 273 CURVE SMOOTH",
"422 273 LINE",
"415 254 LINE",
"578 254 OFFCURVE",
"670 340 OFFCURVE",
"670 479 CURVE SMOOTH",
"670 619 OFFCURVE",
"577 705 OFFCURVE",
"415 705 CURVE SMOOTH",
"57 705 LINE",
"57 0 LINE"
);
},
{
closed = 1;
nodes = (
"272 541 LINE",
"375 541 LINE SMOOTH",
"433 541 OFFCURVE",
"466 519 OFFCURVE",
"466 472 CURVE SMOOTH",
"466 424 OFFCURVE",
"433 402 OFFCURVE",
"375 402 CURVE SMOOTH",
"272 402 LINE"
);
}
);
width = 718;
}
);
leftKerningGroup = H;
leftMetricsKey = H;
rightKerningGroup = R;
unicode = 0052;
userData = {
anchors = (
);
b = {
};
com.typemytype.robofont.guides = (
);
com.typemytype.robofont.layerData = {
b = {
anchors = (
);
components = (
);
contours = (
{
points = (
{
segmentType = curve;
smooth = 1;
x = 267;
y = 0;
},
{
smooth = 0;
x = 311;
y = 0;
},
{
smooth = 0;
x = 356;
y = 27;
},
{
segmentType = curve;
smooth = 1;
x = 356;
y = 84;
},
{
segmentType = line;
smooth = 0;
x = 356;
y = 628;
},
{
segmentType = line;
smooth = 1;
x = 669;
y = 628;
},
{
smooth = 0;
x = 962;
y = 628;
},
{
smooth = 0;
x = 1182;
y = 722;
},
{
segmentType = curve;
smooth = 1;
x = 1182;
y = 1026;
},
{
smooth = 0;
x = 1182;
y = 1324;
},
{
smooth = 0;
x = 993;
y = 1426;
},
{
segmentType = curve;
smooth = 1;
x = 684;
y = 1426;
},
{
segmentType = line;
smooth = 1;
x = 268;
y = 1426;
},
{
smooth = 0;
x = 217;
y = 1426;
},
{
smooth = 0;
x = 178;
y = 1387;
},
{
segmentType = curve;
smooth = 1;
x = 178;
y = 1339;
},
{
segmentType = line;
smooth = 1;
x = 178;
y = 84;
},
{
smooth = 0;
x = 178;
y = 28;
},
{
smooth = 0;
x = 222;
y = 0;
}
);
},
{
points = (
{
segmentType = line;
smooth = 0;
x = 356;
y = 764;
},
{
segmentType = line;
smooth = 0;
x = 356;
y = 1285;
},
{
segmentType = line;
smooth = 1;
x = 684;
y = 1285;
},
{
smooth = 0;
x = 914;
y = 1285;
},
{
smooth = 0;
x = 1008;
y = 1210;
},
{
segmentType = curve;
smooth = 1;
x = 1008;
y = 1026;
},
{
smooth = 0;
x = 1008;
y = 838;
},
{
smooth = 0;
x = 901;
y = 764;
},
{
segmentType = curve;
smooth = 1;
x = 670;
y = 764;
}
);
}
);
lib = {
};
name = R;
unicodes = (
);
width = 1363;
};
};
components = (
);
contours = (
);
lib = {
};
name = R;
unicodes = (
);
width = 1408;
};
},
{
glyphname = S;
lastChange = "2019-10-21 09:53:17 +0000";
layers = (
{
anchors = (
{
name = bottom;
position = "{310, 0}";
},
{
name = top;
position = "{304, 705}";
}
);
background = {
anchors = (
{
name = bottom;
position = "{310, 0}";
},
{
name = top;
position = "{304, 705}";
}
);
paths = (
{
closed = 1;
nodes = (
"462 -8 OFFCURVE",
"555 69 OFFCURVE",
"555 180 CURVE SMOOTH",
"555 275 OFFCURVE",
"491 325 OFFCURVE",
"355 353 CURVE SMOOTH",
"256 373 LINE SMOOTH",
"155 393 OFFCURVE",
"112 435 OFFCURVE",
"112 513 CURVE SMOOTH",
"112 609 OFFCURVE",
"190 672 OFFCURVE",
"308 672 CURVE SMOOTH",
"393 672 OFFCURVE",
"456 647 OFFCURVE",
"519 586 CURVE",
"539 622 LINE",
"482 682 OFFCURVE",
"403 713 OFFCURVE",
"308 713 CURVE SMOOTH",
"167 713 OFFCURVE",
"68 632 OFFCURVE",
"68 513 CURVE SMOOTH",
"68 413 OFFCURVE",
"129 356 OFFCURVE",
"254 331 CURVE SMOOTH",
"353 311 LINE SMOOTH",
"465 288 OFFCURVE",
"511 251 OFFCURVE",
"511 179 CURVE SMOOTH",
"511 91 OFFCURVE",
"443 33 OFFCURVE",
"310 33 CURVE SMOOTH",
"205 33 OFFCURVE",
"142 58 OFFCURVE",
"72 115 CURVE",
"52 79 LINE",
"116 22 OFFCURVE",
"200 -8 OFFCURVE",
"310 -8 CURVE SMOOTH"
);
}
);
};
layerId = "F1F93986-3ED8-4AAE-84C4-CA3EEECDDFA0";
paths = (
{
closed = 1;
nodes = (
"462 -8 OFFCURVE",
"555 69 OFFCURVE",
"555 180 CURVE SMOOTH",
"555 275 OFFCURVE",
"491 325 OFFCURVE",
"355 353 CURVE SMOOTH",
"256 373 LINE SMOOTH",
"155 393 OFFCURVE",
"112 435 OFFCURVE",
"112 513 CURVE SMOOTH",
"112 609 OFFCURVE",
"190 672 OFFCURVE",
"308 672 CURVE SMOOTH",
"393 672 OFFCURVE",
"456 647 OFFCURVE",
"519 586 CURVE",
"539 622 LINE",
"482 682 OFFCURVE",
"403 713 OFFCURVE",
"308 713 CURVE SMOOTH",
"167 713 OFFCURVE",
"68 632 OFFCURVE",
"68 513 CURVE SMOOTH",
"68 413 OFFCURVE",
"129 356 OFFCURVE",
"254 331 CURVE SMOOTH",
"353 311 LINE SMOOTH",
"465 288 OFFCURVE",
"511 251 OFFCURVE",
"511 179 CURVE SMOOTH",
"511 91 OFFCURVE",
"443 33 OFFCURVE",
"310 33 CURVE SMOOTH",
"205 33 OFFCURVE",
"142 58 OFFCURVE",
"72 115 CURVE",
"52 79 LINE",
"116 22 OFFCURVE",
"200 -8 OFFCURVE",
"310 -8 CURVE SMOOTH"
);
}
);
width = 600;
},
{
anchors = (
{
name = bottom;
position = "{335, 0}";
},
{
name = top;
position = "{345, 705}";
}
);
background = {
anchors = (
{
name = bottom;
position = "{335, 0}";
},
{
name = top;
position = "{345, 705}";
}
);
paths = (
{
closed = 1;
nodes = (
"518 -12 OFFCURVE",
"640 81 OFFCURVE",
"640 224 CURVE SMOOTH",
"640 328 OFFCURVE",
"577 395 OFFCURVE",
"449 423 CURVE SMOOTH",
"329 449 LINE SMOOTH",
"276 460 OFFCURVE",
"261 473 OFFCURVE",
"261 491 CURVE SMOOTH",
"261 521 OFFCURVE",
"294 542 OFFCURVE",
"359 542 CURVE SMOOTH",
"434 542 OFFCURVE",
"504 521 OFFCURVE",
"552 488 CURVE",
"610 644 LINE",
"556 688 OFFCURVE",
"459 717 OFFCURVE",
"362 717 CURVE SMOOTH",
"176 717 OFFCURVE",
"51 623 OFFCURVE",
"51 480 CURVE SMOOTH",
"51 373 OFFCURVE",
"113 305 OFFCURVE",
"242 277 CURVE SMOOTH",
"362 251 LINE SMOOTH",
"414 240 OFFCURVE",
"430 227 OFFCURVE",
"430 206 CURVE SMOOTH",
"430 183 OFFCURVE",
"407 163 OFFCURVE",
"330 163 CURVE SMOOTH",
"250 163 OFFCURVE",
"157 190 OFFCURVE",
"97 227 CURVE",
"39 61 LINE",
"106 17 OFFCURVE",
"218 -12 OFFCURVE",
"330 -12 CURVE SMOOTH"
);
}
);
};
layerId = "4121B50C-FD42-45C5-8FBE-41E76D98F91E";
paths = (
{
closed = 1;
nodes = (
"518 -12 OFFCURVE",
"640 81 OFFCURVE",
"640 224 CURVE SMOOTH",
"640 328 OFFCURVE",
"577 395 OFFCURVE",
"449 423 CURVE SMOOTH",
"329 449 LINE SMOOTH",
"276 460 OFFCURVE",
"261 473 OFFCURVE",
"261 491 CURVE SMOOTH",
"261 521 OFFCURVE",
"294 542 OFFCURVE",
"359 542 CURVE SMOOTH",
"434 542 OFFCURVE",
"504 521 OFFCURVE",
"552 488 CURVE",
"610 644 LINE",
"556 688 OFFCURVE",
"459 717 OFFCURVE",
"362 717 CURVE SMOOTH",
"176 717 OFFCURVE",
"51 623 OFFCURVE",
"51 480 CURVE SMOOTH",
"51 373 OFFCURVE",
"113 305 OFFCURVE",
"242 277 CURVE SMOOTH",
"362 251 LINE SMOOTH",
"414 240 OFFCURVE",
"430 227 OFFCURVE",
"430 206 CURVE SMOOTH",
"430 183 OFFCURVE",
"407 163 OFFCURVE",
"330 163 CURVE SMOOTH",
"250 163 OFFCURVE",
"157 190 OFFCURVE",
"97 227 CURVE",
"39 61 LINE",
"106 17 OFFCURVE",
"218 -12 OFFCURVE",
"330 -12 CURVE SMOOTH"
);
}
);
width = 663;
}
);
leftKerningGroup = S;
rightKerningGroup = S;
unicode = 0053;
userData = {
anchors = (
);
b = {
};
com.typemytype.robofont.layerData = {
b = {
anchors = (
);
components = (
);
contours = (
);
lib = {
};
name = S;
unicodes = (
);
width = 1274;
};
};
components = (
);
contours = (
);
lib = {
};
name = S;
unicodes = (
);
width = 1317;
};
},
{
glyphname = Germandbls;
lastChange = "2019-10-21 09:53:17 +0000";
layers = (
{
background = {
paths = (
{
closed = 1;
nodes = (
"138 0 LINE",
"138 467 LINE SMOOTH",
"138 604 OFFCURVE",
"215 673 OFFCURVE",
"359 673 CURVE SMOOTH",
"478 673 OFFCURVE",
"544 621 OFFCURVE",
"544 524 CURVE SMOOTH",
"544 427 OFFCURVE",
"478 374 OFFCURVE",
"375 374 CURVE SMOOTH",
"255 374 LINE",
"255 335 LINE",
"402 335 LINE SMOOTH",
"523 335 OFFCURVE",
"582 281 OFFCURVE",
"582 186 CURVE SMOOTH",
"582 90 OFFCURVE",
"523 32 OFFCURVE",
"413 32 CURVE SMOOTH",
"343 32 OFFCURVE",
"290 49 OFFCURVE",
"238 96 CURVE",
"216 61 LINE",
"262 16 OFFCURVE",
"332 -8 OFFCURVE",
"413 -8 CURVE SMOOTH",
"547 -8 OFFCURVE",
"626 61 OFFCURVE",
"626 186 CURVE SMOOTH",
"626 290 OFFCURVE",
"560 354 OFFCURVE",
"456 367 CURVE",
"456 353 LINE",
"537 370 OFFCURVE",
"588 440 OFFCURVE",
"588 529 CURVE SMOOTH",
"588 643 OFFCURVE",
"498 713 OFFCURVE",
"358 713 CURVE SMOOTH",
"195 713 OFFCURVE",
"96 630 OFFCURVE",
"96 470 CURVE SMOOTH",
"96 0 LINE"
);
}
);
};
layerId = "F1F93986-3ED8-4AAE-84C4-CA3EEECDDFA0";
paths = (
{
closed = 1;
nodes = (
"547 -8 OFFCURVE",
"626 61 OFFCURVE",
"626 186 CURVE SMOOTH",
"626 290 OFFCURVE",
"560 354 OFFCURVE",
"456 367 CURVE",
"456 353 LINE",
"537 370 OFFCURVE",
"588 440 OFFCURVE",
"588 529 CURVE SMOOTH",
"588 643 OFFCURVE",
"498 713 OFFCURVE",
"358 713 CURVE SMOOTH",
"195 713 OFFCURVE",
"96 630 OFFCURVE",
"96 470 CURVE SMOOTH",
"96 0 LINE",
"138 0 LINE",
"138 467 LINE SMOOTH",
"138 604 OFFCURVE",
"215 673 OFFCURVE",
"359 673 CURVE SMOOTH",
"478 673 OFFCURVE",
"544 621 OFFCURVE",
"544 524 CURVE SMOOTH",
"544 427 OFFCURVE",
"478 374 OFFCURVE",
"375 374 CURVE SMOOTH",
"255 374 LINE",
"255 335 LINE",
"402 335 LINE SMOOTH",
"523 335 OFFCURVE",
"582 281 OFFCURVE",
"582 186 CURVE SMOOTH",
"582 90 OFFCURVE",
"523 32 OFFCURVE",
"413 32 CURVE SMOOTH",
"343 32 OFFCURVE",
"290 49 OFFCURVE",
"238 96 CURVE",
"216 61 LINE",
"262 16 OFFCURVE",
"332 -8 OFFCURVE",
"413 -8 CURVE SMOOTH"
);
}
);
width = 697;
},
{
background = {
paths = (
{
closed = 1;
nodes = (
"272 0 LINE",
"272 430 LINE SMOOTH",
"272 511 OFFCURVE",
"311 548 OFFCURVE",
"396 548 CURVE SMOOTH",
"460 548 OFFCURVE",
"491 529 OFFCURVE",
"491 490 CURVE SMOOTH",
"491 452 OFFCURVE",
"464 432 OFFCURVE",
"412 432 CURVE SMOOTH",
"354 432 LINE",
"354 271 LINE",
"424 271 LINE SMOOTH",
"496 271 OFFCURVE",
"527 253 OFFCURVE",
"527 211 CURVE SMOOTH",
"527 177 OFFCURVE",
"502 154 OFFCURVE",
"464 154 CURVE SMOOTH",
"426 154 OFFCURVE",
"394 164 OFFCURVE",
"353 188 CURVE",
"298 38 LINE",
"356 1 OFFCURVE",
"409 -12 OFFCURVE",
"490 -12 CURVE SMOOTH",
"640 -12 OFFCURVE",
"730 67 OFFCURVE",
"730 195 CURVE SMOOTH",
"730 293 OFFCURVE",
"667 365 OFFCURVE",
"573 375 CURVE",
"573 354 LINE",
"651 384 OFFCURVE",
"694 444 OFFCURVE",
"694 520 CURVE SMOOTH",
"694 641 OFFCURVE",
"585 716 OFFCURVE",
"410 716 CURVE SMOOTH",
"180 716 OFFCURVE",
"57 617 OFFCURVE",
"57 430 CURVE SMOOTH",
"57 0 LINE"
);
}
);
};
layerId = "4121B50C-FD42-45C5-8FBE-41E76D98F91E";
paths = (
{
closed = 1;
nodes = (
"640 -12 OFFCURVE",
"730 67 OFFCURVE",
"730 195 CURVE SMOOTH",
"730 293 OFFCURVE",
"667 365 OFFCURVE",
"573 375 CURVE",
"573 354 LINE",
"651 384 OFFCURVE",
"694 444 OFFCURVE",
"694 520 CURVE SMOOTH",
"694 641 OFFCURVE",
"585 716 OFFCURVE",
"410 716 CURVE SMOOTH",
"180 716 OFFCURVE",
"57 617 OFFCURVE",
"57 430 CURVE SMOOTH",
"57 0 LINE",
"272 0 LINE",
"272 430 LINE SMOOTH",
"272 511 OFFCURVE",
"311 548 OFFCURVE",
"396 548 CURVE SMOOTH",
"460 548 OFFCURVE",
"491 529 OFFCURVE",
"491 490 CURVE SMOOTH",
"491 452 OFFCURVE",
"464 432 OFFCURVE",
"412 432 CURVE SMOOTH",
"354 432 LINE",
"354 271 LINE",
"424 271 LINE SMOOTH",
"496 271 OFFCURVE",
"527 253 OFFCURVE",
"527 211 CURVE SMOOTH",
"527 177 OFFCURVE",
"502 154 OFFCURVE",
"464 154 CURVE SMOOTH",
"426 154 OFFCURVE",
"394 164 OFFCURVE",
"353 188 CURVE",
"298 38 LINE",
"356 1 OFFCURVE",
"409 -12 OFFCURVE",
"490 -12 CURVE SMOOTH"
);
}
);
width = 764;
}
);
leftKerningGroup = H;
leftMetricsKey = H;
rightKerningGroup = Germandbls;
rightMetricsKey = B;
unicode = 1E9E;
},
{
glyphname = Schwa;
lastChange = "2019-10-21 09:53:17 +0000";
layers = (
{
anchors = (
{
name = bottom;
position = "{371, 0}";
},
{
name = top;
position = "{371, 705}";
}
);
background = {
anchors = (
{
name = bottom;
position = "{371, 0}";
},
{
name = top;
position = "{371, 705}";
}
);
paths = (
{
closed = 1;
nodes = (
"566 -8 OFFCURVE",
"684 129 OFFCURVE",
"684 353 CURVE SMOOTH",
"684 577 OFFCURVE",
"558 713 OFFCURVE",
"355 713 CURVE SMOOTH",
"244 713 OFFCURVE",
"158 681 OFFCURVE",
"93 618 CURVE",
"114 583 LINE",
"182 646 OFFCURVE",
"248 672 OFFCURVE",
"354 672 CURVE SMOOTH",
"535 672 OFFCURVE",
"639 556 OFFCURVE",
"639 353 CURVE SMOOTH",
"639 151 OFFCURVE",
"541 33 OFFCURVE",
"379 33 CURVE SMOOTH",
"199 33 OFFCURVE",
"111 146 OFFCURVE",
"111 353 CURVE",
"99 337 LINE",
"644 337 LINE",
"644 376 LINE",
"67 376 LINE",
"67 348 LINE SMOOTH",
"67 132 OFFCURVE",
"170 -8 OFFCURVE",
"380 -8 CURVE SMOOTH"
);
}
);
};
layerId = "F1F93986-3ED8-4AAE-84C4-CA3EEECDDFA0";
paths = (
{
closed = 1;
nodes = (
"566 -8 OFFCURVE",
"684 129 OFFCURVE",
"684 353 CURVE SMOOTH",
"684 577 OFFCURVE",
"558 713 OFFCURVE",
"355 713 CURVE SMOOTH",
"244 713 OFFCURVE",
"158 681 OFFCURVE",
"93 618 CURVE",
"114 583 LINE",
"182 646 OFFCURVE",
"248 672 OFFCURVE",
"354 672 CURVE SMOOTH",
"535 672 OFFCURVE",
"639 556 OFFCURVE",
"639 353 CURVE SMOOTH",
"639 151 OFFCURVE",
"541 33 OFFCURVE",
"379 33 CURVE SMOOTH",
"199 33 OFFCURVE",
"111 146 OFFCURVE",
"111 353 CURVE",
"99 337 LINE",
"644 337 LINE",
"644 376 LINE",
"67 376 LINE",
"67 348 LINE SMOOTH",
"67 132 OFFCURVE",
"170 -8 OFFCURVE",
"380 -8 CURVE SMOOTH"
);
}
);
width = 751;
},
{
anchors = (
{
name = bottom;
position = "{415, 0}";
},
{
name = top;
position = "{415, 705}";
}
);
background = {
anchors = (
{
name = bottom;
position = "{415, 0}";
},
{
name = top;
position = "{415, 705}";
}
);
paths = (
{
closed = 1;
nodes = (
"628 -12 OFFCURVE",
"779 132 OFFCURVE",
"779 351 CURVE SMOOTH",
"779 577 OFFCURVE",
"620 717 OFFCURVE",
"385 717 CURVE SMOOTH",
"259 717 OFFCURVE",
"148 688 OFFCURVE",
"73 646 CURVE",
"141 484 LINE",
"206 519 OFFCURVE",
"284 538 OFFCURVE",
"356 538 CURVE SMOOTH",
"490 538 OFFCURVE",
"556 476 OFFCURVE",
"556 353 CURVE SMOOTH",
"556 218 OFFCURVE",
"505 158 OFFCURVE",
"408 158 CURVE SMOOTH",
"311 158 OFFCURVE",
"259 218 OFFCURVE",
"259 353 CURVE",
"203 271 LINE",
"612 271 LINE",
"612 432 LINE",
"41 432 LINE",
"41 370 LINE SMOOTH",
"41 146 OFFCURVE",
"174 -12 OFFCURVE",
"419 -12 CURVE SMOOTH"
);
}
);
};
layerId = "4121B50C-FD42-45C5-8FBE-41E76D98F91E";
paths = (
{
closed = 1;
nodes = (
"628 -12 OFFCURVE",
"779 132 OFFCURVE",
"779 351 CURVE SMOOTH",
"779 577 OFFCURVE",
"620 717 OFFCURVE",
"385 717 CURVE SMOOTH",
"259 717 OFFCURVE",
"148 688 OFFCURVE",
"73 646 CURVE",
"141 484 LINE",
"206 519 OFFCURVE",
"284 538 OFFCURVE",
"356 538 CURVE SMOOTH",
"490 538 OFFCURVE",
"556 476 OFFCURVE",
"556 353 CURVE SMOOTH",
"556 218 OFFCURVE",
"505 158 OFFCURVE",
"408 158 CURVE SMOOTH",
"311 158 OFFCURVE",
"259 218 OFFCURVE",
"259 353 CURVE",
"203 271 LINE",
"612 271 LINE",
"612 432 LINE",
"41 432 LINE",
"41 370 LINE SMOOTH",
"41 146 OFFCURVE",
"174 -12 OFFCURVE",
"419 -12 CURVE SMOOTH"
);
}
);
width = 820;
}
);
leftKerningGroup = O;
leftMetricsKey = O;
rightKerningGroup = O;
rightMetricsKey = O;
unicode = 018F;
},
{
glyphname = T;
lastChange = "2019-10-21 09:53:17 +0000";
layers = (
{
anchors = (
{
name = bottom;
position = "{293, 0}";
},
{
name = center;
position = "{293, 358}";
},
{
name = top;
position = "{293, 705}";
}
);
background = {
anchors = (
{
name = bottom;
position = "{293, 0}";
},
{
name = center;
position = "{293, 358}";
},
{
name = top;
position = "{293, 705}";
}
);
paths = (
{
closed = 1;
nodes = (
"314 0 LINE",
"314 666 LINE",
"583 666 LINE",
"583 705 LINE",
"3 705 LINE",
"3 666 LINE",
"272 666 LINE",
"272 0 LINE"
);
}
);
};
layerId = "F1F93986-3ED8-4AAE-84C4-CA3EEECDDFA0";
paths = (
{
closed = 1;
nodes = (
"314 0 LINE",
"314 666 LINE",
"583 666 LINE",
"583 705 LINE",
"3 705 LINE",
"3 666 LINE",
"272 666 LINE",
"272 0 LINE"
);
}
);
width = 586;
},
{
anchors = (
{
name = bottom;
position = "{329, 0}";
},
{
name = center;
position = "{328, 358}";
},
{
name = top;
position = "{328, 705}";
}
);
background = {
anchors = (
{
name = bottom;
position = "{329, 0}";
},
{
name = center;
position = "{328, 358}";
},
{
name = top;
position = "{328, 705}";
}
);
paths = (
{
closed = 1;
nodes = (
"436 0 LINE",
"436 531 LINE",
"650 531 LINE",
"650 705 LINE",
"7 705 LINE",
"7 531 LINE",
"221 531 LINE",
"221 0 LINE"
);
}
);
};
layerId = "4121B50C-FD42-45C5-8FBE-41E76D98F91E";
paths = (
{
closed = 1;
nodes = (
"436 0 LINE",
"436 531 LINE",
"650 531 LINE",
"650 705 LINE",
"7 705 LINE",
"7 531 LINE",
"221 531 LINE",
"221 0 LINE"
);
}
);
width = 657;
}
);
leftKerningGroup = T;
rightKerningGroup = T;
unicode = 0054;
userData = {
anchors = (
);
b = {
};
com.typemytype.robofont.layerData = {
b = {
anchors = (
);
components = (
);
contours = (
{
points = (
{
segmentType = curve;
smooth = 1;
x = 581;
y = 0;
},
{
segmentType = line;
smooth = 1;
x = 1350;
y = 0;
},
{
smooth = 0;
x = 1399;
y = 0;
},
{
smooth = 0;
x = 1423;
y = 34;
},
{
segmentType = curve;
smooth = 1;
x = 1423;
y = 71;
},
{
smooth = 0;
x = 1423;
y = 107;
},
{
smooth = 0;
x = 1399;
y = 141;
},
{
segmentType = curve;
smooth = 1;
x = 1350;
y = 141;
},
{
segmentType = line;
smooth = 0;
x = 671;
y = 141;
},
{
segmentType = line;
smooth = 0;
x = 671;
y = 665;
},
{
segmentType = line;
smooth = 1;
x = 1290;
y = 665;
},
{
smooth = 0;
x = 1339;
y = 665;
},
{
smooth = 0;
x = 1364;
y = 698;
},
{
segmentType = curve;
smooth = 1;
x = 1364;
y = 734;
},
{
smooth = 0;
x = 1364;
y = 770;
},
{
smooth = 0;
x = 1341;
y = 803;
},
{
segmentType = curve;
smooth = 1;
x = 1290;
y = 803;
},
{
segmentType = line;
smooth = 0;
x = 671;
y = 803;
},
{
segmentType = line;
smooth = 0;
x = 671;
y = 1285;
},
{
segmentType = line;
smooth = 1;
x = 1322;
y = 1285;
},
{
smooth = 0;
x = 1371;
y = 1285;
},
{
smooth = 0;
x = 1395;
y = 1319;
},
{
segmentType = curve;
smooth = 1;
x = 1395;
y = 1356;
},
{
smooth = 0;
x = 1395;
y = 1392;
},
{
smooth = 0;
x = 1371;
y = 1426;
},
{
segmentType = curve;
smooth = 1;
x = 1322;
y = 1426;
},
{
segmentType = line;
smooth = 1;
x = 576;
y = 1426;
},
{
smooth = 0;
x = 528;
y = 1426;
},
{
smooth = 0;
x = 493;
y = 1383;
},
{
segmentType = curve;
smooth = 1;
x = 493;
y = 1340;
},
{
segmentType = line;
smooth = 1;
x = 493;
y = 86;
},
{
smooth = 0;
x = 493;
y = 41;
},
{
smooth = 0;
x = 537;
y = 0;
}
);
}
);
lib = {
};
name = T;
unicodes = (
);
width = 1158;
};
};
components = (
);
contours = (
);
lib = {
};
name = T;
unicodes = (
);
width = 1199;
};
},
{
glyphname = U;
lastChange = "2019-10-21 09:53:17 +0000";
layers = (
{
anchors = (
{
name = bottom;
position = "{360, 0}";
},
{
name = ogonek;
position = "{417, 0}";
},
{
name = top;
position = "{360, 705}";
},
{
name = topright;
position = "{588, 705}";
}
);
background = {
anchors = (
{
name = bottom;
position = "{360, 0}";
},
{
name = ogonek;
position = "{417, 0}";
},
{
name = top;
position = "{360, 705}";
},
{
name = topright;
position = "{588, 705}";
}
);
paths = (
{
closed = 1;
nodes = (
"536 -8 OFFCURVE",
"629 90 OFFCURVE",
"629 271 CURVE SMOOTH",
"629 705 LINE",
"587 705 LINE",
"587 277 LINE SMOOTH",
"587 113 OFFCURVE",
"510 33 OFFCURVE",
"360 33 CURVE SMOOTH",
"210 33 OFFCURVE",
"133 113 OFFCURVE",
"133 277 CURVE SMOOTH",
"133 705 LINE",
"91 705 LINE",
"91 271 LINE SMOOTH",
"91 90 OFFCURVE",
"184 -8 OFFCURVE",
"360 -8 CURVE SMOOTH"
);
}
);
};
layerId = "F1F93986-3ED8-4AAE-84C4-CA3EEECDDFA0";
paths = (
{
closed = 1;
nodes = (
"536 -8 OFFCURVE",
"629 90 OFFCURVE",
"629 271 CURVE SMOOTH",
"629 705 LINE",
"587 705 LINE",
"587 277 LINE SMOOTH",
"587 113 OFFCURVE",
"510 33 OFFCURVE",
"360 33 CURVE SMOOTH",
"210 33 OFFCURVE",
"133 113 OFFCURVE",
"133 277 CURVE SMOOTH",
"133 705 LINE",
"91 705 LINE",
"91 271 LINE SMOOTH",
"91 90 OFFCURVE",
"184 -8 OFFCURVE",
"360 -8 CURVE SMOOTH"
);
}
);
width = 720;
},
{
anchors = (
{
name = bottom;
position = "{379, 0}";
},
{
name = ogonek;
position = "{437, 0}";
},
{
name = top;
position = "{379, 705}";
},
{
name = topright;
position = "{557, 705}";
}
);
background = {
anchors = (
{
name = bottom;
position = "{379, 0}";
},
{
name = ogonek;
position = "{437, 0}";
},
{
name = top;
position = "{379, 705}";
},
{
name = topright;
position = "{557, 705}";
}
);
paths = (
{
closed = 1;
nodes = (
"591 -12 OFFCURVE",
"702 93 OFFCURVE",
"702 307 CURVE SMOOTH",
"702 705 LINE",
"491 705 LINE",
"491 303 LINE SMOOTH",
"491 213 OFFCURVE",
"451 167 OFFCURVE",
"379 167 CURVE SMOOTH",
"307 167 OFFCURVE",
"267 213 OFFCURVE",
"267 303 CURVE SMOOTH",
"267 705 LINE",
"52 705 LINE",
"52 307 LINE SMOOTH",
"52 93 OFFCURVE",
"167 -12 OFFCURVE",
"379 -12 CURVE SMOOTH"
);
}
);
};
layerId = "4121B50C-FD42-45C5-8FBE-41E76D98F91E";
paths = (
{
closed = 1;
nodes = (
"591 -12 OFFCURVE",
"702 93 OFFCURVE",
"702 307 CURVE SMOOTH",
"702 705 LINE",
"491 705 LINE",
"491 303 LINE SMOOTH",
"491 213 OFFCURVE",
"451 167 OFFCURVE",
"379 167 CURVE SMOOTH",
"307 167 OFFCURVE",
"267 213 OFFCURVE",
"267 303 CURVE SMOOTH",
"267 705 LINE",
"52 705 LINE",
"52 307 LINE SMOOTH",
"52 93 OFFCURVE",
"167 -12 OFFCURVE",
"379 -12 CURVE SMOOTH"
);
}
);
width = 754;
}
);
leftKerningGroup = U;
rightKerningGroup = U;
unicode = 0055;
userData = {
anchors = (
);
b = {
};
com.typemytype.robofont.layerData = {
b = {
anchors = (
);
components = (
);
contours = (
);
lib = {
};
name = U;
unicodes = (
);
width = 1490;
};
};
components = (
);
contours = (
);
lib = {
};
name = U;
unicodes = (
);
width = 1513;
};
},
{
glyphname = V;
lastChange = "2019-10-21 09:53:17 +0000";
layers = (
{
anchors = (
{
name = bottom;
position = "{334, 0}";
},
{
name = top;
position = "{333, 705}";
}
);
background = {
anchors = (
{
name = bottom;
position = "{334, 0}";
},
{
name = top;
position = "{333, 705}";
}
);
paths = (
{
closed = 1;
nodes = (
"356 0 LINE",
"659 705 LINE",
"615 705 LINE",
"323 24 LINE",
"346 24 LINE",
"53 705 LINE",
"8 705 LINE",
"311 0 LINE"
);
}
);
};
layerId = "F1F93986-3ED8-4AAE-84C4-CA3EEECDDFA0";
paths = (
{
closed = 1;
nodes = (
"356 0 LINE",
"659 705 LINE",
"615 705 LINE",
"323 24 LINE",
"346 24 LINE",
"53 705 LINE",
"8 705 LINE",
"311 0 LINE"
);
}
);
width = 667;
},
{
anchors = (
{
name = bottom;
position = "{380, 0}";
},
{
name = top;
position = "{379, 705}";
}
);
background = {
anchors = (
{
name = bottom;
position = "{380, 0}";
},
{
name = top;
position = "{379, 705}";
}
);
paths = (
{
closed = 1;
nodes = (
"464 0 LINE",
"789 705 LINE",
"569 705 LINE",
"352 203 LINE",
"415 203 LINE",
"199 705 LINE",
"-30 705 LINE",
"295 0 LINE"
);
}
);
};
layerId = "4121B50C-FD42-45C5-8FBE-41E76D98F91E";
paths = (
{
closed = 1;
nodes = (
"464 0 LINE",
"789 705 LINE",
"569 705 LINE",
"352 203 LINE",
"415 203 LINE",
"199 705 LINE",
"-30 705 LINE",
"295 0 LINE"
);
}
);
width = 759;
}
);
leftKerningGroup = V;
rightKerningGroup = V;
unicode = 0056;
userData = {
anchors = (
);
b = {
};
com.typemytype.robofont.guides = (
);
com.typemytype.robofont.layerData = {
b = {
anchors = (
);
components = (
);
contours = (
{
points = (
{
segmentType = curve;
smooth = 1;
x = 644;
y = "-5";
},
{
smooth = 0;
x = 712;
y = "-5";
},
{
smooth = 0;
x = 764;
y = 38;
},
{
segmentType = curve;
smooth = 1;
x = 793;
y = 117;
},
{
segmentType = line;
smooth = 1;
x = 1243;
y = 1324;
},
{
smooth = 0;
x = 1247;
y = 1335;
},
{
smooth = 0;
x = 1248;
y = 1342;
},
{
segmentType = curve;
smooth = 1;
x = 1248;
y = 1351;
},
{
smooth = 0;
x = 1248;
y = 1395;
},
{
smooth = 0;
x = 1203;
y = 1427;
},
{
segmentType = curve;
smooth = 1;
x = 1160;
y = 1427;
},
{
smooth = 0;
x = 1125;
y = 1427;
},
{
smooth = 0;
x = 1090;
y = 1408;
},
{
segmentType = curve;
smooth = 1;
x = 1076;
y = 1369;
},
{
segmentType = line;
smooth = 0;
x = 651;
y = 192;
},
{
segmentType = line;
smooth = 0;
x = 650;
y = 190;
},
{
segmentType = line;
smooth = 1;
x = 214;
y = 1370;
},
{
smooth = 0;
x = 200;
y = 1407;
},
{
smooth = 0;
x = 170;
y = 1427;
},
{
segmentType = curve;
smooth = 1;
x = 135;
y = 1427;
},
{
smooth = 0;
x = 90;
y = 1427;
},
{
smooth = 0;
x = 43;
y = 1392;
},
{
segmentType = curve;
smooth = 1;
x = 43;
y = 1344;
},
{
smooth = 0;
x = 43;
y = 1336;
},
{
smooth = 0;
x = 44;
y = 1326;
},
{
segmentType = curve;
smooth = 0;
x = 48;
y = 1318;
},
{
segmentType = line;
smooth = 1;
x = 501;
y = 117;
},
{
smooth = 0;
x = 532;
y = 35;
},
{
smooth = 0;
x = 581;
y = "-5";
}
);
}
);
lib = {
};
name = V;
unicodes = (
);
width = 1289;
};
};
components = (
);
contours = (
);
lib = {
};
name = V;
unicodes = (
);
width = 1365;
};
},
{
glyphname = W;
lastChange = "2019-10-21 09:53:17 +0000";
layers = (
{
anchors = (
{
name = bottom;
position = "{546, 0}";
},
{
name = top;
position = "{545, 705}";
}
);
background = {
anchors = (
{
name = bottom;
position = "{546, 0}";
},
{
name = top;
position = "{545, 705}";
}
);
paths = (
{
closed = 1;
nodes = (
"323 0 LINE",
"555 671 LINE",
"535 671 LINE",
"766 0 LINE",
"809 0 LINE",
"1053 705 LINE",
"1010 705 LINE",
"773 19 LINE",
"801 19 LINE",
"564 705 LINE",
"525 705 LINE",
"288 19 LINE",
"318 19 LINE",
"82 705 LINE",
"38 705 LINE",
"282 0 LINE"
);
}
);
};
layerId = "F1F93986-3ED8-4AAE-84C4-CA3EEECDDFA0";
paths = (
{
closed = 1;
nodes = (
"323 0 LINE",
"555 671 LINE",
"535 671 LINE",
"766 0 LINE",
"809 0 LINE",
"1053 705 LINE",
"1010 705 LINE",
"773 19 LINE",
"801 19 LINE",
"564 705 LINE",
"525 705 LINE",
"288 19 LINE",
"318 19 LINE",
"82 705 LINE",
"38 705 LINE",
"282 0 LINE"
);
}
);
width = 1091;
},
{
anchors = (
{
name = bottom;
position = "{568, 0}";
},
{
name = top;
position = "{569, 705}";
}
);
background = {
anchors = (
{
name = bottom;
position = "{568, 0}";
},
{
name = top;
position = "{569, 705}";
}
);
paths = (
{
closed = 1;
nodes = (
"431 0 LINE",
"583 412 LINE",
"557 412 LINE",
"705 0 LINE",
"875 0 LINE",
"1132 705 LINE",
"926 705 LINE",
"766 234 LINE",
"808 234 LINE",
"651 705 LINE",
"500 705 LINE",
"330 234 LINE",
"380 234 LINE",
"225 705 LINE",
"5 705 LINE",
"260 0 LINE"
);
}
);
};
layerId = "4121B50C-FD42-45C5-8FBE-41E76D98F91E";
paths = (
{
closed = 1;
nodes = (
"431 0 LINE",
"583 412 LINE",
"557 412 LINE",
"705 0 LINE",
"875 0 LINE",
"1132 705 LINE",
"926 705 LINE",
"766 234 LINE",
"808 234 LINE",
"651 705 LINE",
"500 705 LINE",
"330 234 LINE",
"380 234 LINE",
"225 705 LINE",
"5 705 LINE",
"260 0 LINE"
);
}
);
width = 1136;
}
);
leftKerningGroup = V;
rightKerningGroup = V;
unicode = 0057;
userData = {
anchors = (
);
b = {
};
com.typemytype.robofont.layerData = {
b = {
anchors = (
);
components = (
);
contours = (
);
lib = {
};
name = W;
unicodes = (
);
width = 2126;
};
};
components = (
);
contours = (
);
lib = {
};
name = W;
unicodes = (
);
width = 2070;
};
},
{
glyphname = X;
lastChange = "2019-10-21 09:53:17 +0000";
layers = (
{
anchors = (
{
name = bottom;
position = "{316, 0}";
},
{
name = top;
position = "{316, 705}";
}
);
background = {
anchors = (
{
name = bottom;
position = "{316, 0}";
},
{
name = top;
position = "{316, 705}";
}
);
paths = (
{
closed = 1;
nodes = (
"592 705 LINE",
"542 705 LINE",
"311 387 LINE",
"323 387 LINE",
"89 705 LINE",
"39 705 LINE",
"295 357 LINE",
"295 367 LINE",
"24 0 LINE",
"75 0 LINE",
"326 342 LINE",
"305 342 LINE",
"556 0 LINE",
"607 0 LINE",
"336 367 LINE",
"336 357 LINE"
);
}
);
};
layerId = "F1F93986-3ED8-4AAE-84C4-CA3EEECDDFA0";
paths = (
{
closed = 1;
nodes = (
"75 0 LINE",
"326 342 LINE",
"305 342 LINE",
"556 0 LINE",
"607 0 LINE",
"336 367 LINE",
"336 357 LINE",
"592 705 LINE",
"542 705 LINE",
"311 387 LINE",
"323 387 LINE",
"89 705 LINE",
"39 705 LINE",
"295 357 LINE",
"295 367 LINE",
"24 0 LINE"
);
}
);
width = 631;
},
{
anchors = (
{
name = bottom;
position = "{358, 0}";
},
{
name = top;
position = "{356, 705}";
}
);
background = {
anchors = (
{
name = bottom;
position = "{358, 0}";
},
{
name = top;
position = "{356, 705}";
}
);
paths = (
{
closed = 1;
nodes = (
"746 705 LINE",
"496 705 LINE",
"321 461 LINE",
"391 461 LINE",
"217 705 LINE",
"-32 705 LINE",
"272 305 LINE",
"272 404 LINE",
"-36 0 LINE",
"214 0 LINE",
"390 245 LINE",
"323 245 LINE",
"499 0 LINE",
"749 0 LINE",
"441 404 LINE",
"441 305 LINE"
);
}
);
};
layerId = "4121B50C-FD42-45C5-8FBE-41E76D98F91E";
paths = (
{
closed = 1;
nodes = (
"214 0 LINE",
"390 245 LINE",
"323 245 LINE",
"499 0 LINE",
"749 0 LINE",
"441 404 LINE",
"441 305 LINE",
"746 705 LINE",
"496 705 LINE",
"321 461 LINE",
"391 461 LINE",
"217 705 LINE",
"-32 705 LINE",
"272 305 LINE",
"272 404 LINE",
"-36 0 LINE"
);
}
);
width = 713;
}
);
leftKerningGroup = X;
rightKerningGroup = X;
unicode = 0058;
userData = {
anchors = (
);
b = {
};
com.typemytype.robofont.layerData = {
b = {
anchors = (
);
components = (
);
contours = (
{
points = (
{
segmentType = curve;
smooth = 1;
x = 151;
y = 0;
},
{
smooth = 0;
x = 176;
y = 0;
},
{
smooth = 0;
x = 201;
y = 12;
},
{
segmentType = curve;
smooth = 1;
x = 222;
y = 41;
},
{
segmentType = line;
smooth = 0;
x = 641;
y = 616;
},
{
segmentType = line;
smooth = 0;
x = 746;
y = 734;
},
{
segmentType = line;
smooth = 1;
x = 1175;
y = 1310;
},
{
smooth = 0;
x = 1186;
y = 1325;
},
{
smooth = 0;
x = 1190;
y = 1338;
},
{
segmentType = curve;
smooth = 1;
x = 1190;
y = 1353;
},
{
smooth = 0;
x = 1190;
y = 1393;
},
{
smooth = 0;
x = 1153;
y = 1426;
},
{
segmentType = curve;
smooth = 1;
x = 1110;
y = 1426;
},
{
smooth = 0;
x = 1083;
y = 1426;
},
{
smooth = 0;
x = 1058;
y = 1414;
},
{
segmentType = curve;
smooth = 1;
x = 1037;
y = 1385;
},
{
segmentType = line;
smooth = 0;
x = 648;
y = 844;
},
{
segmentType = line;
smooth = 0;
x = 542;
y = 732;
},
{
segmentType = line;
smooth = 1;
x = 84;
y = 121;
},
{
smooth = 0;
x = 73;
y = 106;
},
{
smooth = 0;
x = 68;
y = 91;
},
{
segmentType = curve;
smooth = 1;
x = 68;
y = 76;
},
{
smooth = 0;
x = 68;
y = 35;
},
{
smooth = 0;
x = 108;
y = 0;
}
);
},
{
points = (
{
segmentType = curve;
smooth = 1;
x = 1104;
y = 0;
},
{
smooth = 0;
x = 1151;
y = 0;
},
{
smooth = 0;
x = 1200;
y = 40;
},
{
segmentType = curve;
smooth = 1;
x = 1200;
y = 85;
},
{
smooth = 0;
x = 1200;
y = 98;
},
{
smooth = 0;
x = 1195;
y = 113;
},
{
segmentType = curve;
smooth = 0;
x = 1186;
y = 126;
},
{
segmentType = line;
smooth = 0;
x = 272;
y = 1385;
},
{
smooth = 0;
x = 252;
y = 1414;
},
{
smooth = 0;
x = 225;
y = 1426;
},
{
segmentType = curve;
smooth = 1;
x = 197;
y = 1426;
},
{
smooth = 0;
x = 149;
y = 1426;
},
{
smooth = 0;
x = 100;
y = 1388;
},
{
segmentType = curve;
smooth = 1;
x = 100;
y = 1343;
},
{
smooth = 0;
x = 100;
y = 1328;
},
{
smooth = 0;
x = 105;
y = 1315;
},
{
segmentType = curve;
smooth = 0;
x = 114;
y = 1303;
},
{
segmentType = line;
smooth = 0;
x = 1033;
y = 40;
},
{
smooth = 0;
x = 1052;
y = 13;
},
{
smooth = 0;
x = 1076;
y = 0;
}
);
}
);
lib = {
};
name = X;
unicodes = (
);
width = 1274;
};
};
components = (
);
contours = (
);
lib = {
};
name = X;
unicodes = (
);
width = 1322;
};
},
{
glyphname = Y;
lastChange = "2019-10-21 09:53:17 +0000";
layers = (
{
anchors = (
{
name = bottom;
position = "{288, 0}";
},
{
name = top;
position = "{288, 705}";
},
{
name = topleft;
position = "{17, 705}";
}
);
background = {
anchors = (
{
name = bottom;
position = "{288, 0}";
},
{
name = top;
position = "{288, 705}";
},
{
name = topleft;
position = "{17, 705}";
}
);
paths = (
{
closed = 1;
nodes = (
"309 0 LINE",
"309 367 LINE",
"299 328 LINE",
"578 705 LINE",
"531 705 LINE",
"282 368 LINE",
"297 368 LINE",
"48 705 LINE",
"-1 705 LINE",
"278 328 LINE",
"267 367 LINE",
"267 0 LINE"
);
}
);
};
layerId = "F1F93986-3ED8-4AAE-84C4-CA3EEECDDFA0";
paths = (
{
closed = 1;
nodes = (
"309 0 LINE",
"309 367 LINE",
"299 328 LINE",
"578 705 LINE",
"531 705 LINE",
"282 368 LINE",
"297 368 LINE",
"48 705 LINE",
"-1 705 LINE",
"278 328 LINE",
"267 367 LINE",
"267 0 LINE"
);
}
);
width = 577;
},
{
anchors = (
{
name = bottom;
position = "{331, 0}";
},
{
name = top;
position = "{329, 705}";
},
{
name = topleft;
position = "{16, 705}";
}
);
background = {
anchors = (
{
name = bottom;
position = "{331, 0}";
},
{
name = top;
position = "{329, 705}";
},
{
name = topleft;
position = "{16, 705}";
}
);
paths = (
{
closed = 1;
nodes = (
"437 0 LINE",
"437 359 LINE",
"394 243 LINE",
"708 705 LINE",
"468 705 LINE",
"312 467 LINE",
"353 467 LINE",
"197 705 LINE",
"-50 705 LINE",
"265 243 LINE",
"222 359 LINE",
"222 0 LINE"
);
}
);
};
layerId = "4121B50C-FD42-45C5-8FBE-41E76D98F91E";
paths = (
{
closed = 1;
nodes = (
"437 0 LINE",
"437 359 LINE",
"394 243 LINE",
"708 705 LINE",
"468 705 LINE",
"312 467 LINE",
"353 467 LINE",
"197 705 LINE",
"-50 705 LINE",
"265 243 LINE",
"222 359 LINE",
"222 0 LINE"
);
}
);
width = 660;
}
);
leftKerningGroup = Y;
rightKerningGroup = Y;
unicode = 0059;
userData = {
anchors = (
);
b = {
};
com.typemytype.robofont.guides = (
);
com.typemytype.robofont.layerData = {
b = {
anchors = (
);
components = (
);
contours = (
{
points = (
{
segmentType = curve;
smooth = 1;
x = 641;
y = 0;
},
{
smooth = 0;
x = 685;
y = 0;
},
{
smooth = 0;
x = 730;
y = 29;
},
{
segmentType = curve;
smooth = 1;
x = 730;
y = 85;
},
{
segmentType = line;
smooth = 0;
x = 730;
y = 1285;
},
{
segmentType = line;
smooth = 1;
x = 1115;
y = 1285;
},
{
smooth = 0;
x = 1164;
y = 1285;
},
{
smooth = 0;
x = 1190;
y = 1319;
},
{
segmentType = curve;
smooth = 1;
x = 1190;
y = 1355;
},
{
smooth = 0;
x = 1190;
y = 1392;
},
{
smooth = 0;
x = 1166;
y = 1426;
},
{
segmentType = curve;
smooth = 1;
x = 1115;
y = 1426;
},
{
segmentType = line;
smooth = 1;
x = 160;
y = 1426;
},
{
smooth = 0;
x = 111;
y = 1426;
},
{
smooth = 0;
x = 86;
y = 1392;
},
{
segmentType = curve;
smooth = 1;
x = 86;
y = 1355;
},
{
smooth = 0;
x = 86;
y = 1319;
},
{
smooth = 0;
x = 111;
y = 1285;
},
{
segmentType = curve;
smooth = 1;
x = 160;
y = 1285;
},
{
segmentType = line;
smooth = 0;
x = 552;
y = 1285;
},
{
segmentType = line;
smooth = 1;
x = 552;
y = 85;
},
{
smooth = 0;
x = 552;
y = 29;
},
{
smooth = 0;
x = 596;
y = 0;
}
);
}
);
lib = {
};
name = Y;
unicodes = (
);
width = 1278;
};
};
components = (
);
contours = (
);
lib = {
};
name = Y;
unicodes = (
);
width = 1321;
};
},
{
glyphname = Z;
lastChange = "2019-10-21 09:53:17 +0000";
layers = (
{
anchors = (
{
name = bottom;
position = "{301, 0}";
},
{
name = top;
position = "{300, 705}";
}
);
background = {
anchors = (
{
name = bottom;
position = "{301, 0}";
},
{
name = top;
position = "{300, 705}";
}
);
paths = (
{
closed = 1;
nodes = (
"552 0 LINE",
"552 39 LINE",
"88 39 LINE",
"88 16 LINE",
"538 674 LINE",
"538 705 LINE",
"49 705 LINE",
"49 666 LINE",
"499 666 LINE",
"499 689 LINE",
"49 31 LINE",
"49 0 LINE"
);
}
);
};
layerId = "F1F93986-3ED8-4AAE-84C4-CA3EEECDDFA0";
paths = (
{
closed = 1;
nodes = (
"552 0 LINE",
"552 39 LINE",
"88 39 LINE",
"88 16 LINE",
"538 674 LINE",
"538 705 LINE",
"49 705 LINE",
"49 666 LINE",
"499 666 LINE",
"499 689 LINE",
"49 31 LINE",
"49 0 LINE"
);
}
);
width = 575;
},
{
anchors = (
{
name = bottom;
position = "{326, 0}";
},
{
name = top;
position = "{326, 705}";
}
);
background = {
anchors = (
{
name = bottom;
position = "{326, 0}";
},
{
name = top;
position = "{326, 705}";
}
);
paths = (
{
closed = 1;
nodes = (
"616 0 LINE",
"616 176 LINE",
"245 176 LINE",
"245 117 LINE",
"600 547 LINE",
"600 705 LINE",
"44 705 LINE",
"44 529 LINE",
"399 529 LINE",
"399 588 LINE",
"44 158 LINE",
"44 0 LINE"
);
}
);
};
layerId = "4121B50C-FD42-45C5-8FBE-41E76D98F91E";
paths = (
{
closed = 1;
nodes = (
"616 0 LINE",
"616 176 LINE",
"245 176 LINE",
"245 117 LINE",
"600 547 LINE",
"600 705 LINE",
"44 705 LINE",
"44 529 LINE",
"399 529 LINE",
"399 588 LINE",
"44 158 LINE",
"44 0 LINE"
);
}
);
width = 636;
}
);
leftKerningGroup = Z;
rightKerningGroup = Z;
unicode = 005A;
userData = {
anchors = (
);
b = {
};
com.typemytype.robofont.layerData = {
b = {
anchors = (
);
components = (
);
contours = (
{
points = (
{
segmentType = curve;
smooth = 1;
x = 266;
y = 0;
},
{
segmentType = line;
smooth = 1;
x = 1035;
y = 0;
},
{
smooth = 0;
x = 1084;
y = 0;
},
{
smooth = 0;
x = 1108;
y = 34;
},
{
segmentType = curve;
smooth = 1;
x = 1108;
y = 71;
},
{
smooth = 0;
x = 1108;
y = 107;
},
{
smooth = 0;
x = 1084;
y = 141;
},
{
segmentType = curve;
smooth = 1;
x = 1035;
y = 141;
},
{
segmentType = line;
smooth = 0;
x = 356;
y = 141;
},
{
segmentType = line;
smooth = 0;
x = 356;
y = 665;
},
{
segmentType = line;
smooth = 1;
x = 975;
y = 665;
},
{
smooth = 0;
x = 1024;
y = 665;
},
{
smooth = 0;
x = 1049;
y = 698;
},
{
segmentType = curve;
smooth = 1;
x = 1049;
y = 734;
},
{
smooth = 0;
x = 1049;
y = 770;
},
{
smooth = 0;
x = 1026;
y = 803;
},
{
segmentType = curve;
smooth = 1;
x = 975;
y = 803;
},
{
segmentType = line;
smooth = 0;
x = 356;
y = 803;
},
{
segmentType = line;
smooth = 0;
x = 356;
y = 1285;
},
{
segmentType = line;
smooth = 1;
x = 1007;
y = 1285;
},
{
smooth = 0;
x = 1056;
y = 1285;
},
{
smooth = 0;
x = 1080;
y = 1319;
},
{
segmentType = curve;
smooth = 1;
x = 1080;
y = 1356;
},
{
smooth = 0;
x = 1080;
y = 1392;
},
{
smooth = 0;
x = 1056;
y = 1426;
},
{
segmentType = curve;
smooth = 1;
x = 1007;
y = 1426;
},
{
segmentType = line;
smooth = 1;
x = 261;
y = 1426;
},
{
smooth = 0;
x = 213;
y = 1426;
},
{
smooth = 0;
x = 178;
y = 1383;
},
{
segmentType = curve;
smooth = 1;
x = 178;
y = 1340;
},
{
segmentType = line;
smooth = 1;
x = 178;
y = 86;
},
{
smooth = 0;
x = 178;
y = 41;
},
{
smooth = 0;
x = 222;
y = 0;
}
);
}
);
lib = {
};
name = Z;
unicodes = (
);
width = 1165;
};
};
components = (
);
contours = (
);
lib = {
};
name = Z;
unicodes = (
);
width = 1222;
};
},
{
glyphname = a;
lastChange = "2019-10-21 09:53:17 +0000";
layers = (
{
anchors = (
{
name = bottom;
position = "{262, 0}";
},
{
name = ogonek;
position = "{431, 0}";
},
{
name = top;
position = "{265, 484}";
}
);
background = {
anchors = (
{
name = bottom;
position = "{262, 0}";
},
{
name = ogonek;
position = "{431, 0}";
},
{
name = top;
position = "{265, 484}";
}
);
paths = (
{
closed = 1;
nodes = (
"316 -8 OFFCURVE",
"380 41 OFFCURVE",
"401 121 CURVE",
"390 121 LINE",
"390 0 LINE",
"431 0 LINE",
"431 315 LINE SMOOTH",
"431 436 OFFCURVE",
"379 492 OFFCURVE",
"269 492 CURVE SMOOTH",
"205 492 OFFCURVE",
"135 470 OFFCURVE",
"84 434 CURVE",
"104 398 LINE",
"161 437 OFFCURVE",
"211 453 OFFCURVE",
"271 453 CURVE SMOOTH",
"353 453 OFFCURVE",
"389 411 OFFCURVE",
"389 315 CURVE SMOOTH",
"389 201 LINE SMOOTH",
"389 103 OFFCURVE",
"325 30 OFFCURVE",
"234 30 CURVE SMOOTH",
"158 30 OFFCURVE",
"110 75 OFFCURVE",
"110 139 CURVE SMOOTH",
"110 216 OFFCURVE",
"163 238 OFFCURVE",
"361 238 CURVE SMOOTH",
"400 238 LINE",
"400 275 LINE",
"359 275 LINE SMOOTH",
"133 275 OFFCURVE",
"64 242 OFFCURVE",
"64 135 CURVE SMOOTH",
"64 55 OFFCURVE",
"137 -8 OFFCURVE",
"231 -8 CURVE SMOOTH"
);
}
);
};
layerId = "F1F93986-3ED8-4AAE-84C4-CA3EEECDDFA0";
paths = (
{
closed = 1;
nodes = (
"316 -8 OFFCURVE",
"380 41 OFFCURVE",
"401 121 CURVE",
"390 121 LINE",
"390 0 LINE",
"431 0 LINE",
"431 315 LINE SMOOTH",
"431 436 OFFCURVE",
"379 492 OFFCURVE",
"269 492 CURVE SMOOTH",
"205 492 OFFCURVE",
"135 470 OFFCURVE",
"84 434 CURVE",
"104 398 LINE",
"161 437 OFFCURVE",
"211 453 OFFCURVE",
"271 453 CURVE SMOOTH",
"353 453 OFFCURVE",
"389 411 OFFCURVE",
"389 315 CURVE SMOOTH",
"389 201 LINE SMOOTH",
"389 103 OFFCURVE",
"325 30 OFFCURVE",
"234 30 CURVE SMOOTH",
"158 30 OFFCURVE",
"110 75 OFFCURVE",
"110 139 CURVE SMOOTH",
"110 216 OFFCURVE",
"163 238 OFFCURVE",
"361 238 CURVE SMOOTH",
"400 238 LINE",
"400 275 LINE",
"359 275 LINE SMOOTH",
"133 275 OFFCURVE",
"64 242 OFFCURVE",
"64 135 CURVE SMOOTH",
"64 55 OFFCURVE",
"137 -8 OFFCURVE",
"231 -8 CURVE SMOOTH"
);
}
);
width = 514;
},
{
anchors = (
{
name = bottom;
position = "{288, 0}";
},
{
name = ogonek;
position = "{468, 0}";
},
{
name = top;
position = "{293, 484}";
}
);
background = {
anchors = (
{
name = bottom;
position = "{288, 0}";
},
{
name = ogonek;
position = "{468, 0}";
},
{
name = top;
position = "{293, 484}";
}
);
paths = (
{
closed = 1;
nodes = (
"293 -12 OFFCURVE",
"341 27 OFFCURVE",
"350 87 CURVE",
"345 87 LINE",
"345 0 LINE",
"538 0 LINE",
"538 276 LINE SMOOTH",
"538 434 OFFCURVE",
"454 506 OFFCURVE",
"279 506 CURVE SMOOTH",
"201 506 OFFCURVE",
"93 479 OFFCURVE",
"42 444 CURVE",
"93 309 LINE",
"152 341 OFFCURVE",
"219 356 OFFCURVE",
"269 356 CURVE SMOOTH",
"324 356 OFFCURVE",
"342 344 OFFCURVE",
"342 306 CURVE SMOOTH",
"342 190 LINE SMOOTH",
"342 148 OFFCURVE",
"309 121 OFFCURVE",
"270 121 CURVE SMOOTH",
"235 121 OFFCURVE",
"219 138 OFFCURVE",
"219 162 CURVE SMOOTH",
"219 189 OFFCURVE",
"250 206 OFFCURVE",
"302 206 CURVE SMOOTH",
"361 206 LINE",
"361 297 LINE",
"303 297 LINE SMOOTH",
"101 297 OFFCURVE",
"22 261 OFFCURVE",
"22 154 CURVE SMOOTH",
"22 58 OFFCURVE",
"102 -12 OFFCURVE",
"221 -12 CURVE SMOOTH"
);
}
);
};
color = 0;
layerId = "4121B50C-FD42-45C5-8FBE-41E76D98F91E";
paths = (
{
closed = 1;
nodes = (
"293 -12 OFFCURVE",
"341 27 OFFCURVE",
"350 87 CURVE",
"345 87 LINE",
"345 0 LINE",
"538 0 LINE",
"538 276 LINE SMOOTH",
"538 434 OFFCURVE",
"454 506 OFFCURVE",
"279 506 CURVE SMOOTH",
"201 506 OFFCURVE",
"93 479 OFFCURVE",
"42 444 CURVE",
"93 309 LINE",
"152 341 OFFCURVE",
"219 356 OFFCURVE",
"269 356 CURVE SMOOTH",
"324 356 OFFCURVE",
"342 344 OFFCURVE",
"342 306 CURVE SMOOTH",
"342 190 LINE SMOOTH",
"342 148 OFFCURVE",
"309 121 OFFCURVE",
"270 121 CURVE SMOOTH",
"235 121 OFFCURVE",
"219 138 OFFCURVE",
"219 162 CURVE SMOOTH",
"219 189 OFFCURVE",
"250 206 OFFCURVE",
"302 206 CURVE SMOOTH",
"361 206 LINE",
"361 297 LINE",
"303 297 LINE SMOOTH",
"101 297 OFFCURVE",
"22 261 OFFCURVE",
"22 154 CURVE SMOOTH",
"22 58 OFFCURVE",
"102 -12 OFFCURVE",
"221 -12 CURVE SMOOTH"
);
}
);
width = 580;
}
);
leftKerningGroup = a;
rightKerningGroup = n;
rightMetricsKey = n;
unicode = 0061;
userData = {
anchors = (
);
b = {
};
com.typemytype.robofont.layerData = {
b = {
anchors = (
);
components = (
);
contours = (
);
lib = {
};
name = a;
unicodes = (
);
width = 1040;
};
};
components = (
);
contours = (
);
lib = {
};
name = a;
unicodes = (
);
width = 1101;
};
},
{
glyphname = ae;
lastChange = "2019-10-21 09:53:17 +0000";
layers = (
{
anchors = (
{
name = bottom;
position = "{416, 0}";
},
{
name = top;
position = "{416, 484}";
}
);
background = {
anchors = (
{
name = bottom;
position = "{416, 0}";
},
{
name = top;
position = "{416, 484}";
}
);
paths = (
{
closed = 1;
nodes = (
"809 237 LINE",
"809 260 LINE SMOOTH",
"809 405 OFFCURVE",
"736 492 OFFCURVE",
"616 492 CURVE SMOOTH",
"520 492 OFFCURVE",
"449 443 OFFCURVE",
"416 354 CURVE",
"436 354 LINE",
"423 444 OFFCURVE",
"372 492 OFFCURVE",
"271 492 CURVE SMOOTH",
"204 492 OFFCURVE",
"135 470 OFFCURVE",
"84 434 CURVE",
"104 399 LINE",
"161 438 OFFCURVE",
"211 453 OFFCURVE",
"273 453 CURVE SMOOTH",
"355 453 OFFCURVE",
"394 411 OFFCURVE",
"394 312 CURVE SMOOTH",
"394 208 LINE SMOOTH",
"394 105 OFFCURVE",
"331 30 OFFCURVE",
"236 30 CURVE SMOOTH",
"158 30 OFFCURVE",
"110 75 OFFCURVE",
"110 139 CURVE SMOOTH",
"110 217 OFFCURVE",
"163 237 OFFCURVE",
"361 237 CURVE SMOOTH",
"404 237 LINE",
"404 274 LINE",
"359 274 LINE SMOOTH",
"136 274 OFFCURVE",
"64 243 OFFCURVE",
"64 135 CURVE SMOOTH",
"64 55 OFFCURVE",
"137 -8 OFFCURVE",
"233 -8 CURVE SMOOTH",
"335 -8 OFFCURVE",
"406 57 OFFCURVE",
"422 160 CURVE",
"404 160 LINE",
"430 50 OFFCURVE",
"508 -8 OFFCURVE",
"624 -8 CURVE SMOOTH",
"689 -8 OFFCURVE",
"760 18 OFFCURVE",
"801 60 CURVE",
"781 94 LINE",
"729 50 OFFCURVE",
"679 31 OFFCURVE",
"620 31 CURVE SMOOTH",
"502 31 OFFCURVE",
"437 109 OFFCURVE",
"437 243 CURVE SMOOTH",
"437 250 LINE SMOOTH",
"437 373 OFFCURVE",
"505 454 OFFCURVE",
"612 454 CURVE SMOOTH",
"716 454 OFFCURVE",
"770 380 OFFCURVE",
"770 263 CURVE",
"786 274 LINE",
"428 274 LINE",
"428 237 LINE"
);
}
);
};
layerId = "F1F93986-3ED8-4AAE-84C4-CA3EEECDDFA0";
paths = (
{
closed = 1;
nodes = (
"335 -8 OFFCURVE",
"406 57 OFFCURVE",
"422 160 CURVE",
"404 160 LINE",
"430 50 OFFCURVE",
"508 -8 OFFCURVE",
"624 -8 CURVE SMOOTH",
"689 -8 OFFCURVE",
"760 18 OFFCURVE",
"801 60 CURVE",
"781 94 LINE",
"729 50 OFFCURVE",
"679 31 OFFCURVE",
"620 31 CURVE SMOOTH",
"502 31 OFFCURVE",
"437 109 OFFCURVE",
"437 243 CURVE SMOOTH",
"437 250 LINE SMOOTH",
"437 373 OFFCURVE",
"505 454 OFFCURVE",
"612 454 CURVE SMOOTH",
"716 454 OFFCURVE",
"770 380 OFFCURVE",
"770 263 CURVE",
"786 274 LINE",
"428 274 LINE",
"428 237 LINE",
"809 237 LINE",
"809 260 LINE SMOOTH",
"809 405 OFFCURVE",
"736 492 OFFCURVE",
"616 492 CURVE SMOOTH",
"520 492 OFFCURVE",
"449 443 OFFCURVE",
"416 354 CURVE",
"436 354 LINE",
"423 444 OFFCURVE",
"372 492 OFFCURVE",
"271 492 CURVE SMOOTH",
"204 492 OFFCURVE",
"135 470 OFFCURVE",
"84 434 CURVE",
"104 399 LINE",
"161 438 OFFCURVE",
"211 453 OFFCURVE",
"273 453 CURVE SMOOTH",
"355 453 OFFCURVE",
"394 411 OFFCURVE",
"394 312 CURVE SMOOTH",
"394 208 LINE SMOOTH",
"394 105 OFFCURVE",
"331 30 OFFCURVE",
"236 30 CURVE SMOOTH",
"158 30 OFFCURVE",
"110 75 OFFCURVE",
"110 139 CURVE SMOOTH",
"110 217 OFFCURVE",
"163 237 OFFCURVE",
"361 237 CURVE SMOOTH",
"404 237 LINE",
"404 274 LINE",
"359 274 LINE SMOOTH",
"136 274 OFFCURVE",
"64 243 OFFCURVE",
"64 135 CURVE SMOOTH",
"64 55 OFFCURVE",
"137 -8 OFFCURVE",
"233 -8 CURVE SMOOTH"
);
}
);
width = 857;
},
{
anchors = (
{
name = bottom;
position = "{414, 0}";
},
{
name = top;
position = "{414, 484}";
}
);
background = {
anchors = (
{
name = bottom;
position = "{414, 0}";
},
{
name = top;
position = "{414, 484}";
}
);
paths = (
{
closed = 1;
nodes = (
"853 206 LINE",
"853 246 LINE SMOOTH",
"853 404 OFFCURVE",
"754 506 OFFCURVE",
"601 506 CURVE SMOOTH",
"532 506 OFFCURVE",
"474 486 OFFCURVE",
"431 439 CURVE",
"472 439 LINE",
"434 488 OFFCURVE",
"361 506 OFFCURVE",
"279 506 CURVE SMOOTH",
"201 506 OFFCURVE",
"93 479 OFFCURVE",
"42 444 CURVE",
"93 309 LINE",
"152 341 OFFCURVE",
"219 356 OFFCURVE",
"269 356 CURVE SMOOTH",
"319 356 OFFCURVE",
"337 343 OFFCURVE",
"337 309 CURVE SMOOTH",
"337 192 LINE SMOOTH",
"337 148 OFFCURVE",
"309 121 OFFCURVE",
"270 121 CURVE SMOOTH",
"235 121 OFFCURVE",
"219 138 OFFCURVE",
"219 162 CURVE SMOOTH",
"219 189 OFFCURVE",
"250 206 OFFCURVE",
"302 206 CURVE SMOOTH",
"353 206 LINE",
"353 297 LINE",
"308 297 LINE SMOOTH",
"101 297 OFFCURVE",
"22 261 OFFCURVE",
"22 154 CURVE SMOOTH",
"22 58 OFFCURVE",
"102 -12 OFFCURVE",
"238 -12 CURVE SMOOTH",
"335 -12 OFFCURVE",
"401 26 OFFCURVE",
"430 98 CURVE",
"402 98 LINE",
"444 25 OFFCURVE",
"529 -12 OFFCURVE",
"638 -12 CURVE SMOOTH",
"711 -12 OFFCURVE",
"791 10 OFFCURVE",
"845 45 CURVE",
"795 181 LINE",
"754 155 OFFCURVE",
"697 139 OFFCURVE",
"646 139 CURVE SMOOTH",
"563 139 OFFCURVE",
"534 168 OFFCURVE",
"534 256 CURVE SMOOTH",
"534 263 LINE SMOOTH",
"534 341 OFFCURVE",
"560 373 OFFCURVE",
"611 373 CURVE SMOOTH",
"658 373 OFFCURVE",
"683 347 OFFCURVE",
"683 286 CURVE",
"698 297 LINE",
"525 297 LINE",
"525 206 LINE"
);
}
);
};
layerId = "4121B50C-FD42-45C5-8FBE-41E76D98F91E";
paths = (
{
closed = 1;
nodes = (
"335 -12 OFFCURVE",
"401 26 OFFCURVE",
"430 98 CURVE",
"402 98 LINE",
"444 25 OFFCURVE",
"529 -12 OFFCURVE",
"638 -12 CURVE SMOOTH",
"711 -12 OFFCURVE",
"791 10 OFFCURVE",
"845 45 CURVE",
"795 181 LINE",
"754 155 OFFCURVE",
"697 139 OFFCURVE",
"646 139 CURVE SMOOTH",
"563 139 OFFCURVE",
"534 168 OFFCURVE",
"534 256 CURVE SMOOTH",
"534 263 LINE SMOOTH",
"534 341 OFFCURVE",
"560 373 OFFCURVE",
"611 373 CURVE SMOOTH",
"658 373 OFFCURVE",
"683 347 OFFCURVE",
"683 286 CURVE",
"698 297 LINE",
"525 297 LINE",
"525 206 LINE",
"853 206 LINE",
"853 246 LINE SMOOTH",
"853 404 OFFCURVE",
"754 506 OFFCURVE",
"601 506 CURVE SMOOTH",
"532 506 OFFCURVE",
"474 486 OFFCURVE",
"431 439 CURVE",
"472 439 LINE",
"434 488 OFFCURVE",
"361 506 OFFCURVE",
"279 506 CURVE SMOOTH",
"201 506 OFFCURVE",
"93 479 OFFCURVE",
"42 444 CURVE",
"93 309 LINE",
"152 341 OFFCURVE",
"219 356 OFFCURVE",
"269 356 CURVE SMOOTH",
"319 356 OFFCURVE",
"337 343 OFFCURVE",
"337 309 CURVE SMOOTH",
"337 192 LINE SMOOTH",
"337 148 OFFCURVE",
"309 121 OFFCURVE",
"270 121 CURVE SMOOTH",
"235 121 OFFCURVE",
"219 138 OFFCURVE",
"219 162 CURVE SMOOTH",
"219 189 OFFCURVE",
"250 206 OFFCURVE",
"302 206 CURVE SMOOTH",
"353 206 LINE",
"353 297 LINE",
"308 297 LINE SMOOTH",
"101 297 OFFCURVE",
"22 261 OFFCURVE",
"22 154 CURVE SMOOTH",
"22 58 OFFCURVE",
"102 -12 OFFCURVE",
"238 -12 CURVE SMOOTH"
);
}
);
width = 873;
}
);
leftKerningGroup = a;
leftMetricsKey = a;
rightKerningGroup = e;
rightMetricsKey = e;
unicode = 00E6;
userData = {
com.typemytype.robofont.layerData = {
b = {
anchors = (
);
components = (
);
contours = (
);
lib = {
};
name = ae;
unicodes = (
);
width = 1734;
};
};
};
},
{
glyphname = a.ss01;
lastChange = "2019-10-21 09:53:17 +0000";
layers = (
{
anchors = (
{
name = bottom;
position = "{280, 0}";
},
{
name = ogonek;
position = "{483, 0}";
},
{
name = top;
position = "{280, 484}";
}
);
background = {
anchors = (
{
name = bottom;
position = "{280, 0}";
},
{
name = ogonek;
position = "{483, 0}";
},
{
name = top;
position = "{280, 484}";
}
);
paths = (
{
closed = 1;
nodes = (
"1061 -8 OFFCURVE",
"1130 44 OFFCURVE",
"1152 126 CURVE",
"1141 126 LINE",
"1141 0 LINE",
"1183 0 LINE",
"1183 484 LINE",
"1141 484 LINE",
"1141 358 LINE",
"1152 358 LINE",
"1130 440 OFFCURVE",
"1061 492 OFFCURVE",
"968 492 CURVE SMOOTH",
"836 492 OFFCURVE",
"753 395 OFFCURVE",
"753 242 CURVE SMOOTH",
"753 89 OFFCURVE",
"837 -8 OFFCURVE",
"968 -8 CURVE SMOOTH"
);
},
{
closed = 1;
nodes = (
"863 31 OFFCURVE",
"796 109 OFFCURVE",
"796 242 CURVE SMOOTH",
"796 375 OFFCURVE",
"863 453 OFFCURVE",
"969 453 CURVE SMOOTH",
"1075 453 OFFCURVE",
"1142 375 OFFCURVE",
"1142 242 CURVE SMOOTH",
"1142 109 OFFCURVE",
"1075 31 OFFCURVE",
"969 31 CURVE SMOOTH"
);
},
{
closed = 1;
nodes = (
"371 -7 OFFCURVE",
"438 42 OFFCURVE",
"461 132 CURVE",
"449 140 LINE",
"449 0 LINE",
"503 0 LINE",
"503 501 LINE",
"449 501 LINE",
"449 366 LINE",
"461 375 LINE",
"438 464 OFFCURVE",
"371 513 OFFCURVE",
"275 513 CURVE SMOOTH",
"142 513 OFFCURVE",
"52 409 OFFCURVE",
"52 251 CURVE SMOOTH",
"52 94 OFFCURVE",
"140 -7 OFFCURVE",
"275 -7 CURVE SMOOTH"
);
},
{
closed = 1;
nodes = (
"173 42 OFFCURVE",
"109 118 OFFCURVE",
"109 251 CURVE SMOOTH",
"109 385 OFFCURVE",
"173 464 OFFCURVE",
"280 464 CURVE SMOOTH",
"388 464 OFFCURVE",
"449 388 OFFCURVE",
"449 253 CURVE SMOOTH",
"449 119 OFFCURVE",
"388 42 OFFCURVE",
"281 42 CURVE SMOOTH"
);
}
);
};
layerId = "F1F93986-3ED8-4AAE-84C4-CA3EEECDDFA0";
paths = (
{
closed = 1;
nodes = (
"361 -8 OFFCURVE",
"430 44 OFFCURVE",
"452 126 CURVE",
"441 126 LINE",
"441 0 LINE",
"483 0 LINE",
"483 484 LINE",
"441 484 LINE",
"441 358 LINE",
"452 358 LINE",
"430 440 OFFCURVE",
"361 492 OFFCURVE",
"268 492 CURVE SMOOTH",
"136 492 OFFCURVE",
"53 395 OFFCURVE",
"53 242 CURVE SMOOTH",
"53 89 OFFCURVE",
"137 -8 OFFCURVE",
"268 -8 CURVE SMOOTH"
);
},
{
closed = 1;
nodes = (
"163 31 OFFCURVE",
"96 109 OFFCURVE",
"96 242 CURVE SMOOTH",
"96 375 OFFCURVE",
"163 453 OFFCURVE",
"269 453 CURVE SMOOTH",
"375 453 OFFCURVE",
"442 375 OFFCURVE",
"442 242 CURVE SMOOTH",
"442 109 OFFCURVE",
"375 31 OFFCURVE",
"269 31 CURVE SMOOTH"
);
}
);
width = 568;
},
{
anchors = (
{
name = bottom;
position = "{315, 0}";
},
{
name = ogonek;
position = "{518, 0}";
},
{
name = top;
position = "{315, 484}";
}
);
background = {
anchors = (
{
name = bottom;
position = "{315, 0}";
},
{
name = ogonek;
position = "{518, 0}";
},
{
name = top;
position = "{315, 484}";
}
);
paths = (
{
closed = 1;
nodes = (
"311 -12 OFFCURVE",
"376 26 OFFCURVE",
"394 81 CURVE",
"383 81 LINE",
"383 0 LINE",
"588 0 LINE",
"588 494 LINE",
"383 494 LINE",
"383 421 LINE",
"392 421 LINE",
"372 470 OFFCURVE",
"308 506 OFFCURVE",
"239 506 CURVE SMOOTH",
"113 506 OFFCURVE",
"24 408 OFFCURVE",
"24 247 CURVE SMOOTH",
"24 86 OFFCURVE",
"114 -12 OFFCURVE",
"239 -12 CURVE SMOOTH"
);
},
{
closed = 1;
nodes = (
"265 140 OFFCURVE",
"233 168 OFFCURVE",
"233 247 CURVE SMOOTH",
"233 326 OFFCURVE",
"265 354 OFFCURVE",
"308 354 CURVE SMOOTH",
"351 354 OFFCURVE",
"383 326 OFFCURVE",
"383 247 CURVE SMOOTH",
"383 168 OFFCURVE",
"351 140 OFFCURVE",
"308 140 CURVE SMOOTH"
);
}
);
};
layerId = "4121B50C-FD42-45C5-8FBE-41E76D98F91E";
paths = (
{
closed = 1;
nodes = (
"311 -12 OFFCURVE",
"376 26 OFFCURVE",
"394 81 CURVE",
"383 81 LINE",
"383 0 LINE",
"588 0 LINE",
"588 494 LINE",
"383 494 LINE",
"383 421 LINE",
"392 421 LINE",
"372 470 OFFCURVE",
"308 506 OFFCURVE",
"239 506 CURVE SMOOTH",
"113 506 OFFCURVE",
"24 408 OFFCURVE",
"24 247 CURVE SMOOTH",
"24 86 OFFCURVE",
"114 -12 OFFCURVE",
"239 -12 CURVE SMOOTH"
);
},
{
closed = 1;
nodes = (
"265 140 OFFCURVE",
"233 168 OFFCURVE",
"233 247 CURVE SMOOTH",
"233 326 OFFCURVE",
"265 354 OFFCURVE",
"308 354 CURVE SMOOTH",
"351 354 OFFCURVE",
"383 326 OFFCURVE",
"383 247 CURVE SMOOTH",
"383 168 OFFCURVE",
"351 140 OFFCURVE",
"308 140 CURVE SMOOTH"
);
}
);
width = 632;
}
);
leftKerningGroup = o;
leftMetricsKey = o;
rightKerningGroup = u;
rightMetricsKey = "=|n";
userData = {
anchors = (
);
b = {
};
com.typemytype.robofont.layerData = {
b = {
anchors = (
);
components = (
);
contours = (
);
lib = {
};
name = p;
unicodes = (
);
width = 1181;
};
};
components = (
);
contours = (
);
lib = {
};
name = p;
unicodes = (
);
width = 1207;
};
},
{
glyphname = b;
lastChange = "2019-10-21 09:53:17 +0000";
layers = (
{
anchors = (
{
name = bottom;
position = "{310, 0}";
},
{
name = top;
position = "{300, 705}";
}
);
background = {
anchors = (
{
name = bottom;
position = "{310, 0}";
},
{
name = top;
position = "{300, 705}";
}
);
paths = (
{
closed = 1;
nodes = (
"431 -8 OFFCURVE",
"515 89 OFFCURVE",
"515 242 CURVE SMOOTH",
"515 395 OFFCURVE",
"432 492 OFFCURVE",
"300 492 CURVE SMOOTH",
"207 492 OFFCURVE",
"138 440 OFFCURVE",
"116 358 CURVE",
"127 358 LINE",
"127 705 LINE",
"85 705 LINE",
"85 0 LINE",
"127 0 LINE",
"127 126 LINE",
"116 126 LINE",
"138 44 OFFCURVE",
"207 -8 OFFCURVE",
"300 -8 CURVE SMOOTH"
);
},
{
closed = 1;
nodes = (
"193 31 OFFCURVE",
"126 109 OFFCURVE",
"126 242 CURVE SMOOTH",
"126 375 OFFCURVE",
"193 453 OFFCURVE",
"299 453 CURVE SMOOTH",
"405 453 OFFCURVE",
"472 375 OFFCURVE",
"472 242 CURVE SMOOTH",
"472 109 OFFCURVE",
"405 31 OFFCURVE",
"299 31 CURVE SMOOTH"
);
}
);
};
layerId = "F1F93986-3ED8-4AAE-84C4-CA3EEECDDFA0";
paths = (
{
closed = 1;
nodes = (
"431 -8 OFFCURVE",
"515 89 OFFCURVE",
"515 242 CURVE SMOOTH",
"515 395 OFFCURVE",
"432 492 OFFCURVE",
"300 492 CURVE SMOOTH",
"207 492 OFFCURVE",
"138 440 OFFCURVE",
"116 358 CURVE",
"127 358 LINE",
"127 705 LINE",
"85 705 LINE",
"85 0 LINE",
"127 0 LINE",
"127 126 LINE",
"116 126 LINE",
"138 44 OFFCURVE",
"207 -8 OFFCURVE",
"300 -8 CURVE SMOOTH"
);
},
{
closed = 1;
nodes = (
"193 31 OFFCURVE",
"126 109 OFFCURVE",
"126 242 CURVE SMOOTH",
"126 375 OFFCURVE",
"193 453 OFFCURVE",
"299 453 CURVE SMOOTH",
"405 453 OFFCURVE",
"472 375 OFFCURVE",
"472 242 CURVE SMOOTH",
"472 109 OFFCURVE",
"405 31 OFFCURVE",
"299 31 CURVE SMOOTH"
);
}
);
width = 568;
},
{
anchors = (
{
name = bottom;
position = "{303, 0}";
},
{
name = top;
position = "{326, 705}";
}
);
background = {
anchors = (
{
name = bottom;
position = "{303, 0}";
},
{
name = top;
position = "{326, 705}";
}
);
paths = (
{
closed = 1;
nodes = (
"518 -12 OFFCURVE",
"608 86 OFFCURVE",
"608 247 CURVE SMOOTH",
"608 408 OFFCURVE",
"519 506 OFFCURVE",
"393 506 CURVE SMOOTH",
"324 506 OFFCURVE",
"260 470 OFFCURVE",
"240 421 CURVE",
"252 421 LINE",
"252 705 LINE",
"44 705 LINE",
"44 0 LINE",
"249 0 LINE",
"249 81 LINE",
"238 81 LINE",
"256 26 OFFCURVE",
"321 -12 OFFCURVE",
"393 -12 CURVE SMOOTH"
);
},
{
closed = 1;
nodes = (
"281 140 OFFCURVE",
"249 168 OFFCURVE",
"249 247 CURVE SMOOTH",
"249 326 OFFCURVE",
"281 354 OFFCURVE",
"324 354 CURVE SMOOTH",
"367 354 OFFCURVE",
"399 326 OFFCURVE",
"399 247 CURVE SMOOTH",
"399 168 OFFCURVE",
"367 140 OFFCURVE",
"324 140 CURVE SMOOTH"
);
}
);
};
layerId = "4121B50C-FD42-45C5-8FBE-41E76D98F91E";
paths = (
{
closed = 1;
nodes = (
"518 -12 OFFCURVE",
"608 86 OFFCURVE",
"608 247 CURVE SMOOTH",
"608 408 OFFCURVE",
"519 506 OFFCURVE",
"393 506 CURVE SMOOTH",
"324 506 OFFCURVE",
"260 470 OFFCURVE",
"240 421 CURVE",
"252 421 LINE",
"252 705 LINE",
"44 705 LINE",
"44 0 LINE",
"249 0 LINE",
"249 81 LINE",
"238 81 LINE",
"256 26 OFFCURVE",
"321 -12 OFFCURVE",
"393 -12 CURVE SMOOTH"
);
},
{
closed = 1;
nodes = (
"281 140 OFFCURVE",
"249 168 OFFCURVE",
"249 247 CURVE SMOOTH",
"249 326 OFFCURVE",
"281 354 OFFCURVE",
"324 354 CURVE SMOOTH",
"367 354 OFFCURVE",
"399 326 OFFCURVE",
"399 247 CURVE SMOOTH",
"399 168 OFFCURVE",
"367 140 OFFCURVE",
"324 140 CURVE SMOOTH"
);
}
);
width = 632;
}
);
leftKerningGroup = h;
leftMetricsKey = n;
rightKerningGroup = o;
rightMetricsKey = o;
unicode = 0062;
userData = {
anchors = (
);
b = {
};
com.typemytype.robofont.layerData = {
b = {
anchors = (
);
components = (
);
contours = (
{
points = (
{
segmentType = curve;
smooth = 1;
x = 238;
y = 1425;
},
{
smooth = 0;
x = 198;
y = 1425;
},
{
smooth = 0;
x = 158;
y = 1400;
},
{
segmentType = curve;
smooth = 1;
x = 158;
y = 1351;
},
{
segmentType = line;
smooth = 1;
x = 158;
y = 76;
},
{
smooth = 0;
x = 158;
y = 27;
},
{
smooth = 0;
x = 197;
y = 3;
},
{
segmentType = curve;
smooth = 1;
x = 237;
y = 3;
},
{
smooth = 0;
x = 297;
y = 3;
},
{
smooth = 0;
x = 318;
y = 38;
},
{
segmentType = curve;
smooth = 1;
x = 318;
y = 76;
},
{
segmentType = line;
smooth = 0;
x = 318;
y = 183;
},
{
smooth = 0;
x = 384;
y = 46;
},
{
smooth = 0;
x = 516;
y = "-20";
},
{
segmentType = curve;
smooth = 1;
x = 666;
y = "-20";
},
{
smooth = 0;
x = 957;
y = "-20";
},
{
smooth = 0;
x = 1095;
y = 225;
},
{
segmentType = curve;
smooth = 1;
x = 1095;
y = 502;
},
{
smooth = 0;
x = 1095;
y = 777;
},
{
smooth = 0;
x = 939;
y = 1013;
},
{
segmentType = curve;
smooth = 1;
x = 650;
y = 1013;
},
{
smooth = 0;
x = 503;
y = 1013;
},
{
smooth = 0;
x = 376;
y = 942;
},
{
segmentType = curve;
smooth = 0;
x = 318;
y = 814;
},
{
segmentType = line;
smooth = 1;
x = 318;
y = 1351;
},
{
smooth = 0;
x = 318;
y = 1400;
},
{
smooth = 0;
x = 278;
y = 1425;
}
);
},
{
points = (
{
segmentType = curve;
smooth = 1;
x = 632;
y = 903;
},
{
smooth = 0;
x = 859;
y = 903;
},
{
smooth = 0;
x = 935;
y = 685;
},
{
segmentType = curve;
smooth = 1;
x = 935;
y = 496;
},
{
smooth = 0;
x = 935;
y = 316;
},
{
smooth = 0;
x = 869;
y = 93;
},
{
segmentType = curve;
smooth = 0;
x = 645;
y = 90;
},
{
smooth = 0;
x = 395;
y = 90;
},
{
smooth = 0;
x = 319;
y = 279;
},
{
segmentType = curve;
smooth = 1;
x = 319;
y = 501;
},
{
smooth = 0;
x = 319;
y = 701;
},
{
smooth = 0;
x = 407;
y = 903;
}
);
}
);
lib = {
};
name = b;
unicodes = (
);
width = 1181;
};
};
components = (
);
contours = (
);
lib = {
};
name = b;
unicodes = (
);
width = 1203;
};
},
{
glyphname = c;
lastChange = "2019-10-21 09:53:17 +0000";
layers = (
{
anchors = (
{
name = bottom;
position = "{273, 0}";
},
{
name = top;
position = "{273, 484}";
}
);
background = {
anchors = (
{
name = bottom;
position = "{273, 0}";
},
{
name = top;
position = "{273, 484}";
}
);
paths = (
{
closed = 1;
nodes = (
"330 -8 OFFCURVE",
"392 17 OFFCURVE",
"430 58 CURVE",
"410 91 LINE",
"367 48 OFFCURVE",
"317 31 OFFCURVE",
"273 31 CURVE SMOOTH",
"159 31 OFFCURVE",
"96 112 OFFCURVE",
"96 245 CURVE SMOOTH",
"96 378 OFFCURVE",
"159 453 OFFCURVE",
"273 453 CURVE SMOOTH",
"317 453 OFFCURVE",
"367 436 OFFCURVE",
"410 393 CURVE",
"430 426 LINE",
"392 467 OFFCURVE",
"332 492 OFFCURVE",
"274 492 CURVE SMOOTH",
"136 492 OFFCURVE",
"53 398 OFFCURVE",
"53 246 CURVE SMOOTH",
"53 94 OFFCURVE",
"136 -8 OFFCURVE",
"274 -8 CURVE SMOOTH"
);
}
);
};
guideLines = (
{
angle = 90;
position = "{429, 199}";
}
);
layerId = "F1F93986-3ED8-4AAE-84C4-CA3EEECDDFA0";
paths = (
{
closed = 1;
nodes = (
"330 -8 OFFCURVE",
"392 17 OFFCURVE",
"430 58 CURVE",
"410 91 LINE",
"367 48 OFFCURVE",
"317 31 OFFCURVE",
"273 31 CURVE SMOOTH",
"159 31 OFFCURVE",
"96 112 OFFCURVE",
"96 245 CURVE SMOOTH",
"96 378 OFFCURVE",
"159 453 OFFCURVE",
"273 453 CURVE SMOOTH",
"317 453 OFFCURVE",
"367 436 OFFCURVE",
"410 393 CURVE",
"430 426 LINE",
"392 467 OFFCURVE",
"332 492 OFFCURVE",
"274 492 CURVE SMOOTH",
"136 492 OFFCURVE",
"53 398 OFFCURVE",
"53 246 CURVE SMOOTH",
"53 94 OFFCURVE",
"136 -8 OFFCURVE",
"274 -8 CURVE SMOOTH"
);
}
);
width = 455;
},
{
anchors = (
{
name = bottom;
position = "{294, 0}";
},
{
name = top;
position = "{294, 484}";
}
);
background = {
anchors = (
{
name = bottom;
position = "{294, 0}";
},
{
name = top;
position = "{294, 484}";
}
);
paths = (
{
closed = 1;
nodes = (
"376 -12 OFFCURVE",
"450 6 OFFCURVE",
"492 36 CURVE",
"438 178 LINE",
"411 158 OFFCURVE",
"367 143 OFFCURVE",
"333 143 CURVE SMOOTH",
"272 143 OFFCURVE",
"237 181 OFFCURVE",
"237 247 CURVE SMOOTH",
"237 313 OFFCURVE",
"272 351 OFFCURVE",
"333 351 CURVE SMOOTH",
"368 351 OFFCURVE",
"411 336 OFFCURVE",
"438 316 CURVE",
"492 458 LINE",
"450 488 OFFCURVE",
"376 506 OFFCURVE",
"310 506 CURVE SMOOTH",
"137 506 OFFCURVE",
"24 408 OFFCURVE",
"24 247 CURVE SMOOTH",
"24 86 OFFCURVE",
"137 -12 OFFCURVE",
"310 -12 CURVE SMOOTH"
);
}
);
};
layerId = "4121B50C-FD42-45C5-8FBE-41E76D98F91E";
paths = (
{
closed = 1;
nodes = (
"376 -12 OFFCURVE",
"450 6 OFFCURVE",
"492 36 CURVE",
"438 178 LINE",
"411 158 OFFCURVE",
"367 143 OFFCURVE",
"333 143 CURVE SMOOTH",
"272 143 OFFCURVE",
"237 181 OFFCURVE",
"237 247 CURVE SMOOTH",
"237 313 OFFCURVE",
"272 351 OFFCURVE",
"333 351 CURVE SMOOTH",
"368 351 OFFCURVE",
"411 336 OFFCURVE",
"438 316 CURVE",
"492 458 LINE",
"450 488 OFFCURVE",
"376 506 OFFCURVE",
"310 506 CURVE SMOOTH",
"137 506 OFFCURVE",
"24 408 OFFCURVE",
"24 247 CURVE SMOOTH",
"24 86 OFFCURVE",
"137 -12 OFFCURVE",
"310 -12 CURVE SMOOTH"
);
}
);
width = 491;
}
);
leftKerningGroup = o;
leftMetricsKey = o;
rightKerningGroup = c;
unicode = 0063;
userData = {
anchors = (
);
b = {
};
com.typemytype.robofont.layerData = {
b = {
anchors = (
);
components = (
);
contours = (
);
lib = {
};
name = c;
unicodes = (
);
width = 956.14099;
};
};
components = (
);
contours = (
);
lib = {
};
name = c;
unicodes = (
);
width = 992;
};
},
{
glyphname = d;
lastChange = "2019-10-21 09:53:17 +0000";
layers = (
{
anchors = (
{
name = bottom;
position = "{286, 0}";
},
{
name = center;
position = "{286, 245}";
},
{
name = stroke;
position = "{411, 580}";
},
{
name = top;
position = "{284, 705}";
},
{
name = topright;
position = "{533, 705}";
}
);
background = {
anchors = (
{
name = bottom;
position = "{286, 0}";
},
{
name = center;
position = "{286, 245}";
},
{
name = stroke;
position = "{411, 580}";
},
{
name = top;
position = "{284, 705}";
},
{
name = topright;
position = "{533, 705}";
}
);
paths = (
{
closed = 1;
nodes = (
"361 -8 OFFCURVE",
"430 44 OFFCURVE",
"452 126 CURVE",
"441 126 LINE",
"441 0 LINE",
"483 0 LINE",
"483 705 LINE",
"441 705 LINE",
"441 358 LINE",
"452 358 LINE",
"430 440 OFFCURVE",
"361 492 OFFCURVE",
"268 492 CURVE SMOOTH",
"136 492 OFFCURVE",
"53 395 OFFCURVE",
"53 242 CURVE SMOOTH",
"53 89 OFFCURVE",
"137 -8 OFFCURVE",
"268 -8 CURVE SMOOTH"
);
},
{
closed = 1;
nodes = (
"163 31 OFFCURVE",
"96 109 OFFCURVE",
"96 242 CURVE SMOOTH",
"96 375 OFFCURVE",
"163 453 OFFCURVE",
"269 453 CURVE SMOOTH",
"375 453 OFFCURVE",
"442 375 OFFCURVE",
"442 242 CURVE SMOOTH",
"442 109 OFFCURVE",
"375 31 OFFCURVE",
"269 31 CURVE SMOOTH"
);
}
);
};
layerId = "F1F93986-3ED8-4AAE-84C4-CA3EEECDDFA0";
paths = (
{
closed = 1;
nodes = (
"361 -8 OFFCURVE",
"430 44 OFFCURVE",
"452 126 CURVE",
"441 126 LINE",
"441 0 LINE",
"483 0 LINE",
"483 705 LINE",
"441 705 LINE",
"441 358 LINE",
"452 358 LINE",
"430 440 OFFCURVE",
"361 492 OFFCURVE",
"268 492 CURVE SMOOTH",
"136 492 OFFCURVE",
"53 395 OFFCURVE",
"53 242 CURVE SMOOTH",
"53 89 OFFCURVE",
"137 -8 OFFCURVE",
"268 -8 CURVE SMOOTH"
);
},
{
closed = 1;
nodes = (
"163 31 OFFCURVE",
"96 109 OFFCURVE",
"96 242 CURVE SMOOTH",
"96 375 OFFCURVE",
"163 453 OFFCURVE",
"269 453 CURVE SMOOTH",
"375 453 OFFCURVE",
"442 375 OFFCURVE",
"442 242 CURVE SMOOTH",
"442 109 OFFCURVE",
"375 31 OFFCURVE",
"269 31 CURVE SMOOTH"
);
}
);
width = 568;
},
{
anchors = (
{
name = bottom;
position = "{318, 0}";
},
{
name = center;
position = "{305, 247}";
},
{
name = stroke;
position = "{434, 595}";
},
{
name = top;
position = "{318, 705}";
},
{
name = topright;
position = "{618, 705}";
}
);
background = {
anchors = (
{
name = bottom;
position = "{318, 0}";
},
{
name = center;
position = "{305, 247}";
},
{
name = stroke;
position = "{434, 595}";
},
{
name = top;
position = "{318, 705}";
},
{
name = topright;
position = "{618, 705}";
}
);
paths = (
{
closed = 1;
nodes = (
"311 -12 OFFCURVE",
"376 26 OFFCURVE",
"394 81 CURVE",
"383 81 LINE",
"383 0 LINE",
"588 0 LINE",
"588 705 LINE",
"380 705 LINE",
"380 421 LINE",
"392 421 LINE",
"372 470 OFFCURVE",
"308 506 OFFCURVE",
"239 506 CURVE SMOOTH",
"113 506 OFFCURVE",
"24 408 OFFCURVE",
"24 247 CURVE SMOOTH",
"24 86 OFFCURVE",
"114 -12 OFFCURVE",
"239 -12 CURVE SMOOTH"
);
},
{
closed = 1;
nodes = (
"265 140 OFFCURVE",
"233 168 OFFCURVE",
"233 247 CURVE SMOOTH",
"233 326 OFFCURVE",
"265 354 OFFCURVE",
"308 354 CURVE SMOOTH",
"351 354 OFFCURVE",
"383 326 OFFCURVE",
"383 247 CURVE SMOOTH",
"383 168 OFFCURVE",
"351 140 OFFCURVE",
"308 140 CURVE SMOOTH"
);
}
);
};
layerId = "4121B50C-FD42-45C5-8FBE-41E76D98F91E";
paths = (
{
closed = 1;
nodes = (
"311 -12 OFFCURVE",
"376 26 OFFCURVE",
"394 81 CURVE",
"383 81 LINE",
"383 0 LINE",
"588 0 LINE",
"588 705 LINE",
"380 705 LINE",
"380 421 LINE",
"392 421 LINE",
"372 470 OFFCURVE",
"308 506 OFFCURVE",
"239 506 CURVE SMOOTH",
"113 506 OFFCURVE",
"24 408 OFFCURVE",
"24 247 CURVE SMOOTH",
"24 86 OFFCURVE",
"114 -12 OFFCURVE",
"239 -12 CURVE SMOOTH"
);
},
{
closed = 1;
nodes = (
"265 140 OFFCURVE",
"233 168 OFFCURVE",
"233 247 CURVE SMOOTH",
"233 326 OFFCURVE",
"265 354 OFFCURVE",
"308 354 CURVE SMOOTH",
"351 354 OFFCURVE",
"383 326 OFFCURVE",
"383 247 CURVE SMOOTH",
"383 168 OFFCURVE",
"351 140 OFFCURVE",
"308 140 CURVE SMOOTH"
);
}
);
width = 632;
}
);
leftKerningGroup = o;
leftMetricsKey = o;
rightKerningGroup = l;
rightMetricsKey = "=|n";
unicode = 0064;
userData = {
anchors = (
);
b = {
};
com.typemytype.robofont.layerData = {
b = {
anchors = (
);
components = (
);
contours = (
);
lib = {
};
name = d;
unicodes = (
);
width = 1181;
};
};
components = (
);
contours = (
);
lib = {
};
name = d;
unicodes = (
);
width = 1207;
};
},
{
glyphname = dcroat;
lastChange = "2019-10-21 09:53:17 +0000";
layers = (
{
background = {
paths = (
{
closed = 1;
nodes = (
"361 -8 OFFCURVE",
"430 44 OFFCURVE",
"452 126 CURVE",
"441 126 LINE",
"441 0 LINE",
"483 0 LINE",
"483 562 LINE",
"578 562 LINE",
"578 598 LINE",
"483 598 LINE",
"483 705 LINE",
"441 705 LINE",
"441 598 LINE",
"244 598 LINE",
"244 562 LINE",
"441 562 LINE",
"441 358 LINE",
"452 358 LINE",
"430 440 OFFCURVE",
"361 492 OFFCURVE",
"268 492 CURVE SMOOTH",
"136 492 OFFCURVE",
"53 395 OFFCURVE",
"53 242 CURVE SMOOTH",
"53 89 OFFCURVE",
"137 -8 OFFCURVE",
"268 -8 CURVE SMOOTH"
);
},
{
closed = 1;
nodes = (
"163 31 OFFCURVE",
"96 109 OFFCURVE",
"96 242 CURVE SMOOTH",
"96 375 OFFCURVE",
"163 453 OFFCURVE",
"269 453 CURVE SMOOTH",
"375 453 OFFCURVE",
"442 375 OFFCURVE",
"442 242 CURVE SMOOTH",
"442 109 OFFCURVE",
"375 31 OFFCURVE",
"269 31 CURVE SMOOTH"
);
}
);
};
layerId = "F1F93986-3ED8-4AAE-84C4-CA3EEECDDFA0";
paths = (
{
closed = 1;
nodes = (
"361 -8 OFFCURVE",
"430 44 OFFCURVE",
"452 126 CURVE",
"441 126 LINE",
"441 0 LINE",
"483 0 LINE",
"483 562 LINE",
"578 562 LINE",
"578 598 LINE",
"483 598 LINE",
"483 705 LINE",
"441 705 LINE",
"441 598 LINE",
"244 598 LINE",
"244 562 LINE",
"441 562 LINE",
"441 358 LINE",
"452 358 LINE",
"430 440 OFFCURVE",
"361 492 OFFCURVE",
"268 492 CURVE SMOOTH",
"136 492 OFFCURVE",
"53 395 OFFCURVE",
"53 242 CURVE SMOOTH",
"53 89 OFFCURVE",
"137 -8 OFFCURVE",
"268 -8 CURVE SMOOTH"
);
},
{
closed = 1;
nodes = (
"163 31 OFFCURVE",
"96 109 OFFCURVE",
"96 242 CURVE SMOOTH",
"96 375 OFFCURVE",
"163 453 OFFCURVE",
"269 453 CURVE SMOOTH",
"375 453 OFFCURVE",
"442 375 OFFCURVE",
"442 242 CURVE SMOOTH",
"442 109 OFFCURVE",
"375 31 OFFCURVE",
"269 31 CURVE SMOOTH"
);
}
);
width = 568;
},
{
background = {
paths = (
{
closed = 1;
nodes = (
"311 -12 OFFCURVE",
"374 25 OFFCURVE",
"392 77 CURVE",
"383 77 LINE",
"383 0 LINE",
"588 0 LINE",
"588 525 LINE",
"668 525 LINE",
"668 665 LINE",
"588 665 LINE",
"588 705 LINE",
"380 705 LINE",
"380 665 LINE",
"200 665 LINE",
"200 525 LINE",
"380 525 LINE",
"380 404 LINE",
"390 404 LINE",
"370 451 OFFCURVE",
"308 486 OFFCURVE",
"239 486 CURVE SMOOTH",
"113 486 OFFCURVE",
"24 392 OFFCURVE",
"24 237 CURVE SMOOTH",
"24 82 OFFCURVE",
"114 -12 OFFCURVE",
"239 -12 CURVE SMOOTH"
);
},
{
closed = 1;
nodes = (
"265 140 OFFCURVE",
"233 168 OFFCURVE",
"233 237 CURVE SMOOTH",
"233 306 OFFCURVE",
"265 334 OFFCURVE",
"308 334 CURVE SMOOTH",
"351 334 OFFCURVE",
"383 306 OFFCURVE",
"383 237 CURVE SMOOTH",
"383 168 OFFCURVE",
"351 140 OFFCURVE",
"308 140 CURVE SMOOTH"
);
}
);
};
layerId = "4121B50C-FD42-45C5-8FBE-41E76D98F91E";
paths = (
{
closed = 1;
nodes = (
"311 -12 OFFCURVE",
"374 25 OFFCURVE",
"392 77 CURVE",
"383 77 LINE",
"383 0 LINE",
"588 0 LINE",
"588 525 LINE",
"668 525 LINE",
"668 665 LINE",
"588 665 LINE",
"588 705 LINE",
"380 705 LINE",
"380 665 LINE",
"200 665 LINE",
"200 525 LINE",
"380 525 LINE",
"380 404 LINE",
"390 404 LINE",
"370 451 OFFCURVE",
"308 486 OFFCURVE",
"239 486 CURVE SMOOTH",
"113 486 OFFCURVE",
"24 392 OFFCURVE",
"24 237 CURVE SMOOTH",
"24 82 OFFCURVE",
"114 -12 OFFCURVE",
"239 -12 CURVE SMOOTH"
);
},
{
closed = 1;
nodes = (
"265 140 OFFCURVE",
"233 168 OFFCURVE",
"233 237 CURVE SMOOTH",
"233 306 OFFCURVE",
"265 334 OFFCURVE",
"308 334 CURVE SMOOTH",
"351 334 OFFCURVE",
"383 306 OFFCURVE",
"383 237 CURVE SMOOTH",
"383 168 OFFCURVE",
"351 140 OFFCURVE",
"308 140 CURVE SMOOTH"
);
}
);
width = 632;
}
);
leftKerningGroup = o;
rightKerningGroup = l;
unicode = 0111;
userData = {
com.typemytype.robofont.layerData = {
b = {
anchors = (
);
components = (
);
contours = (
);
lib = {
};
name = dcroat;
unicodes = (
);
width = 1181;
};
};
};
},
{
color = 0;
glyphname = eth;
lastChange = "2019-10-14 21:40:51 +0000";
layers = (
{
background = {
paths = (
{
closed = 1;
nodes = (
"413 -8 OFFCURVE",
"488 90 OFFCURVE",
"488 281 CURVE SMOOTH",
"488 503 OFFCURVE",
"380 644 OFFCURVE",
"165 710 CURVE",
"153 677 LINE",
"352 618 OFFCURVE",
"448 480 OFFCURVE",
"446 286 CURVE",
"465 286 LINE",
"440 399 OFFCURVE",
"374 454 OFFCURVE",
"272 454 CURVE SMOOTH",
"140 454 OFFCURVE",
"53 363 OFFCURVE",
"53 223 CURVE SMOOTH",
"53 83 OFFCURVE",
"138 -8 OFFCURVE",
"269 -8 CURVE SMOOTH"
);
},
{
closed = 1;
nodes = (
"160 31 OFFCURVE",
"96 101 OFFCURVE",
"96 223 CURVE SMOOTH",
"96 342 OFFCURVE",
"162 415 OFFCURVE",
"269 415 CURVE SMOOTH",
"376 415 OFFCURVE",
"442 342 OFFCURVE",
"442 223 CURVE SMOOTH",
"442 104 OFFCURVE",
"375 31 OFFCURVE",
"268 31 CURVE SMOOTH"
);
},
{
closed = 1;
nodes = (
"436 677 LINE",
"422 710 LINE",
"120 583 LINE",
"134 550 LINE"
);
}
);
};
layerId = "F1F93986-3ED8-4AAE-84C4-CA3EEECDDFA0";
paths = (
{
closed = 1;
nodes = (
"413 -8 OFFCURVE",
"488 90 OFFCURVE",
"488 281 CURVE SMOOTH",
"488 503 OFFCURVE",
"380 644 OFFCURVE",
"165 710 CURVE",
"153 677 LINE",
"352 618 OFFCURVE",
"448 480 OFFCURVE",
"446 286 CURVE",
"465 286 LINE",
"440 399 OFFCURVE",
"374 454 OFFCURVE",
"272 454 CURVE SMOOTH",
"140 454 OFFCURVE",
"53 363 OFFCURVE",
"53 223 CURVE SMOOTH",
"53 83 OFFCURVE",
"138 -8 OFFCURVE",
"269 -8 CURVE SMOOTH"
);
},
{
closed = 1;
nodes = (
"160 31 OFFCURVE",
"96 101 OFFCURVE",
"96 223 CURVE SMOOTH",
"96 342 OFFCURVE",
"162 415 OFFCURVE",
"269 415 CURVE SMOOTH",
"376 415 OFFCURVE",
"442 342 OFFCURVE",
"442 223 CURVE SMOOTH",
"442 104 OFFCURVE",
"375 31 OFFCURVE",
"268 31 CURVE SMOOTH"
);
},
{
closed = 1;
nodes = (
"436 677 LINE",
"422 710 LINE",
"120 583 LINE",
"134 550 LINE"
);
}
);
width = 541;
},
{
background = {
paths = (
{
closed = 1;
nodes = (
"489 -12 OFFCURVE",
"599 109 OFFCURVE",
"599 295 CURVE SMOOTH",
"599 453 OFFCURVE",
"466 678 OFFCURVE",
"144 719 CURVE",
"110 590 LINE",
"271 568 OFFCURVE",
"405 473 OFFCURVE",
"406 344 CURVE",
"440 344 LINE",
"409 419 OFFCURVE",
"355 445 OFFCURVE",
"276 445 CURVE SMOOTH",
"130 445 OFFCURVE",
"24 350 OFFCURVE",
"24 221 CURVE SMOOTH",
"24 85 OFFCURVE",
"137 -12 OFFCURVE",
"299 -12 CURVE SMOOTH"
);
},
{
closed = 1;
nodes = (
"262 142 OFFCURVE",
"233 172 OFFCURVE",
"233 220 CURVE SMOOTH",
"233 266 OFFCURVE",
"261 296 OFFCURVE",
"307 296 CURVE SMOOTH",
"357 296 OFFCURVE",
"381 266 OFFCURVE",
"381 220 CURVE SMOOTH",
"381 174 OFFCURVE",
"356 142 OFFCURVE",
"308 142 CURVE SMOOTH"
);
},
{
closed = 1;
nodes = (
"547 638 LINE",
"508 719 LINE",
"92 521 LINE",
"131 440 LINE"
);
}
);
};
layerId = "4121B50C-FD42-45C5-8FBE-41E76D98F91E";
paths = (
{
closed = 1;
nodes = (
"489 -12 OFFCURVE",
"599 109 OFFCURVE",
"599 295 CURVE SMOOTH",
"599 453 OFFCURVE",
"466 678 OFFCURVE",
"144 719 CURVE",
"110 590 LINE",
"271 568 OFFCURVE",
"405 473 OFFCURVE",
"406 344 CURVE",
"440 344 LINE",
"409 419 OFFCURVE",
"355 445 OFFCURVE",
"276 445 CURVE SMOOTH",
"130 445 OFFCURVE",
"24 350 OFFCURVE",
"24 221 CURVE SMOOTH",
"24 85 OFFCURVE",
"137 -12 OFFCURVE",
"299 -12 CURVE SMOOTH"
);
},
{
closed = 1;
nodes = (
"262 142 OFFCURVE",
"233 172 OFFCURVE",
"233 220 CURVE SMOOTH",
"233 266 OFFCURVE",
"261 296 OFFCURVE",
"307 296 CURVE SMOOTH",
"357 296 OFFCURVE",
"381 266 OFFCURVE",
"381 220 CURVE SMOOTH",
"381 174 OFFCURVE",
"356 142 OFFCURVE",
"308 142 CURVE SMOOTH"
);
},
{
closed = 1;
nodes = (
"547 638 LINE",
"508 719 LINE",
"92 521 LINE",
"131 440 LINE"
);
}
);
width = 620;
}
);
leftKerningGroup = o;
leftMetricsKey = o;
rightKerningGroup = o;
unicode = 00F0;
userData = {
com.typemytype.robofont.layerData = {
b = {
anchors = (
);
components = (
);
contours = (
);
lib = {
};
name = eth;
unicodes = (
);
width = 1230;
};
};
};
},
{
color = 0;
glyphname = e;
lastChange = "2019-10-14 21:40:51 +0000";
layers = (
{
anchors = (
{
name = bottom;
position = "{277, 0}";
},
{
name = ogonek;
position = "{342, 0}";
},
{
name = top;
position = "{277, 484}";
}
);
background = {
anchors = (
{
name = bottom;
position = "{277, 0}";
},
{
name = ogonek;
position = "{342, 0}";
},
{
name = top;
position = "{277, 484}";
}
);
paths = (
{
closed = 1;
nodes = (
"355 -8 OFFCURVE",
"426 18 OFFCURVE",
"467 60 CURVE",
"447 94 LINE",
"395 48 OFFCURVE",
"344 31 OFFCURVE",
"284 31 CURVE SMOOTH",
"165 31 OFFCURVE",
"96 107 OFFCURVE",
"96 240 CURVE SMOOTH",
"96 245 LINE SMOOTH",
"96 364 OFFCURVE",
"159 454 OFFCURVE",
"276 454 CURVE SMOOTH",
"382 454 OFFCURVE",
"436 380 OFFCURVE",
"436 259 CURVE",
"453 271 LINE",
"80 271 LINE",
"80 234 LINE",
"475 234 LINE",
"475 260 LINE SMOOTH",
"475 405 OFFCURVE",
"402 492 OFFCURVE",
"277 492 CURVE SMOOTH",
"144 492 OFFCURVE",
"53 391 OFFCURVE",
"53 240 CURVE SMOOTH",
"53 86 OFFCURVE",
"142 -8 OFFCURVE",
"286 -8 CURVE SMOOTH"
);
}
);
};
layerId = "F1F93986-3ED8-4AAE-84C4-CA3EEECDDFA0";
paths = (
{
closed = 1;
nodes = (
"355 -8 OFFCURVE",
"426 18 OFFCURVE",
"467 60 CURVE",
"447 94 LINE",
"395 48 OFFCURVE",
"344 31 OFFCURVE",
"284 31 CURVE SMOOTH",
"165 31 OFFCURVE",
"96 107 OFFCURVE",
"96 240 CURVE SMOOTH",
"96 245 LINE SMOOTH",
"96 364 OFFCURVE",
"159 454 OFFCURVE",
"276 454 CURVE SMOOTH",
"382 454 OFFCURVE",
"436 380 OFFCURVE",
"436 259 CURVE",
"453 271 LINE",
"80 271 LINE",
"80 234 LINE",
"475 234 LINE",
"475 260 LINE SMOOTH",
"475 405 OFFCURVE",
"402 492 OFFCURVE",
"277 492 CURVE SMOOTH",
"144 492 OFFCURVE",
"53 391 OFFCURVE",
"53 240 CURVE SMOOTH",
"53 86 OFFCURVE",
"142 -8 OFFCURVE",
"286 -8 CURVE SMOOTH"
);
}
);
width = 523;
},
{
anchors = (
{
name = bottom;
position = "{293, 0}";
},
{
name = ogonek;
position = "{401, 0}";
},
{
name = top;
position = "{293, 484}";
}
);
background = {
anchors = (
{
name = bottom;
position = "{293, 0}";
},
{
name = ogonek;
position = "{401, 0}";
},
{
name = top;
position = "{293, 484}";
}
);
paths = (
{
closed = 1;
nodes = (
"401 -12 OFFCURVE",
"481 10 OFFCURVE",
"535 45 CURVE",
"485 181 LINE",
"444 155 OFFCURVE",
"383 140 OFFCURVE",
"334 140 CURVE SMOOTH",
"253 140 OFFCURVE",
"218 168 OFFCURVE",
"218 255 CURVE SMOOTH",
"218 264 LINE SMOOTH",
"218 340 OFFCURVE",
"250 373 OFFCURVE",
"301 373 CURVE SMOOTH",
"346 373 OFFCURVE",
"373 347 OFFCURVE",
"373 286 CURVE",
"388 297 LINE",
"200 297 LINE",
"200 206 LINE",
"543 206 LINE",
"543 246 LINE SMOOTH",
"543 404 OFFCURVE",
"444 506 OFFCURVE",
"291 506 CURVE SMOOTH",
"137 506 OFFCURVE",
"24 399 OFFCURVE",
"24 248 CURVE SMOOTH",
"24 90 OFFCURVE",
"139 -12 OFFCURVE",
"328 -12 CURVE SMOOTH"
);
}
);
};
layerId = "4121B50C-FD42-45C5-8FBE-41E76D98F91E";
paths = (
{
closed = 1;
nodes = (
"401 -12 OFFCURVE",
"481 10 OFFCURVE",
"535 45 CURVE",
"485 181 LINE",
"444 155 OFFCURVE",
"383 140 OFFCURVE",
"334 140 CURVE SMOOTH",
"253 140 OFFCURVE",
"218 168 OFFCURVE",
"218 255 CURVE SMOOTH",
"218 264 LINE SMOOTH",
"218 340 OFFCURVE",
"250 373 OFFCURVE",
"301 373 CURVE SMOOTH",
"346 373 OFFCURVE",
"373 347 OFFCURVE",
"373 286 CURVE",
"388 297 LINE",
"200 297 LINE",
"200 206 LINE",
"543 206 LINE",
"543 246 LINE SMOOTH",
"543 404 OFFCURVE",
"444 506 OFFCURVE",
"291 506 CURVE SMOOTH",
"137 506 OFFCURVE",
"24 399 OFFCURVE",
"24 248 CURVE SMOOTH",
"24 90 OFFCURVE",
"139 -12 OFFCURVE",
"328 -12 CURVE SMOOTH"
);
}
);
width = 563;
}
);
leftKerningGroup = o;
leftMetricsKey = o;
rightKerningGroup = e;
unicode = 0065;
userData = {
anchors = (
);
b = {
};
com.typemytype.robofont.layerData = {
b = {
anchors = (
);
components = (
);
contours = (
);
lib = {
};
name = e;
unicodes = (
);
width = 1132;
};
};
components = (
);
contours = (
);
lib = {
};
name = e;
unicodes = (
);
width = 1132;
};
},
{
glyphname = f;
lastChange = "2019-10-21 09:53:17 +0000";
layers = (
{
anchors = (
{
name = bottom;
position = "{126, 0}";
},
{
name = top;
position = "{126, 705}";
}
);
background = {
anchors = (
{
name = bottom;
position = "{126, 0}";
},
{
name = top;
position = "{126, 705}";
}
);
paths = (
{
closed = 1;
nodes = (
"147 611 OFFCURVE",
"186 661 OFFCURVE",
"270 667 CURVE SMOOTH",
"316 670 LINE",
"311 707 LINE",
"280 705 LINE SMOOTH",
"162 698 OFFCURVE",
"105 636 OFFCURVE",
"105 515 CURVE SMOOTH",
"105 473 LINE",
"115 484 LINE",
"8 484 LINE",
"8 448 LINE",
"105 448 LINE",
"105 0 LINE",
"147 0 LINE",
"147 448 LINE",
"293 448 LINE",
"293 484 LINE",
"139 484 LINE",
"147 470 LINE",
"147 515 LINE SMOOTH"
);
}
);
};
layerId = "F1F93986-3ED8-4AAE-84C4-CA3EEECDDFA0";
paths = (
{
closed = 1;
nodes = (
"147 0 LINE",
"147 448 LINE",
"293 448 LINE",
"293 484 LINE",
"139 484 LINE",
"147 470 LINE",
"147 515 LINE SMOOTH",
"147 611 OFFCURVE",
"186 661 OFFCURVE",
"270 667 CURVE SMOOTH",
"316 670 LINE",
"311 707 LINE",
"280 705 LINE SMOOTH",
"162 698 OFFCURVE",
"105 636 OFFCURVE",
"105 515 CURVE SMOOTH",
"105 473 LINE",
"115 484 LINE",
"8 484 LINE",
"8 448 LINE",
"105 448 LINE",
"105 0 LINE"
);
}
);
width = 306;
},
{
anchors = (
{
name = bottom;
position = "{195, 0}";
},
{
name = top;
position = "{195, 705}";
}
);
background = {
anchors = (
{
name = bottom;
position = "{195, 0}";
},
{
name = top;
position = "{195, 705}";
}
);
paths = (
{
closed = 1;
nodes = (
"299 543 OFFCURVE",
"320 557 OFFCURVE",
"395 562 CURVE SMOOTH",
"442 565 LINE",
"431 712 LINE",
"364 708 LINE SMOOTH",
"176 698 OFFCURVE",
"91 622 OFFCURVE",
"91 464 CURVE SMOOTH",
"91 439 LINE",
"152 494 LINE",
"0 494 LINE",
"0 342 LINE",
"91 342 LINE",
"91 0 LINE",
"299 0 LINE",
"299 342 LINE",
"418 342 LINE",
"418 494 LINE",
"275 494 LINE",
"299 475 LINE",
"299 505 LINE SMOOTH"
);
}
);
};
layerId = "4121B50C-FD42-45C5-8FBE-41E76D98F91E";
paths = (
{
closed = 1;
nodes = (
"299 0 LINE",
"299 342 LINE",
"418 342 LINE",
"418 494 LINE",
"275 494 LINE",
"299 475 LINE",
"299 505 LINE SMOOTH",
"299 543 OFFCURVE",
"320 557 OFFCURVE",
"395 562 CURVE SMOOTH",
"442 565 LINE",
"431 712 LINE",
"364 708 LINE SMOOTH",
"176 698 OFFCURVE",
"91 622 OFFCURVE",
"91 464 CURVE SMOOTH",
"91 439 LINE",
"152 494 LINE",
"0 494 LINE",
"0 342 LINE",
"91 342 LINE",
"91 0 LINE"
);
}
);
width = 423;
}
);
leftKerningGroup = f;
rightKerningGroup = f;
unicode = 0066;
userData = {
anchors = (
);
b = {
};
com.typemytype.robofont.layerData = {
b = {
anchors = (
);
components = (
);
contours = (
);
lib = {
};
name = f;
unicodes = (
);
width = 696;
};
};
components = (
);
contours = (
);
lib = {
};
name = f;
unicodes = (
);
width = 723;
};
},
{
glyphname = g;
lastChange = "2019-10-21 09:53:17 +0000";
layers = (
{
anchors = (
{
name = top;
position = "{288, 484}";
}
);
background = {
anchors = (
{
name = top;
position = "{288, 484}";
}
);
paths = (
{
closed = 1;
nodes = (
"419 -188 OFFCURVE",
"485 -117 OFFCURVE",
"485 22 CURVE SMOOTH",
"485 484 LINE",
"443 484 LINE",
"443 355 LINE",
"454 355 LINE",
"435 440 OFFCURVE",
"363 492 OFFCURVE",
"271 492 CURVE SMOOTH",
"136 492 OFFCURVE",
"53 395 OFFCURVE",
"53 252 CURVE SMOOTH",
"53 109 OFFCURVE",
"136 11 OFFCURVE",
"271 11 CURVE SMOOTH",
"363 11 OFFCURVE",
"435 63 OFFCURVE",
"454 148 CURVE",
"444 148 LINE",
"444 15 LINE SMOOTH",
"444 -91 OFFCURVE",
"391 -149 OFFCURVE",
"291 -149 CURVE SMOOTH",
"216 -149 OFFCURVE",
"168 -132 OFFCURVE",
"105 -85 CURVE",
"85 -119 LINE",
"141 -165 OFFCURVE",
"210 -188 OFFCURVE",
"290 -188 CURVE SMOOTH"
);
},
{
closed = 1;
nodes = (
"163 50 OFFCURVE",
"96 129 OFFCURVE",
"96 252 CURVE SMOOTH",
"96 375 OFFCURVE",
"163 453 OFFCURVE",
"270 453 CURVE SMOOTH",
"377 453 OFFCURVE",
"444 375 OFFCURVE",
"444 252 CURVE SMOOTH",
"444 129 OFFCURVE",
"377 50 OFFCURVE",
"270 50 CURVE SMOOTH"
);
}
);
};
layerId = "F1F93986-3ED8-4AAE-84C4-CA3EEECDDFA0";
paths = (
{
closed = 1;
nodes = (
"419 -188 OFFCURVE",
"485 -117 OFFCURVE",
"485 22 CURVE SMOOTH",
"485 484 LINE",
"443 484 LINE",
"443 355 LINE",
"454 355 LINE",
"435 440 OFFCURVE",
"363 492 OFFCURVE",
"271 492 CURVE SMOOTH",
"136 492 OFFCURVE",
"53 395 OFFCURVE",
"53 252 CURVE SMOOTH",
"53 109 OFFCURVE",
"136 11 OFFCURVE",
"271 11 CURVE SMOOTH",
"363 11 OFFCURVE",
"435 63 OFFCURVE",
"454 148 CURVE",
"444 148 LINE",
"444 15 LINE SMOOTH",
"444 -91 OFFCURVE",
"391 -149 OFFCURVE",
"291 -149 CURVE SMOOTH",
"216 -149 OFFCURVE",
"168 -132 OFFCURVE",
"105 -85 CURVE",
"85 -119 LINE",
"141 -165 OFFCURVE",
"210 -188 OFFCURVE",
"290 -188 CURVE SMOOTH"
);
},
{
closed = 1;
nodes = (
"163 50 OFFCURVE",
"96 129 OFFCURVE",
"96 252 CURVE SMOOTH",
"96 375 OFFCURVE",
"163 453 OFFCURVE",
"270 453 CURVE SMOOTH",
"377 453 OFFCURVE",
"444 375 OFFCURVE",
"444 252 CURVE SMOOTH",
"444 129 OFFCURVE",
"377 50 OFFCURVE",
"270 50 CURVE SMOOTH"
);
}
);
width = 570;
},
{
anchors = (
{
name = top;
position = "{317, 484}";
}
);
background = {
anchors = (
{
name = top;
position = "{317, 484}";
}
);
paths = (
{
closed = 1;
nodes = (
"488 -192 OFFCURVE",
"594 -103 OFFCURVE",
"594 75 CURVE SMOOTH",
"594 494 LINE",
"389 494 LINE",
"389 421 LINE",
"398 421 LINE",
"378 470 OFFCURVE",
"314 506 OFFCURVE",
"243 506 CURVE SMOOTH",
"113 506 OFFCURVE",
"24 408 OFFCURVE",
"24 259 CURVE SMOOTH",
"24 110 OFFCURVE",
"113 13 OFFCURVE",
"243 13 CURVE SMOOTH",
"311 13 OFFCURVE",
"378 49 OFFCURVE",
"400 99 CURVE",
"392 99 LINE",
"392 52 LINE SMOOTH",
"392 -13 OFFCURVE",
"354 -40 OFFCURVE",
"276 -40 CURVE SMOOTH",
"224 -40 OFFCURVE",
"139 -22 OFFCURVE",
"90 6 CURVE",
"39 -134 LINE",
"102 -175 OFFCURVE",
"195 -192 OFFCURVE",
"297 -192 CURVE SMOOTH"
);
},
{
closed = 1;
nodes = (
"264 165 OFFCURVE",
"233 198 OFFCURVE",
"233 259 CURVE SMOOTH",
"233 320 OFFCURVE",
"264 354 OFFCURVE",
"311 354 CURVE SMOOTH",
"358 354 OFFCURVE",
"389 320 OFFCURVE",
"389 259 CURVE SMOOTH",
"389 198 OFFCURVE",
"358 165 OFFCURVE",
"311 165 CURVE SMOOTH"
);
}
);
};
layerId = "4121B50C-FD42-45C5-8FBE-41E76D98F91E";
paths = (
{
closed = 1;
nodes = (
"488 -192 OFFCURVE",
"594 -103 OFFCURVE",
"594 75 CURVE SMOOTH",
"594 494 LINE",
"389 494 LINE",
"389 421 LINE",
"398 421 LINE",
"378 470 OFFCURVE",
"314 506 OFFCURVE",
"243 506 CURVE SMOOTH",
"113 506 OFFCURVE",
"24 408 OFFCURVE",
"24 259 CURVE SMOOTH",
"24 110 OFFCURVE",
"113 13 OFFCURVE",
"243 13 CURVE SMOOTH",
"311 13 OFFCURVE",
"378 49 OFFCURVE",
"400 99 CURVE",
"392 99 LINE",
"392 52 LINE SMOOTH",
"392 -13 OFFCURVE",
"354 -40 OFFCURVE",
"276 -40 CURVE SMOOTH",
"224 -40 OFFCURVE",
"139 -22 OFFCURVE",
"90 6 CURVE",
"39 -134 LINE",
"102 -175 OFFCURVE",
"195 -192 OFFCURVE",
"297 -192 CURVE SMOOTH"
);
},
{
closed = 1;
nodes = (
"264 165 OFFCURVE",
"233 198 OFFCURVE",
"233 259 CURVE SMOOTH",
"233 320 OFFCURVE",
"264 354 OFFCURVE",
"311 354 CURVE SMOOTH",
"358 354 OFFCURVE",
"389 320 OFFCURVE",
"389 259 CURVE SMOOTH",
"389 198 OFFCURVE",
"358 165 OFFCURVE",
"311 165 CURVE SMOOTH"
);
}
);
width = 638;
}
);
leftKerningGroup = o;
leftMetricsKey = o;
rightKerningGroup = u;
rightMetricsKey = "=|n";
unicode = 0067;
userData = {
anchors = (
);
b = {
};
com.typemytype.robofont.layerData = {
b = {
anchors = (
);
components = (
);
contours = (
);
lib = {
};
name = g;
unicodes = (
);
width = 1167;
};
};
components = (
);
contours = (
);
lib = {
};
name = g;
unicodes = (
);
width = 1207;
};
},
{
glyphname = h;
lastChange = "2019-10-21 09:53:17 +0000";
layers = (
{
anchors = (
{
name = bottom;
position = "{277, 0}";
},
{
name = center;
position = "{277, 245}";
},
{
name = dot;
position = "{204, 353}";
},
{
name = stroke;
position = "{157, 580}";
},
{
name = top;
position = "{278, 705}";
},
{
name = topright;
position = "{169, 705}";
}
);
background = {
anchors = (
{
name = bottom;
position = "{277, 0}";
},
{
name = center;
position = "{277, 245}";
},
{
name = dot;
position = "{204, 353}";
},
{
name = stroke;
position = "{157, 580}";
},
{
name = top;
position = "{278, 705}";
},
{
name = topright;
position = "{169, 705}";
}
);
paths = (
{
closed = 1;
nodes = (
"212 492 OFFCURVE",
"141 450 OFFCURVE",
"115 366 CURVE",
"127 366 LINE",
"127 705 LINE",
"85 705 LINE",
"85 0 LINE",
"127 0 LINE",
"127 278 LINE SMOOTH",
"127 384 OFFCURVE",
"194 453 OFFCURVE",
"297 453 CURVE SMOOTH",
"389 453 OFFCURVE",
"428 406 OFFCURVE",
"428 304 CURVE SMOOTH",
"428 0 LINE",
"470 0 LINE",
"470 308 LINE SMOOTH",
"470 430 OFFCURVE",
"413 492 OFFCURVE",
"297 492 CURVE SMOOTH"
);
}
);
};
layerId = "F1F93986-3ED8-4AAE-84C4-CA3EEECDDFA0";
paths = (
{
closed = 1;
nodes = (
"127 0 LINE",
"127 278 LINE SMOOTH",
"127 384 OFFCURVE",
"194 453 OFFCURVE",
"297 453 CURVE SMOOTH",
"389 453 OFFCURVE",
"428 406 OFFCURVE",
"428 304 CURVE SMOOTH",
"428 0 LINE",
"470 0 LINE",
"470 308 LINE SMOOTH",
"470 430 OFFCURVE",
"413 492 OFFCURVE",
"297 492 CURVE SMOOTH",
"212 492 OFFCURVE",
"141 450 OFFCURVE",
"115 366 CURVE",
"127 366 LINE",
"127 705 LINE",
"85 705 LINE",
"85 0 LINE"
);
}
);
width = 553;
},
{
anchors = (
{
name = bottom;
position = "{311, 0}";
},
{
name = center;
position = "{311, 250}";
},
{
name = dot;
position = "{402, 350}";
},
{
name = stroke;
position = "{198, 595}";
},
{
name = top;
position = "{310, 705}";
},
{
name = topright;
position = "{270, 705}";
}
);
background = {
anchors = (
{
name = bottom;
position = "{311, 0}";
},
{
name = center;
position = "{311, 250}";
},
{
name = dot;
position = "{402, 350}";
},
{
name = stroke;
position = "{198, 595}";
},
{
name = top;
position = "{310, 705}";
},
{
name = topright;
position = "{270, 705}";
}
);
paths = (
{
closed = 1;
nodes = (
"330 506 OFFCURVE",
"269 472 OFFCURVE",
"236 415 CURVE",
"252 415 LINE",
"252 705 LINE",
"44 705 LINE",
"44 0 LINE",
"252 0 LINE",
"252 272 LINE SMOOTH",
"252 318 OFFCURVE",
"280 348 OFFCURVE",
"322 348 CURVE SMOOTH",
"351 348 OFFCURVE",
"368 330 OFFCURVE",
"368 279 CURVE SMOOTH",
"368 0 LINE",
"576 0 LINE",
"576 287 LINE SMOOTH",
"576 436 OFFCURVE",
"520 506 OFFCURVE",
"403 506 CURVE SMOOTH"
);
}
);
};
layerId = "4121B50C-FD42-45C5-8FBE-41E76D98F91E";
paths = (
{
closed = 1;
nodes = (
"252 0 LINE",
"252 272 LINE SMOOTH",
"252 318 OFFCURVE",
"280 348 OFFCURVE",
"322 348 CURVE SMOOTH",
"351 348 OFFCURVE",
"368 330 OFFCURVE",
"368 279 CURVE SMOOTH",
"368 0 LINE",
"576 0 LINE",
"576 287 LINE SMOOTH",
"576 436 OFFCURVE",
"520 506 OFFCURVE",
"403 506 CURVE SMOOTH",
"330 506 OFFCURVE",
"269 472 OFFCURVE",
"236 415 CURVE",
"252 415 LINE",
"252 705 LINE",
"44 705 LINE",
"44 0 LINE"
);
}
);
width = 618;
}
);
leftKerningGroup = h;
leftMetricsKey = n;
rightKerningGroup = n;
rightMetricsKey = n;
unicode = 0068;
userData = {
anchors = (
);
b = {
};
com.typemytype.robofont.layerData = {
b = {
anchors = (
);
components = (
);
contours = (
);
lib = {
};
name = h;
unicodes = (
);
width = 1148;
};
};
components = (
);
contours = {
};
lib = {
};
name = h;
points = {
};
segmentType = curve;
unicodes = (
);
width = 1195;
x = 137;
y = 113;
};
},
{
glyphname = hbar;
lastChange = "2019-10-21 09:53:17 +0000";
layers = (
{
background = {
paths = (
{
closed = 1;
nodes = (
"212 492 OFFCURVE",
"141 450 OFFCURVE",
"115 366 CURVE",
"127 366 LINE",
"127 562 LINE",
"324 562 LINE",
"324 598 LINE",
"127 598 LINE",
"127 705 LINE",
"85 705 LINE",
"85 598 LINE",
"-10 598 LINE",
"-10 562 LINE",
"85 562 LINE",
"85 0 LINE",
"127 0 LINE",
"127 278 LINE SMOOTH",
"127 384 OFFCURVE",
"194 453 OFFCURVE",
"297 453 CURVE SMOOTH",
"389 453 OFFCURVE",
"428 406 OFFCURVE",
"428 304 CURVE SMOOTH",
"428 0 LINE",
"470 0 LINE",
"470 308 LINE SMOOTH",
"470 430 OFFCURVE",
"413 492 OFFCURVE",
"297 492 CURVE SMOOTH"
);
}
);
};
layerId = "F1F93986-3ED8-4AAE-84C4-CA3EEECDDFA0";
paths = (
{
closed = 1;
nodes = (
"127 0 LINE",
"127 278 LINE SMOOTH",
"127 384 OFFCURVE",
"194 453 OFFCURVE",
"297 453 CURVE SMOOTH",
"389 453 OFFCURVE",
"428 406 OFFCURVE",
"428 304 CURVE SMOOTH",
"428 0 LINE",
"470 0 LINE",
"470 308 LINE SMOOTH",
"470 430 OFFCURVE",
"413 492 OFFCURVE",
"297 492 CURVE SMOOTH",
"212 492 OFFCURVE",
"141 450 OFFCURVE",
"115 366 CURVE",
"127 366 LINE",
"127 562 LINE",
"324 562 LINE",
"324 598 LINE",
"127 598 LINE",
"127 705 LINE",
"85 705 LINE",
"85 598 LINE",
"-10 598 LINE",
"-10 562 LINE",
"85 562 LINE",
"85 0 LINE"
);
}
);
width = 553;
},
{
background = {
paths = (
{
closed = 1;
nodes = (
"330 486 OFFCURVE",
"269 452 OFFCURVE",
"236 395 CURVE",
"252 395 LINE",
"252 525 LINE",
"432 525 LINE",
"432 665 LINE",
"252 665 LINE",
"252 705 LINE",
"44 705 LINE",
"44 665 LINE",
"-36 665 LINE",
"-36 525 LINE",
"44 525 LINE",
"44 0 LINE",
"252 0 LINE",
"252 252 LINE SMOOTH",
"252 298 OFFCURVE",
"280 328 OFFCURVE",
"322 328 CURVE SMOOTH",
"351 328 OFFCURVE",
"368 310 OFFCURVE",
"368 259 CURVE SMOOTH",
"368 0 LINE",
"576 0 LINE",
"576 267 LINE SMOOTH",
"576 416 OFFCURVE",
"520 486 OFFCURVE",
"403 486 CURVE SMOOTH"
);
}
);
};
layerId = "4121B50C-FD42-45C5-8FBE-41E76D98F91E";
paths = (
{
closed = 1;
nodes = (
"252 0 LINE",
"252 252 LINE SMOOTH",
"252 298 OFFCURVE",
"280 328 OFFCURVE",
"322 328 CURVE SMOOTH",
"351 328 OFFCURVE",
"368 310 OFFCURVE",
"368 259 CURVE SMOOTH",
"368 0 LINE",
"576 0 LINE",
"576 267 LINE SMOOTH",
"576 416 OFFCURVE",
"520 486 OFFCURVE",
"403 486 CURVE SMOOTH",
"330 486 OFFCURVE",
"269 452 OFFCURVE",
"236 395 CURVE",
"252 395 LINE",
"252 525 LINE",
"432 525 LINE",
"432 665 LINE",
"252 665 LINE",
"252 705 LINE",
"44 705 LINE",
"44 665 LINE",
"-36 665 LINE",
"-36 525 LINE",
"44 525 LINE",
"44 0 LINE"
);
}
);
width = 618;
}
);
leftKerningGroup = h;
rightKerningGroup = n;
unicode = 0127;
},
{
glyphname = idotless;
lastChange = "2019-10-21 09:53:17 +0000";
layers = (
{
anchors = (
{
name = bottom;
position = "{106, 0}";
},
{
name = ogonek;
position = "{127, 0}";
},
{
name = top;
position = "{106, 484}";
}
);
background = {
anchors = (
{
name = bottom;
position = "{106, 0}";
},
{
name = ogonek;
position = "{127, 0}";
},
{
name = top;
position = "{106, 484}";
}
);
paths = (
{
closed = 1;
nodes = (
"127 0 LINE",
"127 484 LINE",
"85 484 LINE",
"85 0 LINE"
);
}
);
};
layerId = "F1F93986-3ED8-4AAE-84C4-CA3EEECDDFA0";
paths = (
{
closed = 1;
nodes = (
"127 0 LINE",
"127 484 LINE",
"85 484 LINE",
"85 0 LINE"
);
}
);
width = 212;
},
{
anchors = (
{
name = bottom;
position = "{148, 0}";
},
{
name = ogonek;
position = "{200, 0}";
},
{
name = top;
position = "{148, 484}";
}
);
background = {
anchors = (
{
name = bottom;
position = "{148, 0}";
},
{
name = ogonek;
position = "{200, 0}";
},
{
name = top;
position = "{148, 484}";
}
);
paths = (
{
closed = 1;
nodes = (
"252 0 LINE",
"252 494 LINE",
"44 494 LINE",
"44 0 LINE"
);
}
);
};
layerId = "4121B50C-FD42-45C5-8FBE-41E76D98F91E";
paths = (
{
closed = 1;
nodes = (
"252 0 LINE",
"252 494 LINE",
"44 494 LINE",
"44 0 LINE"
);
}
);
width = 296;
}
);
leftKerningGroup = n;
leftMetricsKey = n;
rightKerningGroup = u;
rightMetricsKey = "=|";
unicode = 0131;
},
{
glyphname = jdotless;
lastChange = "2019-10-21 09:53:17 +0000";
layers = (
{
anchors = (
{
name = bottom;
position = "{109, 0}";
},
{
name = top;
position = "{109, 484}";
}
);
background = {
anchors = (
{
name = bottom;
position = "{109, 0}";
},
{
name = top;
position = "{109, 484}";
}
);
paths = (
{
closed = 1;
nodes = (
"88 484 LINE",
"88 -22 LINE SMOOTH",
"88 -102 OFFCURVE",
"51 -147 OFFCURVE",
"-17 -152 CURVE SMOOTH",
"-58 -155 LINE",
"-55 -193 LINE",
"-12 -190 LINE SMOOTH",
"78 -184 OFFCURVE",
"130 -124 OFFCURVE",
"130 -21 CURVE SMOOTH",
"130 484 LINE"
);
}
);
};
layerId = "F1F93986-3ED8-4AAE-84C4-CA3EEECDDFA0";
paths = (
{
closed = 1;
nodes = (
"-12 -190 LINE SMOOTH",
"78 -184 OFFCURVE",
"130 -124 OFFCURVE",
"130 -21 CURVE SMOOTH",
"130 484 LINE",
"88 484 LINE",
"88 -22 LINE SMOOTH",
"88 -102 OFFCURVE",
"51 -147 OFFCURVE",
"-17 -152 CURVE SMOOTH",
"-58 -155 LINE",
"-55 -193 LINE"
);
}
);
width = 215;
},
{
anchors = (
{
name = bottom;
position = "{153, 0}";
},
{
name = top;
position = "{153, 484}";
}
);
background = {
anchors = (
{
name = bottom;
position = "{153, 0}";
},
{
name = top;
position = "{153, 484}";
}
);
paths = (
{
closed = 1;
nodes = (
"50 494 LINE",
"50 8 LINE SMOOTH",
"50 -24 OFFCURVE",
"37 -38 OFFCURVE",
"1 -42 CURVE SMOOTH",
"-49 -48 LINE",
"-35 -193 LINE",
"9 -190 LINE SMOOTH",
"199 -177 OFFCURVE",
"258 -120 OFFCURVE",
"258 39 CURVE SMOOTH",
"258 494 LINE"
);
}
);
};
layerId = "4121B50C-FD42-45C5-8FBE-41E76D98F91E";
paths = (
{
closed = 1;
nodes = (
"9 -190 LINE SMOOTH",
"199 -177 OFFCURVE",
"258 -120 OFFCURVE",
"258 39 CURVE SMOOTH",
"258 494 LINE",
"50 494 LINE",
"50 8 LINE SMOOTH",
"50 -24 OFFCURVE",
"37 -38 OFFCURVE",
"1 -42 CURVE SMOOTH",
"-49 -48 LINE",
"-35 -193 LINE"
);
}
);
width = 303;
}
);
leftKerningGroup = j;
rightKerningGroup = l;
unicode = 0237;
},
{
glyphname = k;
lastChange = "2019-10-21 09:53:17 +0000";
layers = (
{
anchors = (
{
name = bottom;
position = "{234, 0}";
},
{
name = top;
position = "{234, 705}";
}
);
background = {
anchors = (
{
name = bottom;
position = "{234, 0}";
},
{
name = top;
position = "{234, 705}";
}
);
paths = (
{
closed = 1;
nodes = (
"154 267 LINE",
"154 231 LINE",
"440 484 LINE",
"380 484 LINE",
"129 260 LINE",
"127 260 LINE",
"127 705 LINE",
"85 705 LINE",
"85 0 LINE",
"127 0 LINE",
"127 237 LINE",
"129 237 LINE",
"408 0 LINE",
"467 0 LINE"
);
}
);
};
layerId = "F1F93986-3ED8-4AAE-84C4-CA3EEECDDFA0";
paths = (
{
closed = 1;
nodes = (
"127 0 LINE",
"127 237 LINE",
"129 237 LINE",
"408 0 LINE",
"467 0 LINE",
"154 267 LINE",
"154 231 LINE",
"440 484 LINE",
"380 484 LINE",
"129 260 LINE",
"127 260 LINE",
"127 705 LINE",
"85 705 LINE",
"85 0 LINE"
);
}
);
width = 468;
},
{
anchors = (
{
name = bottom;
position = "{302, 0}";
},
{
name = top;
position = "{302, 705}";
}
);
background = {
anchors = (
{
name = bottom;
position = "{302, 0}";
},
{
name = top;
position = "{302, 705}";
}
);
paths = (
{
closed = 1;
nodes = (
"434 295 LINE",
"434 227 LINE",
"639 494 LINE",
"397 494 LINE",
"254 302 LINE",
"252 302 LINE",
"252 705 LINE",
"44 705 LINE",
"44 0 LINE",
"252 0 LINE",
"252 198 LINE",
"254 198 LINE",
"394 0 LINE",
"641 0 LINE"
);
}
);
};
layerId = "4121B50C-FD42-45C5-8FBE-41E76D98F91E";
paths = (
{
closed = 1;
nodes = (
"252 0 LINE",
"252 198 LINE",
"254 198 LINE",
"394 0 LINE",
"641 0 LINE",
"434 295 LINE",
"434 227 LINE",
"639 494 LINE",
"397 494 LINE",
"254 302 LINE",
"252 302 LINE",
"252 705 LINE",
"44 705 LINE",
"44 0 LINE"
);
}
);
width = 605;
}
);
leftKerningGroup = h;
leftMetricsKey = l;
rightKerningGroup = k;
unicode = 006B;
userData = {
com.typemytype.robofont.layerData = {
b = {
anchors = (
);
components = (
);
contours = (
{
points = (
{
segmentType = line;
smooth = 0;
x = 318;
y = 536;
},
{
segmentType = line;
smooth = 1;
x = 793;
y = 27;
},
{
smooth = 0;
x = 809;
y = 9;
},
{
smooth = 0;
x = 828;
y = 1;
},
{
segmentType = curve;
smooth = 1;
x = 845;
y = 1;
},
{
smooth = 0;
x = 883;
y = 1;
},
{
smooth = 0;
x = 922;
y = 33;
},
{
segmentType = curve;
smooth = 1;
x = 922;
y = 71;
},
{
smooth = 0;
x = 922;
y = 84;
},
{
smooth = 0;
x = 918;
y = 99;
},
{
segmentType = curve;
smooth = 1;
x = 906;
y = 112;
},
{
segmentType = line;
smooth = 0;
x = 492;
y = 554;
},
{
segmentType = line;
smooth = 1;
x = 873;
y = 889;
},
{
smooth = 0;
x = 888;
y = 902;
},
{
smooth = 0;
x = 894;
y = 918;
},
{
segmentType = curve;
smooth = 1;
x = 894;
y = 933;
},
{
smooth = 0;
x = 894;
y = 968;
},
{
smooth = 0;
x = 858;
y = 1002;
},
{
segmentType = curve;
smooth = 1;
x = 821;
y = 1002;
},
{
smooth = 0;
x = 802;
y = 1002;
},
{
smooth = 0;
x = 785;
y = 994;
},
{
segmentType = curve;
smooth = 0;
x = 770;
y = 979;
},
{
segmentType = line;
smooth = 0;
x = 318;
y = 574;
}
);
}
);
lib = {
};
name = k;
unicodes = (
);
width = 984;
};
};
};
},
{
color = 1;
glyphname = kgreenlandic;
lastChange = "2019-11-04 10:24:09 +0000";
layers = (
{
anchors = (
{
name = bottom;
position = "{234, 0}";
},
{
name = top;
position = "{234, 484}";
}
);
background = {
anchors = (
{
name = bottom;
position = "{234, 0}";
},
{
name = top;
position = "{234, 484}";
}
);
paths = (
{
closed = 1;
nodes = (
"154 267 LINE",
"154 231 LINE",
"440 484 LINE",
"380 484 LINE",
"129 260 LINE",
"127 260 LINE",
"127 492 LINE",
"85 492 LINE",
"85 0 LINE",
"127 0 LINE",
"127 237 LINE",
"129 237 LINE",
"408 0 LINE",
"467 0 LINE"
);
}
);
};
layerId = "F1F93986-3ED8-4AAE-84C4-CA3EEECDDFA0";
paths = (
{
closed = 1;
nodes = (
"127 0 LINE",
"127 237 LINE",
"129 237 LINE",
"408 0 LINE",
"467 0 LINE",
"154 267 LINE",
"154 231 LINE",
"440 484 LINE",
"380 484 LINE",
"129 260 LINE",
"127 260 LINE",
"127 484 LINE",
"85 484 LINE",
"85 0 LINE"
);
}
);
width = 468;
},
{
anchors = (
{
name = bottom;
position = "{302, 0}";
},
{
name = top;
position = "{302, 484}";
}
);
background = {
anchors = (
{
name = bottom;
position = "{302, 0}";
},
{
name = top;
position = "{302, 484}";
}
);
paths = (
{
closed = 1;
nodes = (
"434 295 LINE",
"434 227 LINE",
"639 494 LINE",
"397 494 LINE",
"254 302 LINE",
"252 302 LINE",
"252 494 LINE",
"44 494 LINE",
"44 0 LINE",
"252 0 LINE",
"252 198 LINE",
"254 198 LINE",
"394 0 LINE",
"641 0 LINE"
);
}
);
};
layerId = "4121B50C-FD42-45C5-8FBE-41E76D98F91E";
paths = (
{
closed = 1;
nodes = (
"252 0 LINE",
"252 198 LINE",
"254 198 LINE",
"394 0 LINE",
"641 0 LINE",
"434 295 LINE",
"434 227 LINE",
"639 494 LINE",
"397 494 LINE",
"254 302 LINE",
"252 302 LINE",
"252 494 LINE",
"44 494 LINE",
"44 0 LINE"
);
}
);
width = 605;
}
);
leftKerningGroup = n;
leftMetricsKey = n;
rightKerningGroup = k;
rightMetricsKey = k;
unicode = 0138;
userData = {
com.typemytype.robofont.layerData = {
b = {
anchors = (
);
components = (
);
contours = (
);
lib = {
};
name = kgreenlandic;
unicodes = (
);
width = 1047;
};
};
};
},
{
glyphname = l;
lastChange = "2019-10-21 09:53:17 +0000";
layers = (
{
anchors = (
{
name = bottom;
position = "{181, 0}";
},
{
name = center;
position = "{116, 357}";
},
{
name = dot;
position = "{244, 353}";
},
{
name = top;
position = "{106, 705}";
},
{
name = topright;
position = "{177, 705}";
}
);
background = {
anchors = (
{
name = bottom;
position = "{181, 0}";
},
{
name = center;
position = "{116, 357}";
},
{
name = dot;
position = "{244, 353}";
},
{
name = top;
position = "{106, 705}";
},
{
name = topright;
position = "{177, 705}";
}
);
paths = (
{
closed = 1;
nodes = (
"231 -8 OFFCURVE",
"247 -6 OFFCURVE",
"265 -2 CURVE",
"268 37 LINE",
"253 33 OFFCURVE",
"238 31 OFFCURVE",
"221 31 CURVE SMOOTH",
"159 31 OFFCURVE",
"127 72 OFFCURVE",
"127 153 CURVE SMOOTH",
"127 705 LINE",
"85 705 LINE",
"85 146 LINE SMOOTH",
"85 48 OFFCURVE",
"133 -8 OFFCURVE",
"217 -8 CURVE SMOOTH"
);
}
);
};
layerId = "F1F93986-3ED8-4AAE-84C4-CA3EEECDDFA0";
paths = (
{
closed = 1;
nodes = (
"231 -8 OFFCURVE",
"247 -6 OFFCURVE",
"265 -2 CURVE",
"268 37 LINE",
"253 33 OFFCURVE",
"238 31 OFFCURVE",
"221 31 CURVE SMOOTH",
"159 31 OFFCURVE",
"127 72 OFFCURVE",
"127 153 CURVE SMOOTH",
"127 705 LINE",
"85 705 LINE",
"85 146 LINE SMOOTH",
"85 48 OFFCURVE",
"133 -8 OFFCURVE",
"217 -8 CURVE SMOOTH"
);
}
);
width = 275;
},
{
anchors = (
{
name = bottom;
position = "{203, 0}";
},
{
name = center;
position = "{158, 357}";
},
{
name = dot;
position = "{400, 350}";
},
{
name = top;
position = "{148, 705}";
},
{
name = topright;
position = "{282, 705}";
}
);
background = {
anchors = (
{
name = bottom;
position = "{203, 0}";
},
{
name = center;
position = "{158, 357}";
},
{
name = dot;
position = "{400, 350}";
},
{
name = top;
position = "{148, 705}";
},
{
name = topright;
position = "{282, 705}";
}
);
paths = (
{
closed = 1;
nodes = (
"288 -12 OFFCURVE",
"319 -8 OFFCURVE",
"348 1 CURVE",
"349 158 LINE",
"337 155 OFFCURVE",
"323 154 OFFCURVE",
"310 154 CURVE SMOOTH",
"270 154 OFFCURVE",
"252 176 OFFCURVE",
"252 212 CURVE SMOOTH",
"252 705 LINE",
"44 705 LINE",
"44 207 LINE SMOOTH",
"44 59 OFFCURVE",
"104 -12 OFFCURVE",
"253 -12 CURVE SMOOTH"
);
}
);
};
layerId = "4121B50C-FD42-45C5-8FBE-41E76D98F91E";
paths = (
{
closed = 1;
nodes = (
"288 -12 OFFCURVE",
"319 -8 OFFCURVE",
"348 1 CURVE",
"349 158 LINE",
"337 155 OFFCURVE",
"323 154 OFFCURVE",
"310 154 CURVE SMOOTH",
"270 154 OFFCURVE",
"252 176 OFFCURVE",
"252 212 CURVE SMOOTH",
"252 705 LINE",
"44 705 LINE",
"44 207 LINE SMOOTH",
"44 59 OFFCURVE",
"104 -12 OFFCURVE",
"253 -12 CURVE SMOOTH"
);
}
);
width = 364;
}
);
leftKerningGroup = h;
rightKerningGroup = ltail;
unicode = 006C;
userData = {
com.typemytype.robofont.layerData = {
b = {
anchors = (
);
components = (
);
contours = (
);
lib = {
};
name = l;
unicodes = (
);
width = 511;
};
};
};
},
{
glyphname = m;
lastChange = "2019-10-21 09:53:17 +0000";
layers = (
{
anchors = (
{
name = bottom;
position = "{420, 0}";
},
{
name = top;
position = "{420, 484}";
}
);
background = {
anchors = (
{
name = bottom;
position = "{420, 0}";
},
{
name = top;
position = "{420, 484}";
}
);
paths = (
{
closed = 1;
nodes = (
"507 492 OFFCURVE",
"441 442 OFFCURVE",
"420 365 CURVE",
"435 365 LINE",
"420 450 OFFCURVE",
"369 492 OFFCURVE",
"282 492 CURVE SMOOTH",
"201 492 OFFCURVE",
"141 448 OFFCURVE",
"117 366 CURVE",
"128 366 LINE",
"128 484 LINE",
"87 484 LINE",
"87 0 LINE",
"129 0 LINE",
"129 278 LINE SMOOTH",
"129 384 OFFCURVE",
"188 453 OFFCURVE",
"280 453 CURVE SMOOTH",
"365 453 OFFCURVE",
"399 406 OFFCURVE",
"399 304 CURVE SMOOTH",
"399 0 LINE",
"441 0 LINE",
"441 278 LINE SMOOTH",
"441 384 OFFCURVE",
"500 453 OFFCURVE",
"592 453 CURVE SMOOTH",
"677 453 OFFCURVE",
"711 406 OFFCURVE",
"711 304 CURVE SMOOTH",
"711 0 LINE",
"753 0 LINE",
"753 308 LINE SMOOTH",
"753 431 OFFCURVE",
"699 492 OFFCURVE",
"594 492 CURVE SMOOTH"
);
}
);
};
layerId = "F1F93986-3ED8-4AAE-84C4-CA3EEECDDFA0";
paths = (
{
closed = 1;
nodes = (
"129 0 LINE",
"129 278 LINE SMOOTH",
"129 384 OFFCURVE",
"188 453 OFFCURVE",
"280 453 CURVE SMOOTH",
"365 453 OFFCURVE",
"399 406 OFFCURVE",
"399 304 CURVE SMOOTH",
"399 0 LINE",
"441 0 LINE",
"441 278 LINE SMOOTH",
"441 384 OFFCURVE",
"500 453 OFFCURVE",
"592 453 CURVE SMOOTH",
"677 453 OFFCURVE",
"711 406 OFFCURVE",
"711 304 CURVE SMOOTH",
"711 0 LINE",
"753 0 LINE",
"753 308 LINE SMOOTH",
"753 431 OFFCURVE",
"699 492 OFFCURVE",
"594 492 CURVE SMOOTH",
"507 492 OFFCURVE",
"441 442 OFFCURVE",
"420 365 CURVE",
"435 365 LINE",
"420 450 OFFCURVE",
"369 492 OFFCURVE",
"282 492 CURVE SMOOTH",
"201 492 OFFCURVE",
"141 448 OFFCURVE",
"117 366 CURVE",
"128 366 LINE",
"128 484 LINE",
"87 484 LINE",
"87 0 LINE"
);
}
);
width = 838;
},
{
anchors = (
{
name = bottom;
position = "{459, 0}";
},
{
name = top;
position = "{459, 484}";
}
);
background = {
anchors = (
{
name = bottom;
position = "{459, 0}";
},
{
name = top;
position = "{459, 484}";
}
);
paths = (
{
closed = 1;
nodes = (
"629 506 OFFCURVE",
"564 468 OFFCURVE",
"531 405 CURVE",
"545 405 LINE",
"520 473 OFFCURVE",
"466 506 OFFCURVE",
"398 506 CURVE SMOOTH",
"323 506 OFFCURVE",
"266 468 OFFCURVE",
"238 415 CURVE",
"249 415 LINE",
"249 494 LINE",
"46 494 LINE",
"46 0 LINE",
"254 0 LINE",
"254 264 LINE SMOOTH",
"254 320 OFFCURVE",
"274 348 OFFCURVE",
"313 348 CURVE SMOOTH",
"343 348 OFFCURVE",
"355 330 OFFCURVE",
"355 282 CURVE SMOOTH",
"355 0 LINE",
"563 0 LINE",
"563 264 LINE SMOOTH",
"563 320 OFFCURVE",
"583 348 OFFCURVE",
"622 348 CURVE SMOOTH",
"652 348 OFFCURVE",
"664 330 OFFCURVE",
"664 282 CURVE SMOOTH",
"664 0 LINE",
"872 0 LINE",
"872 287 LINE SMOOTH",
"872 437 OFFCURVE",
"818 506 OFFCURVE",
"702 506 CURVE SMOOTH"
);
}
);
};
layerId = "4121B50C-FD42-45C5-8FBE-41E76D98F91E";
paths = (
{
closed = 1;
nodes = (
"254 0 LINE",
"254 264 LINE SMOOTH",
"254 320 OFFCURVE",
"274 348 OFFCURVE",
"313 348 CURVE SMOOTH",
"343 348 OFFCURVE",
"355 330 OFFCURVE",
"355 282 CURVE SMOOTH",
"355 0 LINE",
"563 0 LINE",
"563 264 LINE SMOOTH",
"563 320 OFFCURVE",
"583 348 OFFCURVE",
"622 348 CURVE SMOOTH",
"652 348 OFFCURVE",
"664 330 OFFCURVE",
"664 282 CURVE SMOOTH",
"664 0 LINE",
"872 0 LINE",
"872 287 LINE SMOOTH",
"872 437 OFFCURVE",
"818 506 OFFCURVE",
"702 506 CURVE SMOOTH",
"629 506 OFFCURVE",
"564 468 OFFCURVE",
"531 405 CURVE",
"545 405 LINE",
"520 473 OFFCURVE",
"466 506 OFFCURVE",
"398 506 CURVE SMOOTH",
"323 506 OFFCURVE",
"266 468 OFFCURVE",
"238 415 CURVE",
"249 415 LINE",
"249 494 LINE",
"46 494 LINE",
"46 0 LINE"
);
}
);
width = 916;
}
);
leftKerningGroup = n;
leftMetricsKey = "=n+2";
rightKerningGroup = n;
rightMetricsKey = "=n+2";
unicode = 006D;
userData = {
anchors = (
);
b = {
};
com.typemytype.robofont.layerData = {
b = {
anchors = (
);
components = (
);
contours = (
);
lib = {
};
name = m;
unicodes = (
);
width = 1838;
};
};
components = (
);
contours = (
);
lib = {
};
name = m;
unicodes = (
);
width = 1877;
};
},
{
glyphname = n;
lastChange = "2019-10-21 11:42:29 +0000";
layers = (
{
anchors = (
{
name = bottom;
position = "{277, 0}";
},
{
name = top;
position = "{277, 484}";
}
);
background = {
anchors = (
{
name = bottom;
position = "{277, 0}";
},
{
name = top;
position = "{277, 484}";
}
);
paths = (
{
closed = 1;
nodes = (
"212 492 OFFCURVE",
"141 450 OFFCURVE",
"115 366 CURVE",
"126 366 LINE",
"126 484 LINE",
"85 484 LINE",
"85 0 LINE",
"127 0 LINE",
"127 278 LINE SMOOTH",
"127 384 OFFCURVE",
"194 453 OFFCURVE",
"297 453 CURVE SMOOTH",
"389 453 OFFCURVE",
"428 406 OFFCURVE",
"428 304 CURVE SMOOTH",
"428 0 LINE",
"470 0 LINE",
"470 308 LINE SMOOTH",
"470 432 OFFCURVE",
"413 492 OFFCURVE",
"297 492 CURVE SMOOTH"
);
}
);
};
layerId = "F1F93986-3ED8-4AAE-84C4-CA3EEECDDFA0";
paths = (
{
closed = 1;
nodes = (
"127 0 LINE",
"127 278 LINE SMOOTH",
"127 384 OFFCURVE",
"194 453 OFFCURVE",
"297 453 CURVE SMOOTH",
"389 453 OFFCURVE",
"428 406 OFFCURVE",
"428 304 CURVE SMOOTH",
"428 0 LINE",
"470 0 LINE",
"470 308 LINE SMOOTH",
"470 432 OFFCURVE",
"413 492 OFFCURVE",
"297 492 CURVE SMOOTH",
"212 492 OFFCURVE",
"141 450 OFFCURVE",
"115 366 CURVE",
"126 366 LINE",
"126 484 LINE",
"85 484 LINE",
"85 0 LINE"
);
}
);
width = 553;
},
{
anchors = (
{
name = bottom;
position = "{311, 0}";
},
{
name = top;
position = "{311, 484}";
}
);
background = {
paths = (
{
closed = 1;
nodes = (
"252 0 LINE",
"252 272 LINE SMOOTH",
"252 318 OFFCURVE",
"280 348 OFFCURVE",
"322 348 CURVE SMOOTH",
"351 348 OFFCURVE",
"368 330 OFFCURVE",
"368 279 CURVE SMOOTH",
"368 0 LINE",
"576 0 LINE",
"576 287 LINE SMOOTH",
"576 436 OFFCURVE",
"520 506 OFFCURVE",
"403 506 CURVE SMOOTH",
"330 506 OFFCURVE",
"269 472 OFFCURVE",
"236 415 CURVE",
"247 415 LINE",
"247 494 LINE",
"44 494 LINE",
"44 0 LINE"
);
}
);
};
layerId = "4121B50C-FD42-45C5-8FBE-41E76D98F91E";
paths = (
{
closed = 1;
nodes = (
"252 0 LINE",
"252 272 LINE SMOOTH",
"252 318 OFFCURVE",
"280 348 OFFCURVE",
"322 348 CURVE SMOOTH",
"351 348 OFFCURVE",
"368 330 OFFCURVE",
"368 279 CURVE SMOOTH",
"368 0 LINE",
"576 0 LINE",
"576 287 LINE SMOOTH",
"576 436 OFFCURVE",
"520 506 OFFCURVE",
"403 506 CURVE SMOOTH",
"330 506 OFFCURVE",
"269 472 OFFCURVE",
"236 415 CURVE",
"247 415 LINE",
"247 494 LINE",
"44 494 LINE",
"44 0 LINE"
);
}
);
width = 618;
}
);
leftKerningGroup = n;
rightKerningGroup = n;
unicode = 006E;
userData = {
anchors = (
);
b = {
};
com.typemytype.robofont.layerData = {
b = {
anchors = (
);
components = (
);
contours = (
);
lib = {
};
name = n;
unicodes = (
);
width = 1152;
};
};
components = (
);
contours = {
};
lib = {
};
name = n;
points = {
};
segmentType = curve;
unicodes = (
);
width = 1195;
x = 137;
y = 113;
};
},
{
glyphname = eng;
lastChange = "2019-10-21 09:53:17 +0000";
layers = (
{
background = {
paths = (
{
closed = 1;
nodes = (
"470 308 LINE SMOOTH",
"470 432 OFFCURVE",
"413 492 OFFCURVE",
"297 492 CURVE SMOOTH",
"212 492 OFFCURVE",
"141 450 OFFCURVE",
"115 366 CURVE",
"126 366 LINE",
"126 484 LINE",
"85 484 LINE",
"85 0 LINE",
"127 0 LINE",
"127 278 LINE SMOOTH",
"127 384 OFFCURVE",
"194 453 OFFCURVE",
"297 453 CURVE SMOOTH",
"389 453 OFFCURVE",
"428 406 OFFCURVE",
"428 304 CURVE SMOOTH",
"428 -22 LINE SMOOTH",
"428 -102 OFFCURVE",
"391 -147 OFFCURVE",
"323 -152 CURVE SMOOTH",
"282 -155 LINE",
"285 -193 LINE",
"328 -190 LINE SMOOTH",
"418 -184 OFFCURVE",
"470 -124 OFFCURVE",
"470 -21 CURVE SMOOTH"
);
}
);
};
layerId = "F1F93986-3ED8-4AAE-84C4-CA3EEECDDFA0";
paths = (
{
closed = 1;
nodes = (
"328 -190 LINE SMOOTH",
"418 -184 OFFCURVE",
"470 -124 OFFCURVE",
"470 -21 CURVE SMOOTH",
"470 308 LINE SMOOTH",
"470 432 OFFCURVE",
"413 492 OFFCURVE",
"297 492 CURVE SMOOTH",
"212 492 OFFCURVE",
"141 450 OFFCURVE",
"115 366 CURVE",
"126 366 LINE",
"126 484 LINE",
"85 484 LINE",
"85 0 LINE",
"127 0 LINE",
"127 278 LINE SMOOTH",
"127 384 OFFCURVE",
"194 453 OFFCURVE",
"297 453 CURVE SMOOTH",
"389 453 OFFCURVE",
"428 406 OFFCURVE",
"428 304 CURVE SMOOTH",
"428 -22 LINE SMOOTH",
"428 -102 OFFCURVE",
"391 -147 OFFCURVE",
"323 -152 CURVE SMOOTH",
"282 -155 LINE",
"285 -193 LINE"
);
}
);
width = 553;
},
{
background = {
paths = (
{
closed = 1;
nodes = (
"576 287 LINE SMOOTH",
"576 436 OFFCURVE",
"520 506 OFFCURVE",
"403 506 CURVE SMOOTH",
"330 506 OFFCURVE",
"269 472 OFFCURVE",
"236 415 CURVE",
"247 415 LINE",
"247 494 LINE",
"44 494 LINE",
"44 0 LINE",
"252 0 LINE",
"252 272 LINE SMOOTH",
"252 318 OFFCURVE",
"280 348 OFFCURVE",
"322 348 CURVE SMOOTH",
"351 348 OFFCURVE",
"368 330 OFFCURVE",
"368 279 CURVE SMOOTH",
"368 8 LINE SMOOTH",
"368 -24 OFFCURVE",
"355 -38 OFFCURVE",
"319 -42 CURVE SMOOTH",
"269 -48 LINE",
"283 -193 LINE",
"327 -190 LINE SMOOTH",
"517 -177 OFFCURVE",
"576 -120 OFFCURVE",
"576 39 CURVE SMOOTH"
);
}
);
};
layerId = "4121B50C-FD42-45C5-8FBE-41E76D98F91E";
paths = (
{
closed = 1;
nodes = (
"327 -190 LINE SMOOTH",
"517 -177 OFFCURVE",
"576 -120 OFFCURVE",
"576 39 CURVE SMOOTH",
"576 287 LINE SMOOTH",
"576 436 OFFCURVE",
"520 506 OFFCURVE",
"403 506 CURVE SMOOTH",
"330 506 OFFCURVE",
"269 472 OFFCURVE",
"236 415 CURVE",
"247 415 LINE",
"247 494 LINE",
"44 494 LINE",
"44 0 LINE",
"252 0 LINE",
"252 272 LINE SMOOTH",
"252 318 OFFCURVE",
"280 348 OFFCURVE",
"322 348 CURVE SMOOTH",
"351 348 OFFCURVE",
"368 330 OFFCURVE",
"368 279 CURVE SMOOTH",
"368 8 LINE SMOOTH",
"368 -24 OFFCURVE",
"355 -38 OFFCURVE",
"319 -42 CURVE SMOOTH",
"269 -48 LINE",
"283 -193 LINE"
);
}
);
width = 618;
}
);
leftKerningGroup = n;
leftMetricsKey = n;
widthMetricsKey = n;
rightKerningGroup = n;
unicode = 014B;
},
{
glyphname = o;
lastChange = "2019-10-21 09:53:17 +0000";
layers = (
{
anchors = (
{
name = bottom;
position = "{269, 0}";
},
{
name = center;
position = "{269, 242}";
},
{
name = ogonek;
position = "{328, 0}";
},
{
name = top;
position = "{269, 484}";
},
{
name = topright;
position = "{315, 484}";
}
);
background = {
anchors = (
{
name = bottom;
position = "{269, 0}";
},
{
name = center;
position = "{269, 242}";
},
{
name = ogonek;
position = "{328, 0}";
},
{
name = top;
position = "{269, 484}";
},
{
name = topright;
position = "{315, 484}";
}
);
paths = (
{
closed = 1;
nodes = (
"401 -8 OFFCURVE",
"485 90 OFFCURVE",
"485 242 CURVE SMOOTH",
"485 394 OFFCURVE",
"401 492 OFFCURVE",
"269 492 CURVE SMOOTH",
"137 492 OFFCURVE",
"53 394 OFFCURVE",
"53 242 CURVE SMOOTH",
"53 90 OFFCURVE",
"137 -8 OFFCURVE",
"269 -8 CURVE SMOOTH"
);
},
{
closed = 1;
nodes = (
"163 31 OFFCURVE",
"96 109 OFFCURVE",
"96 242 CURVE SMOOTH",
"96 375 OFFCURVE",
"163 453 OFFCURVE",
"269 453 CURVE SMOOTH",
"375 453 OFFCURVE",
"442 375 OFFCURVE",
"442 242 CURVE SMOOTH",
"442 109 OFFCURVE",
"375 31 OFFCURVE",
"269 31 CURVE SMOOTH"
);
}
);
};
layerId = "F1F93986-3ED8-4AAE-84C4-CA3EEECDDFA0";
paths = (
{
closed = 1;
nodes = (
"401 -8 OFFCURVE",
"485 90 OFFCURVE",
"485 242 CURVE SMOOTH",
"485 394 OFFCURVE",
"401 492 OFFCURVE",
"269 492 CURVE SMOOTH",
"137 492 OFFCURVE",
"53 394 OFFCURVE",
"53 242 CURVE SMOOTH",
"53 90 OFFCURVE",
"137 -8 OFFCURVE",
"269 -8 CURVE SMOOTH"
);
},
{
closed = 1;
nodes = (
"163 31 OFFCURVE",
"96 109 OFFCURVE",
"96 242 CURVE SMOOTH",
"96 375 OFFCURVE",
"163 453 OFFCURVE",
"269 453 CURVE SMOOTH",
"375 453 OFFCURVE",
"442 375 OFFCURVE",
"442 242 CURVE SMOOTH",
"442 109 OFFCURVE",
"375 31 OFFCURVE",
"269 31 CURVE SMOOTH"
);
}
);
width = 538;
},
{
anchors = (
{
name = bottom;
position = "{308, 0}";
},
{
name = center;
position = "{308, 247}";
},
{
name = ogonek;
position = "{367, 0}";
},
{
name = top;
position = "{308, 484}";
},
{
name = topright;
position = "{380, 484}";
}
);
background = {
anchors = (
{
name = bottom;
position = "{308, 0}";
},
{
name = center;
position = "{308, 247}";
},
{
name = ogonek;
position = "{367, 0}";
},
{
name = top;
position = "{308, 484}";
},
{
name = topright;
position = "{380, 484}";
}
);
paths = (
{
closed = 1;
nodes = (
"479 -12 OFFCURVE",
"592 86 OFFCURVE",
"592 247 CURVE SMOOTH",
"592 408 OFFCURVE",
"479 506 OFFCURVE",
"308 506 CURVE SMOOTH",
"137 506 OFFCURVE",
"24 408 OFFCURVE",
"24 247 CURVE SMOOTH",
"24 86 OFFCURVE",
"137 -12 OFFCURVE",
"308 -12 CURVE SMOOTH"
);
},
{
closed = 1;
nodes = (
"265 140 OFFCURVE",
"233 168 OFFCURVE",
"233 247 CURVE SMOOTH",
"233 326 OFFCURVE",
"265 354 OFFCURVE",
"308 354 CURVE SMOOTH",
"351 354 OFFCURVE",
"383 326 OFFCURVE",
"383 247 CURVE SMOOTH",
"383 168 OFFCURVE",
"351 140 OFFCURVE",
"308 140 CURVE SMOOTH"
);
}
);
};
layerId = "4121B50C-FD42-45C5-8FBE-41E76D98F91E";
paths = (
{
closed = 1;
nodes = (
"479 -12 OFFCURVE",
"592 86 OFFCURVE",
"592 247 CURVE SMOOTH",
"592 408 OFFCURVE",
"479 506 OFFCURVE",
"308 506 CURVE SMOOTH",
"137 506 OFFCURVE",
"24 408 OFFCURVE",
"24 247 CURVE SMOOTH",
"24 86 OFFCURVE",
"137 -12 OFFCURVE",
"308 -12 CURVE SMOOTH"
);
},
{
closed = 1;
nodes = (
"265 140 OFFCURVE",
"233 168 OFFCURVE",
"233 247 CURVE SMOOTH",
"233 326 OFFCURVE",
"265 354 OFFCURVE",
"308 354 CURVE SMOOTH",
"351 354 OFFCURVE",
"383 326 OFFCURVE",
"383 247 CURVE SMOOTH",
"383 168 OFFCURVE",
"351 140 OFFCURVE",
"308 140 CURVE SMOOTH"
);
}
);
width = 616;
}
);
leftKerningGroup = o;
rightKerningGroup = o;
unicode = 006F;
userData = {
anchors = (
);
b = {
};
com.typemytype.robofont.guides = (
);
com.typemytype.robofont.layerData = {
b = {
anchors = (
);
components = (
);
contours = (
);
lib = {
};
name = o;
unicodes = (
);
width = 1144;
};
};
components = (
);
contours = (
);
lib = {
};
name = o;
unicodes = (
);
width = 1199;
};
},
{
color = 0;
glyphname = oe;
lastChange = "2019-10-14 21:40:51 +0000";
layers = (
{
anchors = (
{
name = bottom;
position = "{464, 0}";
},
{
name = top;
position = "{464, 484}";
}
);
background = {
anchors = (
{
name = bottom;
position = "{464, 0}";
},
{
name = top;
position = "{464, 484}";
}
);
paths = (
{
closed = 1;
nodes = (
"372 -8 OFFCURVE",
"446 55 OFFCURVE",
"471 160 CURVE",
"453 160 LINE",
"478 50 OFFCURVE",
"557 -8 OFFCURVE",
"673 -8 CURVE SMOOTH",
"741 -8 OFFCURVE",
"810 18 OFFCURVE",
"850 60 CURVE",
"830 94 LINE",
"778 50 OFFCURVE",
"728 31 OFFCURVE",
"671 31 CURVE SMOOTH",
"551 31 OFFCURVE",
"486 109 OFFCURVE",
"486 240 CURVE SMOOTH",
"486 246 LINE SMOOTH",
"486 364 OFFCURVE",
"549 454 OFFCURVE",
"661 454 CURVE SMOOTH",
"765 454 OFFCURVE",
"819 380 OFFCURVE",
"819 262 CURVE",
"835 271 LINE",
"466 271 LINE",
"466 234 LINE",
"858 234 LINE",
"858 260 LINE SMOOTH",
"858 405 OFFCURVE",
"785 492 OFFCURVE",
"665 492 CURVE SMOOTH",
"560 492 OFFCURVE",
"480 429 OFFCURVE",
"454 321 CURVE",
"473 321 LINE",
"448 428 OFFCURVE",
"373 492 OFFCURVE",
"269 492 CURVE SMOOTH",
"137 492 OFFCURVE",
"53 394 OFFCURVE",
"53 242 CURVE SMOOTH",
"53 90 OFFCURVE",
"137 -8 OFFCURVE",
"269 -8 CURVE SMOOTH"
);
},
{
closed = 1;
nodes = (
"163 31 OFFCURVE",
"96 109 OFFCURVE",
"96 242 CURVE SMOOTH",
"96 375 OFFCURVE",
"163 453 OFFCURVE",
"269 453 CURVE SMOOTH",
"375 453 OFFCURVE",
"442 375 OFFCURVE",
"442 242 CURVE SMOOTH",
"442 109 OFFCURVE",
"375 31 OFFCURVE",
"269 31 CURVE SMOOTH"
);
}
);
};
layerId = "F1F93986-3ED8-4AAE-84C4-CA3EEECDDFA0";
paths = (
{
closed = 1;
nodes = (
"372 -8 OFFCURVE",
"446 55 OFFCURVE",
"471 160 CURVE",
"453 160 LINE",
"478 50 OFFCURVE",
"557 -8 OFFCURVE",
"673 -8 CURVE SMOOTH",
"741 -8 OFFCURVE",
"810 18 OFFCURVE",
"850 60 CURVE",
"830 94 LINE",
"778 50 OFFCURVE",
"728 31 OFFCURVE",
"671 31 CURVE SMOOTH",
"551 31 OFFCURVE",
"486 109 OFFCURVE",
"486 240 CURVE SMOOTH",
"486 246 LINE SMOOTH",
"486 364 OFFCURVE",
"549 454 OFFCURVE",
"661 454 CURVE SMOOTH",
"765 454 OFFCURVE",
"819 380 OFFCURVE",
"819 262 CURVE",
"835 271 LINE",
"466 271 LINE",
"466 234 LINE",
"858 234 LINE",
"858 260 LINE SMOOTH",
"858 405 OFFCURVE",
"785 492 OFFCURVE",
"665 492 CURVE SMOOTH",
"560 492 OFFCURVE",
"480 429 OFFCURVE",
"454 321 CURVE",
"473 321 LINE",
"448 428 OFFCURVE",
"373 492 OFFCURVE",
"269 492 CURVE SMOOTH",
"137 492 OFFCURVE",
"53 394 OFFCURVE",
"53 242 CURVE SMOOTH",
"53 90 OFFCURVE",
"137 -8 OFFCURVE",
"269 -8 CURVE SMOOTH"
);
},
{
closed = 1;
nodes = (
"163 31 OFFCURVE",
"96 109 OFFCURVE",
"96 242 CURVE SMOOTH",
"96 375 OFFCURVE",
"163 453 OFFCURVE",
"269 453 CURVE SMOOTH",
"375 453 OFFCURVE",
"442 375 OFFCURVE",
"442 242 CURVE SMOOTH",
"442 109 OFFCURVE",
"375 31 OFFCURVE",
"269 31 CURVE SMOOTH"
);
}
);
width = 906;
},
{
anchors = (
{
name = bottom;
position = "{484, 0}";
},
{
name = top;
position = "{484, 484}";
}
);
background = {
anchors = (
{
name = bottom;
position = "{484, 0}";
},
{
name = top;
position = "{484, 484}";
}
);
paths = (
{
closed = 1;
nodes = (
"390 -12 OFFCURVE",
"458 18 OFFCURVE",
"506 72 CURVE",
"469 72 LINE",
"517 19 OFFCURVE",
"591 -12 OFFCURVE",
"689 -12 CURVE SMOOTH",
"760 -12 OFFCURVE",
"842 10 OFFCURVE",
"896 45 CURVE",
"846 181 LINE",
"805 155 OFFCURVE",
"746 139 OFFCURVE",
"699 139 CURVE SMOOTH",
"618 139 OFFCURVE",
"586 168 OFFCURVE",
"586 255 CURVE SMOOTH",
"586 264 LINE SMOOTH",
"586 340 OFFCURVE",
"613 373 OFFCURVE",
"664 373 CURVE SMOOTH",
"709 373 OFFCURVE",
"736 347 OFFCURVE",
"736 286 CURVE",
"751 297 LINE",
"566 297 LINE",
"566 206 LINE",
"904 206 LINE",
"904 246 LINE SMOOTH",
"904 407 OFFCURVE",
"807 506 OFFCURVE",
"652 506 CURVE SMOOTH",
"576 506 OFFCURVE",
"514 482 OFFCURVE",
"467 434 CURVE",
"504 434 LINE",
"456 481 OFFCURVE",
"389 506 OFFCURVE",
"301 506 CURVE SMOOTH",
"132 506 OFFCURVE",
"24 407 OFFCURVE",
"24 250 CURVE SMOOTH",
"24 90 OFFCURVE",
"132 -12 OFFCURVE",
"301 -12 CURVE SMOOTH"
);
},
{
closed = 1;
nodes = (
"266 140 OFFCURVE",
"233 170 OFFCURVE",
"233 248 CURVE SMOOTH",
"233 325 OFFCURVE",
"265 354 OFFCURVE",
"308 354 CURVE SMOOTH",
"351 354 OFFCURVE",
"383 325 OFFCURVE",
"383 248 CURVE SMOOTH",
"383 170 OFFCURVE",
"352 140 OFFCURVE",
"309 140 CURVE SMOOTH"
);
}
);
};
layerId = "4121B50C-FD42-45C5-8FBE-41E76D98F91E";
paths = (
{
closed = 1;
nodes = (
"390 -12 OFFCURVE",
"458 18 OFFCURVE",
"506 72 CURVE",
"469 72 LINE",
"517 19 OFFCURVE",
"591 -12 OFFCURVE",
"689 -12 CURVE SMOOTH",
"760 -12 OFFCURVE",
"842 10 OFFCURVE",
"896 45 CURVE",
"846 181 LINE",
"805 155 OFFCURVE",
"746 139 OFFCURVE",
"699 139 CURVE SMOOTH",
"618 139 OFFCURVE",
"586 168 OFFCURVE",
"586 255 CURVE SMOOTH",
"586 264 LINE SMOOTH",
"586 340 OFFCURVE",
"613 373 OFFCURVE",
"664 373 CURVE SMOOTH",
"709 373 OFFCURVE",
"736 347 OFFCURVE",
"736 286 CURVE",
"751 297 LINE",
"566 297 LINE",
"566 206 LINE",
"904 206 LINE",
"904 246 LINE SMOOTH",
"904 407 OFFCURVE",
"807 506 OFFCURVE",
"652 506 CURVE SMOOTH",
"576 506 OFFCURVE",
"514 482 OFFCURVE",
"467 434 CURVE",
"504 434 LINE",
"456 481 OFFCURVE",
"389 506 OFFCURVE",
"301 506 CURVE SMOOTH",
"132 506 OFFCURVE",
"24 407 OFFCURVE",
"24 250 CURVE SMOOTH",
"24 90 OFFCURVE",
"132 -12 OFFCURVE",
"301 -12 CURVE SMOOTH"
);
},
{
closed = 1;
nodes = (
"266 140 OFFCURVE",
"233 170 OFFCURVE",
"233 248 CURVE SMOOTH",
"233 325 OFFCURVE",
"265 354 OFFCURVE",
"308 354 CURVE SMOOTH",
"351 354 OFFCURVE",
"383 325 OFFCURVE",
"383 248 CURVE SMOOTH",
"383 170 OFFCURVE",
"352 140 OFFCURVE",
"309 140 CURVE SMOOTH"
);
}
);
width = 924;
}
);
leftKerningGroup = o;
leftMetricsKey = o;
rightKerningGroup = e;
rightMetricsKey = e;
unicode = 0153;
},
{
color = 0;
glyphname = p;
lastChange = "2019-10-14 22:14:51 +0000";
layers = (
{
anchors = (
{
name = bottom;
position = "{282, 0}";
},
{
name = top;
position = "{282, 484}";
}
);
background = {
anchors = (
{
name = bottom;
position = "{282, 0}";
},
{
name = top;
position = "{282, 484}";
}
);
paths = (
{
closed = 1;
nodes = (
"207 492 OFFCURVE",
"138 440 OFFCURVE",
"116 358 CURVE",
"127 358 LINE",
"127 484 LINE",
"85 484 LINE",
"85 -180 LINE",
"127 -180 LINE",
"127 126 LINE",
"116 126 LINE",
"138 44 OFFCURVE",
"207 -8 OFFCURVE",
"300 -8 CURVE SMOOTH",
"432 -8 OFFCURVE",
"515 89 OFFCURVE",
"515 242 CURVE SMOOTH",
"515 395 OFFCURVE",
"431 492 OFFCURVE",
"300 492 CURVE SMOOTH"
);
},
{
closed = 1;
nodes = (
"405 453 OFFCURVE",
"472 375 OFFCURVE",
"472 242 CURVE SMOOTH",
"472 109 OFFCURVE",
"405 31 OFFCURVE",
"299 31 CURVE SMOOTH",
"193 31 OFFCURVE",
"126 109 OFFCURVE",
"126 242 CURVE SMOOTH",
"126 375 OFFCURVE",
"193 453 OFFCURVE",
"299 453 CURVE SMOOTH"
);
}
);
};
layerId = "F1F93986-3ED8-4AAE-84C4-CA3EEECDDFA0";
paths = (
{
closed = 1;
nodes = (
"127 -180 LINE",
"127 126 LINE",
"116 126 LINE",
"138 44 OFFCURVE",
"207 -8 OFFCURVE",
"300 -8 CURVE SMOOTH",
"432 -8 OFFCURVE",
"515 89 OFFCURVE",
"515 242 CURVE SMOOTH",
"515 395 OFFCURVE",
"431 492 OFFCURVE",
"300 492 CURVE SMOOTH",
"207 492 OFFCURVE",
"138 440 OFFCURVE",
"116 358 CURVE",
"127 358 LINE",
"127 484 LINE",
"85 484 LINE",
"85 -180 LINE"
);
},
{
closed = 1;
nodes = (
"193 31 OFFCURVE",
"126 109 OFFCURVE",
"126 242 CURVE SMOOTH",
"126 375 OFFCURVE",
"193 453 OFFCURVE",
"299 453 CURVE SMOOTH",
"405 453 OFFCURVE",
"472 375 OFFCURVE",
"472 242 CURVE SMOOTH",
"472 109 OFFCURVE",
"405 31 OFFCURVE",
"299 31 CURVE SMOOTH"
);
}
);
width = 568;
},
{
anchors = (
{
name = bottom;
position = "{315, 0}";
},
{
name = top;
position = "{315, 484}";
}
);
background = {
anchors = (
{
name = bottom;
position = "{315, 0}";
},
{
name = top;
position = "{315, 484}";
}
);
paths = (
{
closed = 1;
nodes = (
"321 506 OFFCURVE",
"256 468 OFFCURVE",
"238 413 CURVE",
"249 413 LINE",
"249 494 LINE",
"44 494 LINE",
"44 -180 LINE",
"252 -180 LINE",
"252 73 LINE",
"240 73 LINE",
"260 24 OFFCURVE",
"324 -12 OFFCURVE",
"393 -12 CURVE SMOOTH",
"519 -12 OFFCURVE",
"608 86 OFFCURVE",
"608 247 CURVE SMOOTH",
"608 408 OFFCURVE",
"518 506 OFFCURVE",
"393 506 CURVE SMOOTH"
);
},
{
closed = 1;
nodes = (
"367 354 OFFCURVE",
"399 326 OFFCURVE",
"399 247 CURVE SMOOTH",
"399 168 OFFCURVE",
"367 140 OFFCURVE",
"324 140 CURVE SMOOTH",
"281 140 OFFCURVE",
"249 168 OFFCURVE",
"249 247 CURVE SMOOTH",
"249 326 OFFCURVE",
"281 354 OFFCURVE",
"324 354 CURVE SMOOTH"
);
}
);
};
layerId = "4121B50C-FD42-45C5-8FBE-41E76D98F91E";
paths = (
{
closed = 1;
nodes = (
"252 -180 LINE",
"252 73 LINE",
"240 73 LINE",
"260 24 OFFCURVE",
"324 -12 OFFCURVE",
"393 -12 CURVE SMOOTH",
"519 -12 OFFCURVE",
"608 86 OFFCURVE",
"608 247 CURVE SMOOTH",
"608 408 OFFCURVE",
"518 506 OFFCURVE",
"393 506 CURVE SMOOTH",
"321 506 OFFCURVE",
"256 468 OFFCURVE",
"238 413 CURVE",
"249 413 LINE",
"249 494 LINE",
"44 494 LINE",
"44 -180 LINE"
);
},
{
closed = 1;
nodes = (
"281 140 OFFCURVE",
"249 168 OFFCURVE",
"249 247 CURVE SMOOTH",
"249 326 OFFCURVE",
"281 354 OFFCURVE",
"324 354 CURVE SMOOTH",
"367 354 OFFCURVE",
"399 326 OFFCURVE",
"399 247 CURVE SMOOTH",
"399 168 OFFCURVE",
"367 140 OFFCURVE",
"324 140 CURVE SMOOTH"
);
}
);
width = 632;
}
);
leftKerningGroup = n;
leftMetricsKey = n;
rightKerningGroup = o;
rightMetricsKey = o;
unicode = 0070;
userData = {
anchors = (
);
b = {
};
com.typemytype.robofont.layerData = {
b = {
anchors = (
);
components = (
);
contours = (
);
lib = {
};
name = p;
unicodes = (
);
width = 1181;
};
};
components = (
);
contours = (
);
lib = {
};
name = p;
unicodes = (
);
width = 1207;
};
},
{
glyphname = thorn;
lastChange = "2019-10-21 09:53:17 +0000";
layers = (
{
anchors = (
{
name = bottom;
position = "{281, 0}";
},
{
name = top;
position = "{281, 484}";
}
);
background = {
anchors = (
{
name = bottom;
position = "{281, 0}";
},
{
name = top;
position = "{281, 484}";
}
);
paths = (
{
closed = 1;
nodes = (
"207 492 OFFCURVE",
"138 440 OFFCURVE",
"116 358 CURVE",
"127 358 LINE",
"127 705 LINE",
"85 705 LINE",
"85 -180 LINE",
"127 -180 LINE",
"127 126 LINE",
"116 126 LINE",
"138 44 OFFCURVE",
"207 -8 OFFCURVE",
"300 -8 CURVE SMOOTH",
"432 -8 OFFCURVE",
"515 89 OFFCURVE",
"515 242 CURVE SMOOTH",
"515 395 OFFCURVE",
"431 492 OFFCURVE",
"300 492 CURVE SMOOTH"
);
},
{
closed = 1;
nodes = (
"405 453 OFFCURVE",
"472 375 OFFCURVE",
"472 242 CURVE SMOOTH",
"472 109 OFFCURVE",
"405 31 OFFCURVE",
"299 31 CURVE SMOOTH",
"193 31 OFFCURVE",
"126 109 OFFCURVE",
"126 242 CURVE SMOOTH",
"126 375 OFFCURVE",
"193 453 OFFCURVE",
"299 453 CURVE SMOOTH"
);
}
);
};
layerId = "F1F93986-3ED8-4AAE-84C4-CA3EEECDDFA0";
paths = (
{
closed = 1;
nodes = (
"127 -180 LINE",
"127 126 LINE",
"116 126 LINE",
"138 44 OFFCURVE",
"207 -8 OFFCURVE",
"300 -8 CURVE SMOOTH",
"432 -8 OFFCURVE",
"515 89 OFFCURVE",
"515 242 CURVE SMOOTH",
"515 395 OFFCURVE",
"431 492 OFFCURVE",
"300 492 CURVE SMOOTH",
"207 492 OFFCURVE",
"138 440 OFFCURVE",
"116 358 CURVE",
"127 358 LINE",
"127 705 LINE",
"85 705 LINE",
"85 -180 LINE"
);
},
{
closed = 1;
nodes = (
"193 31 OFFCURVE",
"126 109 OFFCURVE",
"126 242 CURVE SMOOTH",
"126 375 OFFCURVE",
"193 453 OFFCURVE",
"299 453 CURVE SMOOTH",
"405 453 OFFCURVE",
"472 375 OFFCURVE",
"472 242 CURVE SMOOTH",
"472 109 OFFCURVE",
"405 31 OFFCURVE",
"299 31 CURVE SMOOTH"
);
}
);
width = 568;
},
{
anchors = (
{
name = bottom;
position = "{320, 0}";
},
{
name = top;
position = "{320, 484}";
}
);
background = {
anchors = (
{
name = bottom;
position = "{320, 0}";
},
{
name = top;
position = "{320, 484}";
}
);
paths = (
{
closed = 1;
nodes = (
"321 506 OFFCURVE",
"256 468 OFFCURVE",
"238 413 CURVE",
"252 413 LINE",
"252 705 LINE",
"44 705 LINE",
"44 -180 LINE",
"252 -180 LINE",
"252 73 LINE",
"240 73 LINE",
"260 24 OFFCURVE",
"324 -12 OFFCURVE",
"393 -12 CURVE SMOOTH",
"519 -12 OFFCURVE",
"608 86 OFFCURVE",
"608 247 CURVE SMOOTH",
"608 408 OFFCURVE",
"518 506 OFFCURVE",
"393 506 CURVE SMOOTH"
);
},
{
closed = 1;
nodes = (
"367 354 OFFCURVE",
"399 326 OFFCURVE",
"399 247 CURVE SMOOTH",
"399 168 OFFCURVE",
"367 140 OFFCURVE",
"324 140 CURVE SMOOTH",
"281 140 OFFCURVE",
"249 168 OFFCURVE",
"249 247 CURVE SMOOTH",
"249 326 OFFCURVE",
"281 354 OFFCURVE",
"324 354 CURVE SMOOTH"
);
}
);
};
layerId = "4121B50C-FD42-45C5-8FBE-41E76D98F91E";
paths = (
{
closed = 1;
nodes = (
"252 -180 LINE",
"252 73 LINE",
"240 73 LINE",
"260 24 OFFCURVE",
"324 -12 OFFCURVE",
"393 -12 CURVE SMOOTH",
"519 -12 OFFCURVE",
"608 86 OFFCURVE",
"608 247 CURVE SMOOTH",
"608 408 OFFCURVE",
"518 506 OFFCURVE",
"393 506 CURVE SMOOTH",
"321 506 OFFCURVE",
"256 468 OFFCURVE",
"238 413 CURVE",
"252 413 LINE",
"252 705 LINE",
"44 705 LINE",
"44 -180 LINE"
);
},
{
closed = 1;
nodes = (
"281 140 OFFCURVE",
"249 168 OFFCURVE",
"249 247 CURVE SMOOTH",
"249 326 OFFCURVE",
"281 354 OFFCURVE",
"324 354 CURVE SMOOTH",
"367 354 OFFCURVE",
"399 326 OFFCURVE",
"399 247 CURVE SMOOTH",
"399 168 OFFCURVE",
"367 140 OFFCURVE",
"324 140 CURVE SMOOTH"
);
}
);
width = 632;
}
);
leftKerningGroup = h;
leftMetricsKey = n;
rightKerningGroup = o;
rightMetricsKey = o;
unicode = 00FE;
},
{
glyphname = q;
lastChange = "2019-10-21 09:53:17 +0000";
layers = (
{
anchors = (
{
name = bottom;
position = "{282, 0}";
},
{
name = top;
position = "{282, 484}";
}
);
background = {
anchors = (
{
name = bottom;
position = "{282, 0}";
},
{
name = top;
position = "{282, 484}";
}
);
paths = (
{
closed = 1;
nodes = (
"137 492 OFFCURVE",
"53 395 OFFCURVE",
"53 242 CURVE SMOOTH",
"53 89 OFFCURVE",
"136 -8 OFFCURVE",
"268 -8 CURVE SMOOTH",
"361 -8 OFFCURVE",
"430 44 OFFCURVE",
"452 126 CURVE",
"441 126 LINE",
"441 -180 LINE",
"483 -180 LINE",
"483 484 LINE",
"441 484 LINE",
"441 358 LINE",
"452 358 LINE",
"430 440 OFFCURVE",
"361 492 OFFCURVE",
"268 492 CURVE SMOOTH"
);
},
{
closed = 1;
nodes = (
"375 453 OFFCURVE",
"442 375 OFFCURVE",
"442 242 CURVE SMOOTH",
"442 109 OFFCURVE",
"375 31 OFFCURVE",
"269 31 CURVE SMOOTH",
"163 31 OFFCURVE",
"96 109 OFFCURVE",
"96 242 CURVE SMOOTH",
"96 375 OFFCURVE",
"163 453 OFFCURVE",
"269 453 CURVE SMOOTH"
);
}
);
};
layerId = "F1F93986-3ED8-4AAE-84C4-CA3EEECDDFA0";
paths = (
{
closed = 1;
nodes = (
"483 -180 LINE",
"483 484 LINE",
"441 484 LINE",
"441 358 LINE",
"452 358 LINE",
"430 440 OFFCURVE",
"361 492 OFFCURVE",
"268 492 CURVE SMOOTH",
"137 492 OFFCURVE",
"53 395 OFFCURVE",
"53 242 CURVE SMOOTH",
"53 89 OFFCURVE",
"136 -8 OFFCURVE",
"268 -8 CURVE SMOOTH",
"361 -8 OFFCURVE",
"430 44 OFFCURVE",
"452 126 CURVE",
"441 126 LINE",
"441 -180 LINE"
);
},
{
closed = 1;
nodes = (
"163 31 OFFCURVE",
"96 109 OFFCURVE",
"96 242 CURVE SMOOTH",
"96 375 OFFCURVE",
"163 453 OFFCURVE",
"269 453 CURVE SMOOTH",
"375 453 OFFCURVE",
"442 375 OFFCURVE",
"442 242 CURVE SMOOTH",
"442 109 OFFCURVE",
"375 31 OFFCURVE",
"269 31 CURVE SMOOTH"
);
}
);
width = 568;
},
{
anchors = (
{
name = bottom;
position = "{320, 0}";
},
{
name = top;
position = "{320, 484}";
}
);
background = {
anchors = (
{
name = bottom;
position = "{320, 0}";
},
{
name = top;
position = "{320, 484}";
}
);
paths = (
{
closed = 1;
nodes = (
"114 506 OFFCURVE",
"24 408 OFFCURVE",
"24 247 CURVE SMOOTH",
"24 86 OFFCURVE",
"113 -12 OFFCURVE",
"239 -12 CURVE SMOOTH",
"308 -12 OFFCURVE",
"372 24 OFFCURVE",
"392 73 CURVE",
"380 73 LINE",
"380 -180 LINE",
"588 -180 LINE",
"588 494 LINE",
"383 494 LINE",
"383 413 LINE",
"394 413 LINE",
"376 468 OFFCURVE",
"311 506 OFFCURVE",
"239 506 CURVE SMOOTH"
);
},
{
closed = 1;
nodes = (
"351 354 OFFCURVE",
"383 326 OFFCURVE",
"383 247 CURVE SMOOTH",
"383 168 OFFCURVE",
"351 140 OFFCURVE",
"308 140 CURVE SMOOTH",
"265 140 OFFCURVE",
"233 168 OFFCURVE",
"233 247 CURVE SMOOTH",
"233 326 OFFCURVE",
"265 354 OFFCURVE",
"308 354 CURVE SMOOTH"
);
}
);
};
layerId = "4121B50C-FD42-45C5-8FBE-41E76D98F91E";
paths = (
{
closed = 1;
nodes = (
"588 -180 LINE",
"588 494 LINE",
"383 494 LINE",
"383 413 LINE",
"394 413 LINE",
"376 468 OFFCURVE",
"311 506 OFFCURVE",
"239 506 CURVE SMOOTH",
"114 506 OFFCURVE",
"24 408 OFFCURVE",
"24 247 CURVE SMOOTH",
"24 86 OFFCURVE",
"113 -12 OFFCURVE",
"239 -12 CURVE SMOOTH",
"308 -12 OFFCURVE",
"372 24 OFFCURVE",
"392 73 CURVE",
"380 73 LINE",
"380 -180 LINE"
);
},
{
closed = 1;
nodes = (
"265 140 OFFCURVE",
"233 168 OFFCURVE",
"233 247 CURVE SMOOTH",
"233 326 OFFCURVE",
"265 354 OFFCURVE",
"308 354 CURVE SMOOTH",
"351 354 OFFCURVE",
"383 326 OFFCURVE",
"383 247 CURVE SMOOTH",
"383 168 OFFCURVE",
"351 140 OFFCURVE",
"308 140 CURVE SMOOTH"
);
}
);
width = 632;
}
);
leftKerningGroup = o;
leftMetricsKey = o;
rightKerningGroup = q;
rightMetricsKey = "=|n";
unicode = 0071;
userData = {
anchors = (
);
b = {
};
com.typemytype.robofont.layerData = {
b = {
anchors = (
);
components = (
);
contours = (
);
lib = {
};
name = p;
unicodes = (
);
width = 1181;
};
};
components = (
);
contours = (
);
lib = {
};
name = p;
unicodes = (
);
width = 1207;
};
},
